<svg id="my-svg" width="100%" xmlns="http://www.w3.org/2000/svg" xmlns:xlink="http://www.w3.org/1999/xlink" class="flowchart" style="max-width: 252.249px; background-color: white;" viewBox="0 0 252.24888610839844 272" role="graphics-document document" aria-roledescription="flowchart-v2"><style>#my-svg{font-family:"trebuchet ms",verdana,arial,sans-serif;font-size:16px;fill:#333;}@keyframes edge-animation-frame{from{stroke-dashoffset:0;}}@keyframes dash{to{stroke-dashoffset:0;}}#my-svg .edge-animation-slow{stroke-dasharray:9,5!important;stroke-dashoffset:900;animation:dash 50s linear infinite;stroke-linecap:round;}#my-svg .edge-animation-fast{stroke-dasharray:9,5!important;stroke-dashoffset:900;animation:dash 20s linear infinite;stroke-linecap:round;}#my-svg .error-icon{fill:#552222;}#my-svg .error-text{fill:#552222;stroke:#552222;}#my-svg .edge-thickness-normal{stroke-width:1px;}#my-svg .edge-thickness-thick{stroke-width:3.5px;}#my-svg .edge-pattern-solid{stroke-dasharray:0;}#my-svg .edge-thickness-invisible{stroke-width:0;fill:none;}#my-svg .edge-pattern-dashed{stroke-dasharray:3;}#my-svg .edge-pattern-dotted{stroke-dasharray:2;}#my-svg .marker{fill:#333333;stroke:#333333;}#my-svg .marker.cross{stroke:#333333;}#my-svg svg{font-family:"trebuchet ms",verdana,arial,sans-serif;font-size:16px;}#my-svg p{margin:0;}#my-svg .label{font-family:"trebuchet ms",verdana,arial,sans-serif;color:#333;}#my-svg .cluster-label text{fill:#333;}#my-svg .cluster-label span{color:#333;}#my-svg .cluster-label span p{background-color:transparent;}#my-svg .label text,#my-svg span{fill:#333;color:#333;}#my-svg .node rect,#my-svg .node circle,#my-svg .node ellipse,#my-svg .node polygon,#my-svg .node path{fill:#ECECFF;stroke:#9370DB;stroke-width:1px;}#my-svg .rough-node .label text,#my-svg .node .label text,#my-svg .image-shape .label,#my-svg .icon-shape .label{text-anchor:middle;}#my-svg .node .katex path{fill:#000;stroke:#000;stroke-width:1px;}#my-svg .rough-node .label,#my-svg .node .label,#my-svg .image-shape .label,#my-svg .icon-shape .label{text-align:center;}#my-svg .node.clickable{cursor:pointer;}#my-svg .root .anchor path{fill:#333333!important;stroke-width:0;stroke:#333333;}#my-svg .arrowheadPath{fill:#333333;}#my-svg .edgePath .path{stroke:#333333;stroke-width:1px;}#my-svg .flowchart-link{stroke:#333333;fill:none;}#my-svg .edgeLabel{background-color:rgba(232,232,232, 0.8);text-align:center;}#my-svg .edgeLabel p{background-color:rgba(232,232,232, 0.8);}#my-svg .edgeLabel rect{opacity:0.5;background-color:rgba(232,232,232, 0.8);fill:rgba(232,232,232, 0.8);}#my-svg .labelBkg{background-color:rgba(232, 232, 232, 0.5);}#my-svg .cluster rect{fill:#ffffde;stroke:#aaaa33;stroke-width:1px;}#my-svg .cluster text{fill:#333;}#my-svg .cluster span{color:#333;}#my-svg div.mermaidTooltip{position:absolute;text-align:center;max-width:200px;padding:2px;font-family:"trebuchet ms",verdana,arial,sans-serif;font-size:12px;background:hsl(80, 100%, 96.2745098039%);border:1px solid #aaaa33;border-radius:2px;pointer-events:none;z-index:100;}#my-svg .flowchartTitleText{text-anchor:middle;font-size:18px;fill:#333;}#my-svg rect.text{fill:none;stroke-width:0;}#my-svg .icon-shape,#my-svg .image-shape{background-color:rgba(232,232,232, 0.8);text-align:center;}#my-svg .icon-shape p,#my-svg .image-shape p{background-color:rgba(232,232,232, 0.8);padding:2px;}#my-svg .icon-shape .label rect,#my-svg .image-shape .label rect{opacity:0.5;background-color:rgba(232,232,232, 0.8);fill:rgba(232,232,232, 0.8);}#my-svg .label-icon{display:inline-block;height:1em;overflow:visible;vertical-align:-0.125em;}#my-svg .node .label-icon path{fill:currentColor;stroke:revert;stroke-width:revert;}#my-svg .node .neo-node{stroke:#9370DB;}#my-svg [data-look="neo"].node rect,#my-svg [data-look="neo"].cluster rect,#my-svg [data-look="neo"].node polygon{stroke:#9370DB;filter:drop-shadow(1px 2px 2px rgba(185, 185, 185, 1));}#my-svg [data-look="neo"].swimlane.cluster rect{filter:none;}#my-svg [data-look="neo"].node path{stroke:#9370DB;stroke-width:1px;}#my-svg [data-look="neo"].node .outer-path{filter:drop-shadow(1px 2px 2px rgba(185, 185, 185, 1));}#my-svg [data-look="neo"].node .neo-line path{stroke:#9370DB;filter:none;}#my-svg [data-look="neo"].node circle{stroke:#9370DB;filter:drop-shadow(1px 2px 2px rgba(185, 185, 185, 1));}#my-svg [data-look="neo"].node circle .state-start{fill:#000000;}#my-svg [data-look="neo"].icon-shape .icon{fill:#9370DB;filter:drop-shadow(1px 2px 2px rgba(185, 185, 185, 1));}#my-svg [data-look="neo"].icon-shape .icon-neo path{stroke:#9370DB;filter:drop-shadow(1px 2px 2px rgba(185, 185, 185, 1));}#my-svg :root{--mermaid-font-family:"trebuchet ms",verdana,arial,sans-serif;}</style><g><marker id="my-svg_flowchart-v2-pointEnd" class="marker flowchart-v2" viewBox="0 0 10 10" refX="5" refY="5" markerUnits="userSpaceOnUse" markerWidth="8" markerHeight="8" orient="auto"><path d="M 0 0 L 10 5 L 0 10 z" class="arrowMarkerPath" style="stroke-width: 1; stroke-dasharray: 1, 0;"/></marker><marker id="my-svg_flowchart-v2-pointStart" class="marker flowchart-v2" viewBox="0 0 10 10" refX="4.5" refY="5" markerUnits="userSpaceOnUse" markerWidth="8" markerHeight="8" orient="auto"><path d="M 0 5 L 10 10 L 10 0 z" class="arrowMarkerPath" style="stroke-width: 1; stroke-dasharray: 1, 0;"/></marker><marker id="my-svg_flowchart-v2-pointEnd-margin" class="marker flowchart-v2" viewBox="0 0 11.5 14" refX="11.5" refY="7" markerUnits="userSpaceOnUse" markerWidth="10.5" markerHeight="14" orient="auto"><path d="M 0 0 L 11.5 7 L 0 14 z" class="arrowMarkerPath" style="stroke-width: 0; stroke-dasharray: 1, 0;"/></marker><marker id="my-svg_flowchart-v2-pointStart-margin" class="marker flowchart-v2" viewBox="0 0 11.5 14" refX="1" refY="7" markerUnits="userSpaceOnUse" markerWidth="11.5" markerHeight="14" orient="auto"><polygon points="0,7 11.5,14 11.5,0" class="arrowMarkerPath" style="stroke-width: 0; stroke-dasharray: 1, 0;"/></marker><marker id="my-svg_flowchart-v2-circleEnd" class="marker flowchart-v2" viewBox="0 0 10 10" refX="11" refY="5" markerUnits="userSpaceOnUse" markerWidth="11" markerHeight="11" orient="auto"><circle cx="5" cy="5" r="5" class="arrowMarkerPath" style="stroke-width: 1; stroke-dasharray: 1, 0;"/></marker><marker id="my-svg_flowchart-v2-circleStart" class="marker flowchart-v2" viewBox="0 0 10 10" refX="-1" refY="5" markerUnits="userSpaceOnUse" markerWidth="11" markerHeight="11" orient="auto"><circle cx="5" cy="5" r="5" class="arrowMarkerPath" style="stroke-width: 1; stroke-dasharray: 1, 0;"/></marker><marker id="my-svg_flowchart-v2-circleEnd-margin" class="marker flowchart-v2" viewBox="0 0 10 10" refY="5" refX="12.25" markerUnits="userSpaceOnUse" markerWidth="14" markerHeight="14" orient="auto"><circle cx="5" cy="5" r="5" class="arrowMarkerPath" style="stroke-width: 0; stroke-dasharray: 1, 0;"/></marker><marker id="my-svg_flowchart-v2-circleStart-margin" class="marker flowchart-v2" viewBox="0 0 10 10" refX="-2" refY="5" markerUnits="userSpaceOnUse" markerWidth="14" markerHeight="14" orient="auto"><circle cx="5" cy="5" r="5" class="arrowMarkerPath" style="stroke-width: 0; stroke-dasharray: 1, 0;"/></marker><marker id="my-svg_flowchart-v2-crossEnd" class="marker cross flowchart-v2" viewBox="0 0 11 11" refX="12" refY="5.2" markerUnits="userSpaceOnUse" markerWidth="11" markerHeight="11" orient="auto"><path d="M 1,1 l 9,9 M 10,1 l -9,9" class="arrowMarkerPath" style="stroke-width: 2; stroke-dasharray: 1, 0;"/></marker><marker id="my-svg_flowchart-v2-crossStart" class="marker cross flowchart-v2" viewBox="0 0 11 11" refX="-1" refY="5.2" markerUnits="userSpaceOnUse" markerWidth="11" markerHeight="11" orient="auto"><path d="M 1,1 l 9,9 M 10,1 l -9,9" class="arrowMarkerPath" style="stroke-width: 2; stroke-dasharray: 1, 0;"/></marker><marker id="my-svg_flowchart-v2-crossEnd-margin" class="marker cross flowchart-v2" viewBox="0 0 15 15" refX="17.7" refY="7.5" markerUnits="userSpaceOnUse" markerWidth="12" markerHeight="12" orient="auto"><path d="M 1,1 L 14,14 M 1,14 L 14,1" class="arrowMarkerPath" style="stroke-width: 2.5;"/></marker><marker id="my-svg_flowchart-v2-crossStart-margin" class="marker cross flowchart-v2" viewBox="0 0 15 15" refX="-3.5" refY="7.5" markerUnits="userSpaceOnUse" markerWidth="12" markerHeight="12" orient="auto"><path d="M 1,1 L 14,14 M 1,14 L 14,1" class="arrowMarkerPath" style="stroke-width: 2.5; stroke-dasharray: 1, 0;"/></marker><g class="root"><g class="clusters"/><g class="edgePaths"><path d="M126.624,71.5L126.541,75.583C126.458,79.667,126.291,87.833,126.208,95.417C126.124,103,126.124,110,126.124,113.5L126.124,117" id="my-svg-L_start_node_1_0" class="edge-thickness-normal edge-pattern-solid edge-thickness-normal edge-pattern-solid flowchart-link" style=";" data-edge="true" data-et="edge" data-id="L_start_node_1_0" data-points="W3sieCI6MTI2LjYyNDQ0MzA1NDE5OTIyLCJ5Ijo3MS41fSx7IngiOjEyNi4xMjQ0NDMwNTQxOTkyMiwieSI6OTZ9LHsieCI6MTI2LjEyNDQ0MzA1NDE5OTIyLCJ5IjoxMjF9XQ==" data-look="classic" marker-end="url(#my-svg_flowchart-v2-pointEnd)"/><path d="M126.124,175L126.124,179.167C126.124,183.333,126.124,191.667,126.195,199.417C126.265,207.167,126.405,214.334,126.476,217.917L126.546,221.501" id="my-svg-L_node_1_node_2_0" class="edge-thickness-normal edge-pattern-solid edge-thickness-normal edge-pattern-solid flowchart-link" style=";" data-edge="true" data-et="edge" data-id="L_node_1_node_2_0" data-points="W3sieCI6MTI2LjEyNDQ0MzA1NDE5OTIyLCJ5IjoxNzV9LHsieCI6MTI2LjEyNDQ0MzA1NDE5OTIyLCJ5IjoyMDB9LHsieCI6MTI2LjYyNDQ0MzA1NDE5OTIyLCJ5IjoyMjUuNTAwMDAwMDAwMDAwMDN9XQ==" data-look="classic" marker-end="url(#my-svg_flowchart-v2-pointEnd)"/></g><g class="edgeLabels"><g class="edgeLabel"><g class="label" data-id="L_start_node_1_0" transform="translate(0, 0)"><foreignObject width="0" height="0"><div xmlns="http://www.w3.org/1999/xhtml" class="labelBkg" style="display: table-cell; white-space: nowrap; line-height: 1.5; max-width: 200px; text-align: center;"><span class="edgeLabel"></span></div></foreignObject></g></g><g class="edgeLabel"><g class="label" data-id="L_node_1_node_2_0" transform="translate(0, 0)"><foreignObject width="0" height="0"><div xmlns="http://www.w3.org/1999/xhtml" class="labelBkg" style="display: table-cell; white-space: nowrap; line-height: 1.5; max-width: 200px; text-align: center;"><span class="edgeLabel"></span></div></foreignObject></g></g></g><g class="nodes"><g class="node default" id="my-svg-flowchart-start-0" data-look="classic" transform="translate(126.12444305419922, 39.5)"><g class="basic label-container outer-path"><path d="M-86.640625 -31.5 C-22.298353530486665 -31.5, 42.04391793902667 -31.5, 86.640625 -31.5 C86.640625 -31.5, 86.640625 -31.5, 86.640625 -31.5 C87.19000007129084 -31.48238261075741, 87.73937514258166 -31.464765221514817, 88.65883692939245 -31.435279871635593 C89.25651603143635 -31.377622487475705, 89.85419513348026 -31.319965103315816, 90.66875559306193 -31.241385435432253 C91.4429056444087 -31.116226858753823, 92.21705569575545 -30.99106828207539, 92.66212180409322 -30.91911344521856 C93.35206873288779 -30.761637561045674, 94.04201566168236 -30.60416167687279, 94.63074439314947 -30.469788185729428 C95.02488067399821 -30.35281060643708, 95.41901695484694 -30.235833027144732, 96.56653386774406 -29.895256030836062 C97.29335322952741 -29.627779787055257, 98.02017259131077 -29.360303543274455, 98.46153565370028 -29.197877856399685 C98.9677875767628 -28.973775147489636, 99.47403949982531 -28.749672438579587, 100.30796278220308 -28.380519338926202 C101.01100494298885 -28.013742693964264, 101.71404710377462 -27.646966049002323, 102.09822788812403 -27.44653917988677 C102.67801207573699 -27.09507059816572, 103.25779626334995 -26.743602016444665, 103.82497438813228 -26.399775304092984 C104.44545531517608 -25.96695466957365, 105.06593624221988 -25.53413403505432, 105.4811067104733 -25.244529088840633 C106.08333950432962 -24.764264461827914, 106.68557229818595 -24.283999834815198, 107.05981945219533 -23.985547688627737 C107.60004102980061 -23.494932745326306, 108.14026260740589 -23.004317802024875, 108.55462534400982 -22.62800452807842 C109.08925611337959 -22.075954364701644, 109.62388688274936 -21.523904201324868, 109.95938190787243 -21.177478043231485 C110.41914408551273 -20.637415228166162, 110.87890626315304 -20.09735241310084, 111.26831669774293 -19.63992875855011 C111.63210905123377 -19.152480147037593, 111.9959014047246 -18.665031535525078, 112.4760510198041 -18.02167479384835 C112.72931032581671 -17.63260049016708, 112.9825696318293 -17.243526186485806, 113.5776220346684 -16.329365901781543 C113.94536418045833 -15.676402484001326, 114.31310632624826 -15.02343906622111, 114.5685031507495 -14.56995614258631 C114.7603114134029 -14.171662181147163, 114.9521196760563 -13.773368219708015, 115.44462262499809 -12.750675308355413 C115.66689030227866 -12.201669848219211, 115.88915797955923 -11.65266438808301, 116.20238029456745 -10.878999214271206 C116.37119012527724 -10.370570900367287, 116.53999995598701 -9.86214258646337, 116.83866237065482 -8.962618978877531 C116.97550069194754 -8.440795153684757, 117.11233901324027 -7.918971328491984, 117.35085423372745 -7.009409419623907 C117.46893253389425 -6.403102304124986, 117.58701083406103 -5.796795188626065, 117.73685117755518 -5.027396693551458 C117.79702438504677 -4.560705178790487, 117.85719759253837 -4.094013664029516, 117.99506705789975 -3.024725316091981 C118.02378494180647 -2.5774210935860626, 118.0525028257132 -2.130116871080144, 118.12444081032167 -1.0096246935071378 C118.12444081032167 -0.3491238408292131, 118.12444081032167 0.3113770118487116, 118.12444081032167 1.00962469350713 C118.07474525532248 1.7836730761495834, 118.02504970032328 2.5577214587920363, 117.99506705789975 3.02472531609196 C117.89753796062647 3.78114173524488, 117.80000886335318 4.5375581543978, 117.73685117755518 5.027396693551435 C117.63089801917398 5.571443768630923, 117.52494486079279 6.115490843710409, 117.35085423372745 7.0094094196239 C117.16608792939232 7.714003416276616, 116.98132162505718 8.418597412929332, 116.83866237065482 8.96261897887751 C116.58841478968093 9.716324821233489, 116.33816720870705 10.470030663589467, 116.20238029456746 10.878999214271184 C115.97063099282889 11.451424470133407, 115.7388816910903 12.02384972599563, 115.44462262499809 12.750675308355405 C115.15868484560389 13.344431225355843, 114.8727470662097 13.93818714235628, 114.5685031507495 14.569956142586303 C114.3391750283471 14.977151445902267, 114.1098469059447 15.38434674921823, 113.57762203466841 16.329365901781536 C113.27916166770359 16.787881173269778, 112.98070130073877 17.24639644475802, 112.47605101980412 18.021674793848334 C112.09204100144912 18.53621323441168, 111.7080309830941 19.05075167497503, 111.26831669774295 19.639928758550102 C110.8811887750276 20.094671244774382, 110.49406085231226 20.549413730998662, 109.95938190787246 21.177478043231467 C109.63293986222693 21.514556256750847, 109.30649781658143 21.851634470270223, 108.55462534400982 22.628004528078414 C108.02547677867535 23.108563254611347, 107.49632821334089 23.58912198114428, 107.05981945219536 23.985547688627715 C106.49097287074439 24.439187699691594, 105.92212628929342 24.89282771075547, 105.48110671047331 25.24452908884063 C104.87789313400289 25.66530476709153, 104.27467955753247 26.086080445342432, 103.82497438813229 26.399775304092973 C103.4444655126627 26.630442020521, 103.0639566371931 26.861108736949024, 102.09822788812404 27.446539179886766 C101.56778854110597 27.723269047463475, 101.03734919408791 27.999998915040184, 100.30796278220309 28.3805193389262 C99.61721379289605 28.68629342615168, 98.92646480358901 28.992067513377158, 98.4615356537003 29.197877856399682 C97.80052566875408 29.44113564116921, 97.13951568380784 29.68439342593874, 96.56653386774407 29.895256030836055 C96.14255624168146 30.021090364747465, 95.71857861561887 30.14692469865887, 94.63074439314951 30.46978818572942 C93.97627139667183 30.619167376340016, 93.32179840019417 30.76854656695061, 92.66212180409323 30.919113445218557 C91.96770873056101 31.03138076569343, 91.27329565702881 31.143648086168305, 90.66875559306196 31.24138543543225 C90.09839658692933 31.2964072827968, 89.5280375807967 31.35142913016135, 88.65883692939245 31.435279871635593 C87.85945871240658 31.46091437515902, 87.0600804954207 31.48654887868245, 86.640625 31.5 C86.640625 31.5, 86.640625 31.5, 86.640625 31.5 C50.60453852816552 31.5, 14.56845205633104 31.5, -86.640625 31.5 C-87.39742070381568 31.475731034792105, -88.15421640763137 31.45146206958421, -88.65883692939244 31.435279871635593 C-89.14277873529291 31.38859458764555, -89.62672054119338 31.341909303655505, -90.66875559306195 31.24138543543225 C-91.45940489484994 31.11355938789608, -92.25005419663795 30.985733340359904, -92.66212180409323 30.919113445218557 C-93.41712889244697 30.74678800418351, -94.17213598080069 30.574462563148465, -94.63074439314947 30.469788185729428 C-95.38844628396485 30.244906241793807, -96.14614817478024 30.02002429785819, -96.56653386774403 29.89525603083607 C-97.08587350253977 29.70413424450828, -97.60521313733551 29.513012458180487, -98.46153565370028 29.197877856399685 C-99.09589195976542 28.917067137215877, -99.73024826583058 28.63625641803207, -100.30796278220308 28.380519338926206 C-100.75615713845069 28.146696630354015, -101.2043514946983 27.912873921781824, -102.09822788812403 27.446539179886773 C-102.5335180919528 27.1826637002766, -102.96880829578156 26.918788220666425, -103.82497438813226 26.399775304092994 C-104.41468304108768 25.988420075867438, -105.00439169404311 25.577064847641882, -105.4811067104733 25.244529088840636 C-105.8243411911858 24.970808724325547, -106.16757567189829 24.697088359810458, -107.05981945219533 23.98554768862774 C-107.49782514118687 23.587762510881106, -107.93583083017839 23.18997733313447, -108.5546253440098 22.628004528078435 C-109.06076433851365 22.10537446146895, -109.5669033330175 21.582744394859468, -109.95938190787244 21.177478043231478 C-110.26042105791849 20.823860327974494, -110.56146020796453 20.470242612717506, -111.26831669774293 19.639928758550113 C-111.61293241727303 19.178175089517683, -111.95754813680314 18.716421420485254, -112.4760510198041 18.021674793848355 C-112.76146525615579 17.583201882358484, -113.04687949250746 17.144728970868613, -113.5776220346684 16.329365901781557 C-113.80555697955626 15.924644326217189, -114.0334919244441 15.519922750652821, -114.5685031507495 14.569956142586314 C-114.82553828064104 14.036217195695794, -115.08257341053258 13.502478248805273, -115.44462262499809 12.750675308355417 C-115.73145958062379 12.04218248234466, -116.0182965362495 11.333689656333902, -116.20238029456745 10.878999214271209 C-116.43494374142509 10.178555166289229, -116.66750718828273 9.478111118307249, -116.83866237065482 8.962618978877522 C-117.0263414132891 8.246917448701325, -117.2140204559234 7.531215918525129, -117.35085423372743 7.009409419623911 C-117.4480962760565 6.5100920843770655, -117.54533831838557 6.01077474913022, -117.73685117755518 5.027396693551461 C-117.83160354140206 4.292516070525684, -117.92635590524894 3.557635447499906, -117.99506705789975 3.024725316091999 C-118.03640217403833 2.3808975171283007, -118.07773729017691 1.7370697181646024, -118.12444081032167 1.0096246935071416 C-118.12444081032167 0.5233472453547603, -118.12444081032167 0.03706979720237891, -118.12444081032167 -1.0096246935071262 C-118.09318826676495 -1.4964082860021528, -118.06193572320824 -1.9831918784971796, -117.99506705789975 -3.024725316091956 C-117.92752873514536 -3.548539210424673, -117.85999041239097 -4.07235310475739, -117.73685117755518 -5.027396693551446 C-117.61976622352968 -5.628603186558568, -117.5026812695042 -6.2298096795656885, -117.35085423372745 -7.009409419623896 C-117.17118018211313 -7.6945844496558395, -116.99150613049882 -8.379759479687783, -116.83866237065482 -8.962618978877506 C-116.6734889690963 -9.460094947564107, -116.50831556753779 -9.957570916250708, -116.20238029456746 -10.878999214271168 C-115.93124769252842 -11.548701983299855, -115.66011509048937 -12.21840475232854, -115.44462262499809 -12.750675308355401 C-115.10662698551445 -13.452530485691328, -114.76863134603082 -14.154385663027256, -114.5685031507495 -14.5699561425863 C-114.17740530443953 -15.26438997166098, -113.78630745812957 -15.958823800735663, -113.5776220346684 -16.329365901781546 C-113.25093933104773 -16.8312382611317, -112.92425662742706 -17.333110620481847, -112.47605101980412 -18.021674793848344 C-112.0174483798475 -18.636160551830237, -111.55884573989086 -19.250646309812133, -111.26831669774295 -19.639928758550102 C-110.79431280862616 -20.196720698292037, -110.32030891950939 -20.753512638033968, -109.95938190787246 -21.177478043231467 C-109.53603913067474 -21.61461421777651, -109.11269635347702 -22.05175039232155, -108.55462534400984 -22.628004528078403 C-107.96341636921998 -23.164924876450254, -107.37220739443015 -23.701845224822105, -107.05981945219536 -23.98554768862771 C-106.54272872804913 -24.397913780772264, -106.0256380039029 -24.810279872916816, -105.48110671047331 -25.244529088840626 C-105.07905420819438 -25.524983509858103, -104.67700170591544 -25.805437930875577, -103.8249743881323 -26.39977530409297 C-103.29811695963619 -26.71915937340523, -102.77125953114007 -27.03854344271749, -102.09822788812404 -27.446539179886763 C-101.4186731668185 -27.801062442716297, -100.73911844551294 -28.15558570554583, -100.30796278220309 -28.3805193389262 C-99.8508661803577 -28.58286244527422, -99.39376957851232 -28.78520555162224, -98.4615356537003 -29.19787785639968 C-98.0395575993423 -29.353169681125795, -97.61757954498431 -29.508461505851912, -96.56653386774407 -29.895256030836055 C-96.08328846966411 -30.03868072837933, -95.60004307158415 -30.182105425922604, -94.63074439314951 -30.469788185729417 C-94.21608915430345 -30.564430538117723, -93.80143391545738 -30.659072890506025, -92.66212180409325 -30.919113445218553 C-91.92190241062643 -31.038786376267137, -91.18168301715961 -31.158459307315724, -90.66875559306196 -31.24138543543225 C-89.97384406780719 -31.308422714520194, -89.27893254255241 -31.37545999360814, -88.65883692939246 -31.435279871635593 C-88.2407343189334 -31.448687608565653, -87.82263170847433 -31.462095345495715, -86.64062500000001 -31.5 C-86.64062500000001 -31.5, -86.640625 -31.5, -86.640625 -31.5" stroke="none" stroke-width="0" fill="#ECECFF" style=""/><path d="M-86.640625 -31.5 C-37.698197708191 -31.5, 11.244229583617994 -31.5, 86.640625 -31.5 M-86.640625 -31.5 C-28.82696666964796 -31.5, 28.986691660704082 -31.5, 86.640625 -31.5 M86.640625 -31.5 C86.640625 -31.5, 86.640625 -31.5, 86.640625 -31.5 M86.640625 -31.5 C86.640625 -31.5, 86.640625 -31.5, 86.640625 -31.5 M86.640625 -31.5 C87.44159608301952 -31.4743144163632, 88.24256716603904 -31.448628832726396, 88.65883692939245 -31.435279871635593 M86.640625 -31.5 C87.38816679349698 -31.476027789684384, 88.13570858699394 -31.452055579368768, 88.65883692939245 -31.435279871635593 M88.65883692939245 -31.435279871635593 C89.2225405827474 -31.380900058149273, 89.78624423610235 -31.32652024466295, 90.66875559306193 -31.241385435432253 M88.65883692939245 -31.435279871635593 C89.44835149313775 -31.35911635120127, 90.23786605688305 -31.282952830766945, 90.66875559306193 -31.241385435432253 M90.66875559306193 -31.241385435432253 C91.17255603607117 -31.15993488683731, 91.6763564790804 -31.07848433824236, 92.66212180409322 -30.91911344521856 M90.66875559306193 -31.241385435432253 C91.39124875865787 -31.124578343436884, 92.1137419242538 -31.007771251441515, 92.66212180409322 -30.91911344521856 M92.66212180409322 -30.91911344521856 C93.39128938050821 -30.752685704164954, 94.12045695692322 -30.58625796311135, 94.63074439314947 -30.469788185729428 M92.66212180409322 -30.91911344521856 C93.20586249634519 -30.795008180451664, 93.74960318859715 -30.67090291568477, 94.63074439314947 -30.469788185729428 M94.63074439314947 -30.469788185729428 C95.33359218107222 -30.26118665159728, 96.03643996899497 -30.052585117465135, 96.56653386774406 -29.895256030836062 M94.63074439314947 -30.469788185729428 C95.17449405571949 -30.308406140078866, 95.71824371828953 -30.147024094428307, 96.56653386774406 -29.895256030836062 M96.56653386774406 -29.895256030836062 C97.21364742429063 -29.65711226017478, 97.8607609808372 -29.4189684895135, 98.46153565370028 -29.197877856399685 M96.56653386774406 -29.895256030836062 C97.13525262250421 -29.685962271905783, 97.70397137726438 -29.476668512975504, 98.46153565370028 -29.197877856399685 M98.46153565370028 -29.197877856399685 C99.10489498032284 -28.91308176708023, 99.74825430694538 -28.628285677760775, 100.30796278220308 -28.380519338926202 M98.46153565370028 -29.197877856399685 C98.94424496708217 -28.98419676242855, 99.42695428046406 -28.770515668457413, 100.30796278220308 -28.380519338926202 M100.30796278220308 -28.380519338926202 C100.72746262071367 -28.1616665418777, 101.14696245922426 -27.942813744829195, 102.09822788812403 -27.44653917988677 M100.30796278220308 -28.380519338926202 C100.70744756845824 -28.172108381819104, 101.1069323547134 -27.963697424712006, 102.09822788812403 -27.44653917988677 M102.09822788812403 -27.44653917988677 C102.5578385076314 -27.167920521369602, 103.01744912713876 -26.88930186285243, 103.82497438813228 -26.399775304092984 M102.09822788812403 -27.44653917988677 C102.56857385499235 -27.161412690711483, 103.03891982186069 -26.876286201536196, 103.82497438813228 -26.399775304092984 M103.82497438813228 -26.399775304092984 C104.40205153680284 -25.997231266447532, 104.97912868547341 -25.59468722880208, 105.4811067104733 -25.244529088840633 M103.82497438813228 -26.399775304092984 C104.36230356182156 -26.024957733132375, 104.89963273551083 -25.650140162171766, 105.4811067104733 -25.244529088840633 M105.4811067104733 -25.244529088840633 C106.00664925458945 -24.82542289518245, 106.5321917987056 -24.406316701524265, 107.05981945219533 -23.985547688627737 M105.4811067104733 -25.244529088840633 C106.0402739134534 -24.798608124528194, 106.59944111643351 -24.352687160215755, 107.05981945219533 -23.985547688627737 M107.05981945219533 -23.985547688627737 C107.52212949792548 -23.565689937149127, 107.98443954365564 -23.145832185670518, 108.55462534400982 -22.62800452807842 M107.05981945219533 -23.985547688627737 C107.61609810795568 -23.480350131792875, 108.17237676371604 -22.975152574958013, 108.55462534400982 -22.62800452807842 M108.55462534400982 -22.62800452807842 C108.91990747843911 -22.250820734059197, 109.28518961286841 -21.873636940039976, 109.95938190787243 -21.177478043231485 M108.55462534400982 -22.62800452807842 C109.07542912163574 -22.090231868894314, 109.59623289926165 -21.552459209710207, 109.95938190787243 -21.177478043231485 M109.95938190787243 -21.177478043231485 C110.27924794149591 -20.801745199244422, 110.5991139751194 -20.42601235525736, 111.26831669774293 -19.63992875855011 M109.95938190787243 -21.177478043231485 C110.29805780459033 -20.779650063742192, 110.63673370130822 -20.381822084252896, 111.26831669774293 -19.63992875855011 M111.26831669774293 -19.63992875855011 C111.5652522600103 -19.242062156498065, 111.86218782227766 -18.844195554446017, 112.4760510198041 -18.02167479384835 M111.26831669774293 -19.63992875855011 C111.72556253405092 -19.02726099385003, 112.18280837035891 -18.414593229149954, 112.4760510198041 -18.02167479384835 M112.4760510198041 -18.02167479384835 C112.84369378334766 -17.45687678314051, 113.2113365468912 -16.89207877243267, 113.5776220346684 -16.329365901781543 M112.4760510198041 -18.02167479384835 C112.77860340328344 -17.55687308613351, 113.08115578676278 -17.092071378418673, 113.5776220346684 -16.329365901781543 M113.5776220346684 -16.329365901781543 C113.89797454123341 -15.760547587166482, 114.21832704779844 -15.19172927255142, 114.5685031507495 -14.56995614258631 M113.5776220346684 -16.329365901781543 C113.78550181605266 -15.960254299823331, 113.99338159743692 -15.59114269786512, 114.5685031507495 -14.56995614258631 M114.5685031507495 -14.56995614258631 C114.84069147375898 -14.004751265959992, 115.11287979676845 -13.439546389333673, 115.44462262499809 -12.750675308355413 M114.5685031507495 -14.56995614258631 C114.76005428403691 -14.172196115777336, 114.95160541732432 -13.77443608896836, 115.44462262499809 -12.750675308355413 M115.44462262499809 -12.750675308355413 C115.71989966962498 -12.0707356860074, 115.99517671425187 -11.390796063659387, 116.20238029456745 -10.878999214271206 M115.44462262499809 -12.750675308355413 C115.6204685912615 -12.316332371934307, 115.79631455752492 -11.881989435513198, 116.20238029456745 -10.878999214271206 M116.20238029456745 -10.878999214271206 C116.38458135988503 -10.330238635332096, 116.5667824252026 -9.781478056392986, 116.83866237065482 -8.962618978877531 M116.20238029456745 -10.878999214271206 C116.36739978985602 -10.381986786748023, 116.53241928514461 -9.884974359224838, 116.83866237065482 -8.962618978877531 M116.83866237065482 -8.962618978877531 C116.99082090313892 -8.382372548590501, 117.14297943562303 -7.80212611830347, 117.35085423372745 -7.009409419623907 M116.83866237065482 -8.962618978877531 C116.97104642903673 -8.457781188653449, 117.10343048741865 -7.952943398429366, 117.35085423372745 -7.009409419623907 M117.35085423372745 -7.009409419623907 C117.48976745401608 -6.296119392761297, 117.6286806743047 -5.582829365898687, 117.73685117755518 -5.027396693551458 M117.35085423372745 -7.009409419623907 C117.42833639866943 -6.61155487850818, 117.50581856361141 -6.213700337392453, 117.73685117755518 -5.027396693551458 M117.73685117755518 -5.027396693551458 C117.82281268425282 -4.360696222624006, 117.90877419095047 -3.6939957516965554, 117.99506705789975 -3.024725316091981 M117.73685117755518 -5.027396693551458 C117.78904883180527 -4.622561994780402, 117.84124648605537 -4.217727296009348, 117.99506705789975 -3.024725316091981 M117.99506705789975 -3.024725316091981 C118.03984310708775 -2.3273022074124476, 118.08461915627575 -1.6298790987329144, 118.12444081032167 -1.0096246935071378 M117.99506705789975 -3.024725316091981 C118.04073153252588 -2.313464264089329, 118.08639600715203 -1.6022032120866765, 118.12444081032167 -1.0096246935071378 M118.12444081032167 -1.0096246935071378 C118.12444081032167 -0.25681736924701204, 118.12444081032167 0.4959899550131137, 118.12444081032167 1.00962469350713 M118.12444081032167 -1.0096246935071378 C118.12444081032167 -0.2390982037898558, 118.12444081032167 0.5314282859274262, 118.12444081032167 1.00962469350713 M118.12444081032167 1.00962469350713 C118.0837992962959 1.6426490796982178, 118.04315778227013 2.275673465889306, 117.99506705789975 3.02472531609196 M118.12444081032167 1.00962469350713 C118.0940645614274 1.4827592893022128, 118.06368831253313 1.9558938850972956, 117.99506705789975 3.02472531609196 M117.99506705789975 3.02472531609196 C117.9139271221019 3.654030635247507, 117.83278718630403 4.2833359544030545, 117.73685117755518 5.027396693551435 M117.99506705789975 3.02472531609196 C117.93916258238872 3.4583093885681397, 117.88325810687769 3.8918934610443197, 117.73685117755518 5.027396693551435 M117.73685117755518 5.027396693551435 C117.64555147719736 5.496201358690319, 117.55425177683955 5.965006023829203, 117.35085423372745 7.0094094196239 M117.73685117755518 5.027396693551435 C117.58679645429628 5.797895983408957, 117.43674173103736 6.5683952732664785, 117.35085423372745 7.0094094196239 M117.35085423372745 7.0094094196239 C117.22910514879835 7.473691446845715, 117.10735606386926 7.93797347406753, 116.83866237065482 8.96261897887751 M117.35085423372745 7.0094094196239 C117.17216439385196 7.690831223735639, 116.99347455397647 8.372253027847378, 116.83866237065482 8.96261897887751 M116.83866237065482 8.96261897887751 C116.60241905150868 9.674146215884415, 116.36617573236255 10.385673452891318, 116.20238029456746 10.878999214271184 M116.83866237065482 8.96261897887751 C116.7040550458943 9.368034794291546, 116.56944772113377 9.77345060970558, 116.20238029456746 10.878999214271184 M116.20238029456746 10.878999214271184 C116.0312672438258 11.301651757848866, 115.86015419308414 11.724304301426546, 115.44462262499809 12.750675308355405 M116.20238029456746 10.878999214271184 C116.0467685731274 11.263363174776114, 115.89115685168733 11.647727135281043, 115.44462262499809 12.750675308355405 M115.44462262499809 12.750675308355405 C115.09893562203405 13.468501766527211, 114.75324861907 14.186328224699016, 114.5685031507495 14.569956142586303 M115.44462262499809 12.750675308355405 C115.19414987904949 13.270787324575892, 114.9436771331009 13.790899340796381, 114.5685031507495 14.569956142586303 M114.5685031507495 14.569956142586303 C114.2197802701657 15.18914892908361, 113.8710573895819 15.808341715580918, 113.57762203466841 16.329365901781536 M114.5685031507495 14.569956142586303 C114.31438636824039 15.021166222045766, 114.06026958573128 15.472376301505228, 113.57762203466841 16.329365901781536 M113.57762203466841 16.329365901781536 C113.2685866952648 16.80412717071347, 112.95955135586118 17.278888439645407, 112.47605101980412 18.021674793848334 M113.57762203466841 16.329365901781536 C113.29903358936143 16.75735256524521, 113.02044514405445 17.185339228708884, 112.47605101980412 18.021674793848334 M112.47605101980412 18.021674793848334 C112.17948139369788 18.41905107478194, 111.88291176759165 18.816427355715547, 111.26831669774295 19.639928758550102 M112.47605101980412 18.021674793848334 C112.17729312716229 18.421983152584456, 111.87853523452046 18.82229151132058, 111.26831669774295 19.639928758550102 M111.26831669774295 19.639928758550102 C110.93502647960861 20.03143041352135, 110.60173626147429 20.4229320684926, 109.95938190787246 21.177478043231467 M111.26831669774295 19.639928758550102 C110.89175908271129 20.082254759901566, 110.51520146767965 20.524580761253034, 109.95938190787246 21.177478043231467 M109.95938190787246 21.177478043231467 C109.54331471434607 21.607101580299332, 109.12724752081968 22.036725117367194, 108.55462534400982 22.628004528078414 M109.95938190787246 21.177478043231467 C109.45209214924883 21.701296368274107, 108.94480239062521 22.225114693316748, 108.55462534400982 22.628004528078414 M108.55462534400982 22.628004528078414 C108.0980888072003 23.042618931513978, 107.64155227039079 23.457233334949546, 107.05981945219536 23.985547688627715 M108.55462534400982 22.628004528078414 C108.16837952350363 22.978782762757742, 107.78213370299743 23.32956099743707, 107.05981945219536 23.985547688627715 M107.05981945219536 23.985547688627715 C106.61742275485942 24.33834728208259, 106.17502605752348 24.691146875537466, 105.48110671047331 25.24452908884063 M107.05981945219536 23.985547688627715 C106.49956167152527 24.43233835962642, 105.93930389085519 24.87912903062513, 105.48110671047331 25.24452908884063 M105.48110671047331 25.24452908884063 C105.03390534666882 25.556477401195618, 104.58670398286432 25.868425713550607, 103.82497438813229 26.399775304092973 M105.48110671047331 25.24452908884063 C105.11364745015105 25.500852761786437, 104.74618818982879 25.757176434732244, 103.82497438813229 26.399775304092973 M103.82497438813229 26.399775304092973 C103.42522347471176 26.642106657005627, 103.02547256129122 26.884438009918277, 102.09822788812404 27.446539179886766 M103.82497438813229 26.399775304092973 C103.26745093503335 26.737749297733036, 102.70992748193441 27.075723291373095, 102.09822788812404 27.446539179886766 M102.09822788812404 27.446539179886766 C101.63041576694908 27.690596463855776, 101.16260364577414 27.934653747824782, 100.30796278220309 28.3805193389262 M102.09822788812404 27.446539179886766 C101.49947291259859 27.75890926709753, 100.90071793707314 28.07127935430829, 100.30796278220309 28.3805193389262 M100.30796278220309 28.3805193389262 C99.7332398384151 28.634932137590745, 99.15851689462713 28.889344936255295, 98.4615356537003 29.197877856399682 M100.30796278220309 28.3805193389262 C99.68268800912294 28.657309932851653, 99.05741323604279 28.934100526777105, 98.4615356537003 29.197877856399682 M98.4615356537003 29.197877856399682 C97.83309285576189 29.429150615302557, 97.20465005782347 29.660423374205436, 96.56653386774407 29.895256030836055 M98.4615356537003 29.197877856399682 C97.75911674454815 29.45637450805689, 97.05669783539601 29.714871159714093, 96.56653386774407 29.895256030836055 M96.56653386774407 29.895256030836055 C95.98572699752796 30.067636461198724, 95.40492012731184 30.240016891561392, 94.63074439314951 30.46978818572942 M96.56653386774407 29.895256030836055 C95.90962357662772 30.090223557046908, 95.25271328551136 30.285191083257757, 94.63074439314951 30.46978818572942 M94.63074439314951 30.46978818572942 C93.96147285463918 30.62254504698946, 93.29220131612884 30.7753019082495, 92.66212180409323 30.919113445218557 M94.63074439314951 30.46978818572942 C93.97309222484876 30.6198930015626, 93.31544005654801 30.769997817395776, 92.66212180409323 30.919113445218557 M92.66212180409323 30.919113445218557 C92.03251335955105 31.02090365584573, 91.40290491500886 31.122693866472897, 90.66875559306196 31.24138543543225 M92.66212180409323 30.919113445218557 C91.88732010900027 31.044377374604302, 91.11251841390731 31.169641303990048, 90.66875559306196 31.24138543543225 M90.66875559306196 31.24138543543225 C90.18468762404743 31.288082890226175, 89.7006196550329 31.334780345020096, 88.65883692939245 31.435279871635593 M90.66875559306196 31.24138543543225 C90.07617187337614 31.29855127418415, 89.48358815369032 31.355717112936045, 88.65883692939245 31.435279871635593 M88.65883692939245 31.435279871635593 C88.18989403596034 31.450317957485993, 87.72095114252822 31.465356043336392, 86.640625 31.5 M88.65883692939245 31.435279871635593 C88.00912896265235 31.456114741549108, 87.35942099591226 31.476949611462626, 86.640625 31.5 M86.640625 31.5 C86.640625 31.5, 86.640625 31.5, 86.640625 31.5 M86.640625 31.5 C86.640625 31.5, 86.640625 31.5, 86.640625 31.5 M86.640625 31.5 C26.731115000589966 31.5, -33.17839499882007 31.5, -86.640625 31.5 M86.640625 31.5 C29.60636561291684 31.5, -27.42789377416632 31.5, -86.640625 31.5 M-86.640625 31.5 C-87.10391762877167 31.485143107139688, -87.56721025754335 31.470286214279376, -88.65883692939244 31.435279871635593 M-86.640625 31.5 C-87.24731470113653 31.480544642134415, -87.85400440227305 31.461089284268834, -88.65883692939244 31.435279871635593 M-88.65883692939244 31.435279871635593 C-89.24102109099631 31.37911726574456, -89.82320525260018 31.32295465985353, -90.66875559306195 31.24138543543225 M-88.65883692939244 31.435279871635593 C-89.08475403203279 31.394192160984137, -89.51067113467316 31.35310445033268, -90.66875559306195 31.24138543543225 M-90.66875559306195 31.24138543543225 C-91.41057418815619 31.12145395786654, -92.15239278325043 31.001522480300824, -92.66212180409323 30.919113445218557 M-90.66875559306195 31.24138543543225 C-91.44267793385283 31.11626367323057, -92.21660027464374 30.991141911028887, -92.66212180409323 30.919113445218557 M-92.66212180409323 30.919113445218557 C-93.34374039816905 30.763538449097766, -94.02535899224485 30.60796345297697, -94.63074439314947 30.469788185729428 M-92.66212180409323 30.919113445218557 C-93.41493186575002 30.747289461190146, -94.16774192740682 30.57546547716174, -94.63074439314947 30.469788185729428 M-94.63074439314947 30.469788185729428 C-95.31680924786238 30.266167738078547, -96.00287410257528 30.06254729042767, -96.56653386774403 29.89525603083607 M-94.63074439314947 30.469788185729428 C-95.30676020724852 30.269150240584253, -95.98277602134756 30.068512295439074, -96.56653386774403 29.89525603083607 M-96.56653386774403 29.89525603083607 C-97.02705732531209 29.725779141418847, -97.48758078288014 29.556302252001625, -98.46153565370028 29.197877856399685 M-96.56653386774403 29.89525603083607 C-97.31282691647522 29.62061329024567, -98.0591199652064 29.345970549655277, -98.46153565370028 29.197877856399685 M-98.46153565370028 29.197877856399685 C-99.1979394390765 28.871893745255786, -99.93434322445273 28.545909634111883, -100.30796278220308 28.380519338926206 M-98.46153565370028 29.197877856399685 C-98.84767415068595 29.02694579817567, -99.2338126476716 28.85601373995166, -100.30796278220308 28.380519338926206 M-100.30796278220308 28.380519338926206 C-100.70050426380901 28.17573069940721, -101.09304574541494 27.970942059888216, -102.09822788812403 27.446539179886773 M-100.30796278220308 28.380519338926206 C-100.93438474850655 28.053715400348107, -101.56080671481 27.72691146177001, -102.09822788812403 27.446539179886773 M-102.09822788812403 27.446539179886773 C-102.4564802414672 27.229364497965626, -102.81473259481038 27.012189816044476, -103.82497438813226 26.399775304092994 M-102.09822788812403 27.446539179886773 C-102.65093010142404 27.111487850145576, -103.20363231472405 26.776436520404374, -103.82497438813226 26.399775304092994 M-103.82497438813226 26.399775304092994 C-104.44792522429577 25.965231767892387, -105.0708760604593 25.530688231691784, -105.4811067104733 25.244529088840636 M-103.82497438813226 26.399775304092994 C-104.21434398946799 26.12816792573957, -104.60371359080371 25.85656054738615, -105.4811067104733 25.244529088840636 M-105.4811067104733 25.244529088840636 C-105.94884155220453 24.871522999506855, -106.41657639393577 24.49851691017307, -107.05981945219533 23.98554768862774 M-105.4811067104733 25.244529088840636 C-105.91824000866062 24.89592691614185, -106.35537330684794 24.547324743443063, -107.05981945219533 23.98554768862774 M-107.05981945219533 23.98554768862774 C-107.47026129538675 23.612795266337365, -107.88070313857818 23.24004284404699, -108.5546253440098 22.628004528078435 M-107.05981945219533 23.98554768862774 C-107.5702772323119 23.521963438698627, -108.08073501242848 23.058379188769518, -108.5546253440098 22.628004528078435 M-108.5546253440098 22.628004528078435 C-108.91826827787591 22.25251334322157, -109.28191121174203 21.877022158364703, -109.95938190787244 21.177478043231478 M-108.5546253440098 22.628004528078435 C-108.99343256586593 22.174900044769068, -109.43223978772205 21.721795561459704, -109.95938190787244 21.177478043231478 M-109.95938190787244 21.177478043231478 C-110.43926486723144 20.613780213054458, -110.91914782659045 20.050082382877438, -111.26831669774293 19.639928758550113 M-109.95938190787244 21.177478043231478 C-110.33407233818033 20.737345343302355, -110.70876276848823 20.297212643373232, -111.26831669774293 19.639928758550113 M-111.26831669774293 19.639928758550113 C-111.52727847668179 19.29294356667545, -111.78624025562063 18.945958374800785, -112.4760510198041 18.021674793848355 M-111.26831669774293 19.639928758550113 C-111.59795361911067 19.198245314458678, -111.92759054047839 18.75656187036724, -112.4760510198041 18.021674793848355 M-112.4760510198041 18.021674793848355 C-112.90937369372799 17.3559748032709, -113.34269636765188 16.69027481269345, -113.5776220346684 16.329365901781557 M-112.4760510198041 18.021674793848355 C-112.80408757782304 17.51772255058166, -113.13212413584198 17.013770307314964, -113.5776220346684 16.329365901781557 M-113.5776220346684 16.329365901781557 C-113.81572989239712 15.906581289349116, -114.05383775012582 15.483796676916674, -114.5685031507495 14.569956142586314 M-113.5776220346684 16.329365901781557 C-113.85557837064465 15.835826281124639, -114.1335347066209 15.34228666046772, -114.5685031507495 14.569956142586314 M-114.5685031507495 14.569956142586314 C-114.84372476006956 13.998452582034151, -115.1189463693896 13.42694902148199, -115.44462262499809 12.750675308355417 M-114.5685031507495 14.569956142586314 C-114.90189570578166 13.877659368604144, -115.23528826081379 13.185362594621976, -115.44462262499809 12.750675308355417 M-115.44462262499809 12.750675308355417 C-115.61071672269637 12.34041967582975, -115.77681082039464 11.930164043304083, -116.20238029456745 10.878999214271209 M-115.44462262499809 12.750675308355417 C-115.6602643505174 12.218036077173581, -115.87590607603671 11.685396845991743, -116.20238029456745 10.878999214271209 M-116.20238029456745 10.878999214271209 C-116.3579188416953 10.410541892024217, -116.51345738882313 9.942084569777226, -116.83866237065482 8.962618978877522 M-116.20238029456745 10.878999214271209 C-116.3727109743171 10.365990345373575, -116.54304165406677 9.85298147647594, -116.83866237065482 8.962618978877522 M-116.83866237065482 8.962618978877522 C-116.99939358829815 8.349681184653091, -117.16012480594148 7.73674339042866, -117.35085423372743 7.009409419623911 M-116.83866237065482 8.962618978877522 C-117.03818032008927 8.201770566057675, -117.2376982695237 7.440922153237829, -117.35085423372743 7.009409419623911 M-117.35085423372743 7.009409419623911 C-117.45405503938481 6.479495094071315, -117.55725584504218 5.949580768518718, -117.73685117755518 5.027396693551461 M-117.35085423372743 7.009409419623911 C-117.47188976900296 6.387917526853586, -117.59292530427847 5.766425634083262, -117.73685117755518 5.027396693551461 M-117.73685117755518 5.027396693551461 C-117.81392342989248 4.429639524060976, -117.8909956822298 3.831882354570491, -117.99506705789975 3.024725316091999 M-117.73685117755518 5.027396693551461 C-117.8255932370001 4.339130804598326, -117.91433529644505 3.6508649156451907, -117.99506705789975 3.024725316091999 M-117.99506705789975 3.024725316091999 C-118.04368969262354 2.2673885327844285, -118.09231232734736 1.510051749476858, -118.12444081032167 1.0096246935071416 M-117.99506705789975 3.024725316091999 C-118.03196325451597 2.4500372717203804, -118.0688594511322 1.8753492273487615, -118.12444081032167 1.0096246935071416 M-118.12444081032167 1.0096246935071416 C-118.12444081032167 0.5905489418113544, -118.12444081032167 0.17147319011556728, -118.12444081032167 -1.0096246935071262 M-118.12444081032167 1.0096246935071416 C-118.12444081032167 0.2576766900662114, -118.12444081032167 -0.49427131337471875, -118.12444081032167 -1.0096246935071262 M-118.12444081032167 -1.0096246935071262 C-118.08422082482441 -1.6360834326148535, -118.04400083932715 -2.2625421717225804, -117.99506705789975 -3.024725316091956 M-118.12444081032167 -1.0096246935071262 C-118.09374973767048 -1.4876629234375005, -118.06305866501927 -1.9657011533678748, -117.99506705789975 -3.024725316091956 M-117.99506705789975 -3.024725316091956 C-117.92747971344225 -3.5489194130735173, -117.85989236898476 -4.073113510055079, -117.73685117755518 -5.027396693551446 M-117.99506705789975 -3.024725316091956 C-117.94185077845253 -3.4374602707415955, -117.8886344990053 -3.8501952253912353, -117.73685117755518 -5.027396693551446 M-117.73685117755518 -5.027396693551446 C-117.63190960954311 -5.566249465885137, -117.52696804153105 -6.105102238218827, -117.35085423372745 -7.009409419623896 M-117.73685117755518 -5.027396693551446 C-117.58486845763763 -5.807795838768839, -117.43288573772008 -6.588194983986233, -117.35085423372745 -7.009409419623896 M-117.35085423372745 -7.009409419623896 C-117.21089487301133 -7.543135120805098, -117.07093551229521 -8.0768608219863, -116.83866237065482 -8.962618978877506 M-117.35085423372745 -7.009409419623896 C-117.21485332120952 -7.528039842223121, -117.07885240869157 -8.046670264822346, -116.83866237065482 -8.962618978877506 M-116.83866237065482 -8.962618978877506 C-116.70984614582726 -9.350592923979915, -116.5810299209997 -9.738566869082325, -116.20238029456746 -10.878999214271168 M-116.83866237065482 -8.962618978877506 C-116.65154795428539 -9.526177788348594, -116.46443353791597 -10.08973659781968, -116.20238029456746 -10.878999214271168 M-116.20238029456746 -10.878999214271168 C-116.0401248011191 -11.279773420085165, -115.87786930767075 -11.680547625899164, -115.44462262499809 -12.750675308355401 M-116.20238029456746 -10.878999214271168 C-115.90190080386152 -11.621189365690581, -115.60142131315558 -12.363379517109996, -115.44462262499809 -12.750675308355401 M-115.44462262499809 -12.750675308355401 C-115.16237811284817 -13.336762076899813, -114.88013360069827 -13.922848845444227, -114.5685031507495 -14.5699561425863 M-115.44462262499809 -12.750675308355401 C-115.21419696477861 -13.229159122120452, -114.98377130455914 -13.707642935885502, -114.5685031507495 -14.5699561425863 M-114.5685031507495 -14.5699561425863 C-114.1768150218721 -15.26543807813205, -113.7851268929947 -15.9609200136778, -113.5776220346684 -16.329365901781546 M-114.5685031507495 -14.5699561425863 C-114.26481662471663 -15.109182321153009, -113.96113009868377 -15.648408499719716, -113.5776220346684 -16.329365901781546 M-113.5776220346684 -16.329365901781546 C-113.22608472354608 -16.869421612650854, -112.87454741242375 -17.40947732352016, -112.47605101980412 -18.021674793848344 M-113.5776220346684 -16.329365901781546 C-113.18499648769249 -16.932544176658173, -112.79237094071657 -17.535722451534795, -112.47605101980412 -18.021674793848344 M-112.47605101980412 -18.021674793848344 C-112.21665513648273 -18.369241646047897, -111.95725925316133 -18.71680849824745, -111.26831669774295 -19.639928758550102 M-112.47605101980412 -18.021674793848344 C-111.99933861769111 -18.66042598328652, -111.52262621557809 -19.299177172724697, -111.26831669774295 -19.639928758550102 M-111.26831669774295 -19.639928758550102 C-110.95994434380182 -20.002160472373372, -110.6515719898607 -20.36439218619664, -109.95938190787246 -21.177478043231467 M-111.26831669774295 -19.639928758550102 C-110.89533474146988 -20.078054587662983, -110.52235278519682 -20.516180416775864, -109.95938190787246 -21.177478043231467 M-109.95938190787246 -21.177478043231467 C-109.50820245398462 -21.64335787189272, -109.05702300009678 -22.109237700553972, -108.55462534400984 -22.628004528078403 M-109.95938190787246 -21.177478043231467 C-109.54718624648787 -21.60310390550422, -109.1349905851033 -22.028729767776973, -108.55462534400984 -22.628004528078403 M-108.55462534400984 -22.628004528078403 C-108.08840707123866 -23.05141162794964, -107.6221887984675 -23.474818727820878, -107.05981945219536 -23.98554768862771 M-108.55462534400984 -22.628004528078403 C-108.08944063684547 -23.0504729710122, -107.62425592968108 -23.472941413946, -107.05981945219536 -23.98554768862771 M-107.05981945219536 -23.98554768862771 C-106.62934481688926 -24.328839754873187, -106.19887018158315 -24.672131821118665, -105.48110671047331 -25.244529088840626 M-107.05981945219536 -23.98554768862771 C-106.70406006138059 -24.269256335647505, -106.34830067056582 -24.5529649826673, -105.48110671047331 -25.244529088840626 M-105.48110671047331 -25.244529088840626 C-104.83297341381801 -25.696638819349154, -104.18484011716272 -26.148748549857682, -103.8249743881323 -26.39977530409297 M-105.48110671047331 -25.244529088840626 C-105.06463580587763 -25.53504116315169, -104.64816490128194 -25.825553237462756, -103.8249743881323 -26.39977530409297 M-103.8249743881323 -26.39977530409297 C-103.46137987262901 -26.620188436109608, -103.09778535712572 -26.84060156812625, -102.09822788812404 -27.446539179886763 M-103.8249743881323 -26.39977530409297 C-103.47801015329233 -26.610107062241127, -103.13104591845237 -26.82043882038928, -102.09822788812404 -27.446539179886763 M-102.09822788812404 -27.446539179886763 C-101.49228702380552 -27.762658140678088, -100.886346159487 -28.078777101469413, -100.30796278220309 -28.3805193389262 M-102.09822788812404 -27.446539179886763 C-101.57123049955206 -27.72147337994683, -101.04423311098009 -27.996407580006892, -100.30796278220309 -28.3805193389262 M-100.30796278220309 -28.3805193389262 C-99.65647242966023 -28.66891479222226, -99.00498207711736 -28.957310245518322, -98.4615356537003 -29.19787785639968 M-100.30796278220309 -28.3805193389262 C-99.93205821549927 -28.546921139793202, -99.55615364879543 -28.713322940660202, -98.4615356537003 -29.19787785639968 M-98.4615356537003 -29.19787785639968 C-97.9007059447544 -29.404268373544763, -97.33987623580852 -29.610658890689848, -96.56653386774407 -29.895256030836055 M-98.4615356537003 -29.19787785639968 C-97.75043806295079 -29.459568343109567, -97.03934047220129 -29.721258829819458, -96.56653386774407 -29.895256030836055 M-96.56653386774407 -29.895256030836055 C-96.1585588308199 -30.016340880290482, -95.75058379389573 -30.137425729744905, -94.63074439314951 -30.469788185729417 M-96.56653386774407 -29.895256030836055 C-95.91719566541236 -30.08797620084233, -95.26785746308065 -30.280696370848602, -94.63074439314951 -30.469788185729417 M-94.63074439314951 -30.469788185729417 C-94.22010392653299 -30.563514192555168, -93.80946345991644 -30.65724019938092, -92.66212180409325 -30.919113445218553 M-94.63074439314951 -30.469788185729417 C-94.20716857089855 -30.566466603067642, -93.78359274864759 -30.663145020405867, -92.66212180409325 -30.919113445218553 M-92.66212180409325 -30.919113445218553 C-92.06618553959765 -31.015459798907447, -91.47024927510205 -31.111806152596344, -90.66875559306196 -31.24138543543225 M-92.66212180409325 -30.919113445218553 C-92.00498019549728 -31.02535500428706, -91.34783858690132 -31.131596563355572, -90.66875559306196 -31.24138543543225 M-90.66875559306196 -31.24138543543225 C-90.12305316949055 -31.294028691931, -89.57735074591913 -31.346671948429748, -88.65883692939246 -31.435279871635593 M-90.66875559306196 -31.24138543543225 C-89.90537144630844 -31.3150281859658, -89.14198729955491 -31.388670936499356, -88.65883692939246 -31.435279871635593 M-88.65883692939246 -31.435279871635593 C-88.19797353267016 -31.450058863752297, -87.73711013594786 -31.464837855868996, -86.64062500000001 -31.5 M-88.65883692939246 -31.435279871635593 C-88.18089042248614 -31.45060668584564, -87.70294391557982 -31.465933500055687, -86.64062500000001 -31.5 M-86.64062500000001 -31.5 C-86.64062500000001 -31.5, -86.64062500000001 -31.5, -86.640625 -31.5 M-86.64062500000001 -31.5 C-86.64062500000001 -31.5, -86.640625 -31.5, -86.640625 -31.5" stroke="#9370DB" stroke-width="1.3" fill="none" stroke-dasharray="0 0" style=""/></g><g class="label" style="" transform="translate(-102.765625, -24)"><rect/><foreignObject width="205.53125" height="48"><div xmlns="http://www.w3.org/1999/xhtml" style="display: table; white-space: break-spaces; line-height: 1.5; max-width: 200px; text-align: center; width: 200px;"><span class="nodeLabel"><p>Inicio: diametro_a_area_superficial</p></span></div></foreignObject></g></g><g class="node default" id="my-svg-flowchart-node_1-1" data-look="classic" transform="translate(126.12444305419922, 148)"><rect class="basic label-container" style="" x="-94.8359375" y="-27" width="189.671875" height="54"/><g class="label" style="" transform="translate(-64.8359375, -12)"><rect/><foreignObject width="129.671875" height="24"><div xmlns="http://www.w3.org/1999/xhtml" style="display: table-cell; white-space: nowrap; line-height: 1.5; max-width: 200px; text-align: center;"><span class="nodeLabel"><p>Asignar: radio_nm</p></span></div></foreignObject></g></g><g class="node default" id="my-svg-flowchart-node_2-4" data-look="classic" transform="translate(126.12444305419922, 244.5)"><g class="basic label-container outer-path"><path d="M-40.6796875 -19.5 C-11.120501419499561 -19.5, 18.438684661000877 -19.5, 40.6796875 -19.5 C40.6796875 -19.5, 40.6796875 -19.5, 40.6796875 -19.5 C41.123864579187575 -19.48575610560869, 41.568041658375144 -19.471512211217384, 41.9290567896239 -19.45993515863156 C42.42476411159952 -19.41211486945585, 42.920471433575145 -19.364294580280138, 43.173292152847864 -19.3399052695533 C43.60446868795476 -19.270195991181186, 44.03564522306164 -19.200486712809077, 44.40728075967676 -19.140403561325776 C44.77002398674631 -19.057609786867925, 45.13276721381587 -18.974816012410077, 45.62595188623539 -18.862249829261074 C46.086648926265255 -18.725517366028324, 46.54734596629511 -18.58878490279557, 46.824297751460605 -18.50658706670804 C47.10214860141475 -18.404335385499813, 47.37999945136888 -18.30208370429159, 47.9973940951478 -18.074876768247425 C48.424593659057734 -17.885768193729305, 48.85179322296767 -17.69665961921119, 49.14042041279238 -17.568892924097174 C49.37848436487464 -17.444695112783098, 49.616548316956894 -17.320497301469025, 50.24867976407678 -16.990714730406097 C50.64980610932952 -16.74754958263383, 51.05093245458225 -16.504384434861564, 51.3176180736057 -16.342718045390892 C51.54051110828999 -16.18723751327909, 51.76340414297428 -16.03175698116729, 52.34284284457871 -15.627565626425154 C52.67712902183786 -15.360981295789761, 53.011415199096994 -15.094396965154369, 53.320141208501866 -14.848196188198123 C53.513627351105896 -14.672477192847946, 53.707113493709926 -14.49675819749777, 54.24549723676799 -14.007812326905688 C54.443151240047136 -13.803718340824501, 54.64080524332629 -13.599624354743314, 55.11510844296865 -13.10986736009568 C55.35047175227548 -12.833396224432182, 55.585835061582316 -12.556925088768681, 55.92540140812658 -12.158051136245305 C56.206085608070104 -11.781959879177641, 56.48676980801363 -11.40586862210998, 56.673046464640635 -11.156274872382312 C56.93441041104044 -10.754749664665635, 57.19577435744024 -10.353224456948958, 57.35497137860425 -10.108655082055241 C57.59755945192156 -9.677915393174224, 57.840147525238876 -9.247175704293205, 57.968373974273504 -9.019496659696287 C58.08861054132668 -8.76982285555996, 58.20884710837986 -8.520149051423635, 58.51073364880834 -7.893275190886684 C58.61461002773171 -7.636698526632805, 58.718486406655074 -7.3801218623789255, 58.979821729970325 -6.734618561215508 C59.08935934406051 -6.404708720024593, 59.19889695815069 -6.074798878833678, 59.37371063421488 -5.548287939305138 C59.46848030135596 -5.186890125062654, 59.56324996849703 -4.825492310820169, 59.69078178754556 -4.339158212148133 C59.74010879495121 -4.085874454386822, 59.78943580235686 -3.8325906966255108, 59.929732276581774 -3.1121979531509023 C59.96244090501682 -2.858516290057948, 59.995149533451865 -2.604834626964994, 60.08958020250937 -1.872449005199798 C60.120784750643416 -1.3864129801540672, 60.151989298777465 -0.9003769551083365, 60.16966871591342 -0.6250057626472757 C60.16966871591342 -0.20487145329476253, 60.16966871591342 0.21526285605775064, 60.16966871591342 0.625005762647271 C60.14573861247173 0.9977364397833808, 60.12180850903004 1.3704671169194906, 60.08958020250937 1.8724490051997846 C60.04531278998918 2.2157783151169594, 60.001045377469005 2.5591076250341347, 59.929732276581774 3.1121979531508885 C59.859756181744736 3.471510410686224, 59.78978008690769 3.8308228682215595, 59.69078178754556 4.339158212148129 C59.61955231620548 4.6107870574160374, 59.54832284486539 4.882415902683946, 59.37371063421489 5.548287939305125 C59.29363916453065 5.78945044833786, 59.213567694846425 6.030612957370595, 58.979821729970325 6.734618561215495 C58.816956815968 7.136898047580155, 58.654091901965664 7.539177533944816, 58.51073364880834 7.893275190886679 C58.40210809750016 8.118838472392579, 58.29348254619198 8.344401753898477, 57.968373974273504 9.019496659696284 C57.72591392145371 9.45000903522047, 57.483453868633916 9.880521410744656, 57.35497137860425 10.108655082055236 C57.194094370472015 10.355805368071813, 57.033217362339784 10.60295565408839, 56.67304646464064 11.156274872382301 C56.44351272506109 11.463829172465044, 56.21397898548154 11.771383472547786, 55.92540140812658 12.158051136245302 C55.67365870203663 12.453762443384335, 55.42191599594668 12.749473750523368, 55.11510844296866 13.10986736009567 C54.776355752589495 13.459657325025272, 54.43760306221033 13.809447289954875, 54.24549723676799 14.007812326905684 C53.990935293908805 14.238998748070475, 53.736373351049615 14.470185169235265, 53.32014120850189 14.848196188198111 C53.02312164032985 15.085061389792653, 52.726102072157815 15.321926591387196, 52.34284284457871 15.627565626425152 C51.93962630818083 15.90883202725378, 51.53640977178295 16.190098428082408, 51.31761807360571 16.34271804539089 C50.92117562207103 16.583043789265652, 50.52473317053636 16.823369533140415, 50.24867976407678 16.990714730406093 C49.906993426667285 17.168972273772088, 49.56530708925778 17.34722981713808, 49.14042041279239 17.56889292409717 C48.88944625744814 17.679991737784267, 48.63847210210389 17.791090551471367, 47.997394095147804 18.07487676824742 C47.66674688805683 18.196557996926177, 47.33609968096585 18.318239225604934, 46.82429775146062 18.506587066708033 C46.40461750361003 18.631145961323515, 45.98493725575944 18.755704855938998, 45.62595188623541 18.86224982926107 C45.17734196785797 18.964642115677417, 44.72873204948053 19.067034402093768, 44.407280759676766 19.140403561325773 C44.07700009515123 19.193800777801457, 43.74671943062569 19.247197994277137, 43.17329215284788 19.3399052695533 C42.718822906297426 19.383747371188786, 42.26435365974698 19.42758947282427, 41.9290567896239 19.45993515863156 C41.57886663479244 19.471165075293218, 41.228676479960974 19.482394991954877, 40.67968750000001 19.5 C40.67968750000001 19.5, 40.67968750000001 19.5, 40.6796875 19.5 C16.604533034999243 19.5, -7.470621430001515 19.5, -40.67968749999999 19.5 C-41.12195077909792 19.48581747745258, -41.56421405819585 19.47163495490516, -41.92905678962389 19.45993515863156 C-42.41031285912001 19.41350896440237, -42.89156892861613 19.367082770173187, -43.17329215284787 19.3399052695533 C-43.46517466808731 19.2927159680721, -43.757057183326744 19.245526666590898, -44.40728075967676 19.140403561325773 C-44.81887285517116 19.04646035141861, -45.23046495066556 18.952517141511446, -45.625951886235384 18.862249829261074 C-46.011767841157905 18.747741679029346, -46.397583796080426 18.633233528797614, -46.82429775146059 18.506587066708043 C-47.16687348287071 18.380516030813773, -47.509449214280835 18.2544449949195, -47.9973940951478 18.074876768247425 C-48.24588791632495 17.9648759249196, -48.4943817375021 17.854875081591775, -49.14042041279238 17.568892924097174 C-49.57685928679634 17.34120304308175, -50.013298160800296 17.113513162066326, -50.24867976407678 16.990714730406097 C-50.52998884570499 16.820183511967414, -50.81129792733321 16.64965229352873, -51.317618073605686 16.3427180453909 C-51.63168728067728 16.123636962374604, -51.94575648774888 15.904555879358307, -52.34284284457871 15.627565626425156 C-52.60525235971712 15.418301021112741, -52.86766187485553 15.209036415800325, -53.320141208501866 14.848196188198125 C-53.60180560785612 14.592396033136215, -53.883470007210384 14.336595878074304, -54.245497236767974 14.007812326905697 C-54.580414513072725 13.661982741901282, -54.915331789377476 13.316153156896867, -55.115108442968655 13.109867360095677 C-55.29984984967102 12.892859591699244, -55.484591256373385 12.67585182330281, -55.925401408126575 12.158051136245307 C-56.09074947209148 11.936499794050842, -56.256097536056394 11.71494845185638, -56.673046464640635 11.156274872382316 C-56.925260673808204 10.768806118102821, -57.177474882975766 10.381337363823327, -57.35497137860425 10.108655082055249 C-57.59752848215994 9.677970383122016, -57.840085585715634 9.247285684188785, -57.968373974273504 9.019496659696289 C-58.11223564871575 8.720764814570234, -58.256097323158 8.422032969444178, -58.51073364880834 7.893275190886686 C-58.634617756130744 7.587279050664073, -58.75850186345315 7.28128291044146, -58.979821729970325 6.73461856121551 C-59.0886882042821 6.406730086105563, -59.19755467859387 6.078841610995616, -59.37371063421488 5.5482879393051325 C-59.4961072919849 5.081536436181023, -59.61850394975492 4.614784933056912, -59.69078178754556 4.339158212148136 C-59.78514227568213 3.854637048663087, -59.87950276381869 3.3701158851780386, -59.929732276581774 3.112197953150904 C-59.96883051464666 2.8089597395400427, -60.00792875271155 2.505721525929181, -60.08958020250937 1.872449005199809 C-60.11829435922125 1.4252028367621175, -60.14700851593313 0.977956668324426, -60.16966871591342 0.6250057626472781 C-60.16966871591342 0.15247335612382434, -60.16966871591342 -0.32005905039962945, -60.16966871591342 -0.6250057626472687 C-60.140918272266525 -1.0728171293880653, -60.112167828619626 -1.5206284961288616, -60.08958020250937 -1.8724490051997822 C-60.05296352987494 -2.1564406873725397, -60.01634685724051 -2.440432369545297, -59.929732276581774 -3.112197953150895 C-59.84196762699648 -3.562850879706135, -59.75420297741118 -4.013503806261375, -59.69078178754556 -4.339158212148126 C-59.60806106851003 -4.654608165217022, -59.5253403494745 -4.970058118285919, -59.37371063421489 -5.548287939305123 C-59.26667919840904 -5.870649570808901, -59.15964776260319 -6.193011202312679, -58.97982172997033 -6.734618561215485 C-58.855852268803275 -7.040825527084601, -58.73188280763621 -7.347032492953717, -58.51073364880834 -7.893275190886676 C-58.32298172945274 -8.2831460686761, -58.13522981009715 -8.673016946465523, -57.968373974273504 -9.019496659696282 C-57.7624699266039 -9.385100146379399, -57.556565878934286 -9.750703633062514, -57.35497137860425 -10.108655082055243 C-57.17731993007212 -10.381575413094005, -56.99966848153999 -10.654495744132767, -56.67304646464064 -11.156274872382308 C-56.392522068306945 -11.532152007171215, -56.11199767197325 -11.908029141960121, -55.92540140812659 -12.158051136245302 C-55.60641749070418 -12.532747796348746, -55.28743357328178 -12.907444456452188, -55.11510844296866 -13.10986736009567 C-54.83980809459367 -13.394137572371797, -54.56450774621869 -13.678407784647925, -54.245497236767996 -14.007812326905677 C-54.038377256785296 -14.195913212631597, -53.83125727680259 -14.384014098357518, -53.32014120850189 -14.848196188198107 C-53.10370355997767 -15.020799453248456, -52.88726591145345 -15.193402718298804, -52.34284284457872 -15.627565626425149 C-52.026663351029526 -15.84811875393539, -51.710483857480334 -16.06867188144563, -51.317618073605715 -16.342718045390885 C-50.95684991287391 -16.561417824535543, -50.59608175214211 -16.780117603680203, -50.24867976407679 -16.99071473040609 C-49.95605671992593 -17.14337598510559, -49.663433675775075 -17.296037239805088, -49.14042041279239 -17.56889292409717 C-48.695144746680306 -17.766003252851657, -48.24986908056822 -17.963113581606148, -47.997394095147804 -18.07487676824742 C-47.6839911458325 -18.190211950660558, -47.3705881965172 -18.305547133073695, -46.82429775146062 -18.506587066708033 C-46.458037142222864 -18.61529129298863, -46.09177653298511 -18.723995519269224, -45.62595188623541 -18.862249829261067 C-45.350456419919695 -18.9251298716717, -45.07496095360398 -18.988009914082337, -44.407280759676766 -19.140403561325773 C-44.04088009745067 -19.199640378914918, -43.67447943522456 -19.25887719650406, -43.17329215284788 -19.3399052695533 C-42.767758876820174 -19.37902657696657, -42.36222560079247 -19.41814788437984, -41.9290567896239 -19.45993515863156 C-41.48568237922832 -19.474153312997007, -41.04230796883275 -19.48837146736246, -40.67968750000001 -19.5 C-40.67968750000001 -19.5, -40.6796875 -19.5, -40.6796875 -19.5" stroke="none" stroke-width="0" fill="#ECECFF" style=""/><path d="M-40.6796875 -19.5 C-19.541708493313312 -19.5, 1.5962705133733763 -19.5, 40.6796875 -19.5 M-40.6796875 -19.5 C-15.286871486448256 -19.5, 10.105944527103489 -19.5, 40.6796875 -19.5 M40.6796875 -19.5 C40.6796875 -19.5, 40.6796875 -19.5, 40.6796875 -19.5 M40.6796875 -19.5 C40.6796875 -19.5, 40.6796875 -19.5, 40.6796875 -19.5 M40.6796875 -19.5 C41.15533640199131 -19.484746865507564, 41.630985303982634 -19.469493731015124, 41.9290567896239 -19.45993515863156 M40.6796875 -19.5 C41.11038494764752 -19.48618837115567, 41.54108239529504 -19.47237674231134, 41.9290567896239 -19.45993515863156 M41.9290567896239 -19.45993515863156 C42.26738715967084 -19.427296834734932, 42.60571752971778 -19.394658510838305, 43.173292152847864 -19.3399052695533 M41.9290567896239 -19.45993515863156 C42.25906193272161 -19.428099959366175, 42.58906707581932 -19.396264760100788, 43.173292152847864 -19.3399052695533 M43.173292152847864 -19.3399052695533 C43.45168098739653 -19.294897521721126, 43.73006982194519 -19.249889773888956, 44.40728075967676 -19.140403561325776 M43.173292152847864 -19.3399052695533 C43.434858694905394 -19.29761721951227, 43.69642523696292 -19.255329169471235, 44.40728075967676 -19.140403561325776 M44.40728075967676 -19.140403561325776 C44.76543837552148 -19.058656422706086, 45.12359599136619 -18.976909284086393, 45.62595188623539 -18.862249829261074 M44.40728075967676 -19.140403561325776 C44.82461090728318 -19.04515067846833, 45.2419410548896 -18.949897795610887, 45.62595188623539 -18.862249829261074 M45.62595188623539 -18.862249829261074 C46.08365414610624 -18.726406201059596, 46.5413564059771 -18.590562572858115, 46.824297751460605 -18.50658706670804 M45.62595188623539 -18.862249829261074 C46.01262861799528 -18.747486204982323, 46.399305349755174 -18.63272258070357, 46.824297751460605 -18.50658706670804 M46.824297751460605 -18.50658706670804 C47.23391689725411 -18.35584343457815, 47.643536043047625 -18.205099802448267, 47.9973940951478 -18.074876768247425 M46.824297751460605 -18.50658706670804 C47.06516125425585 -18.417947071161578, 47.30602475705109 -18.329307075615116, 47.9973940951478 -18.074876768247425 M47.9973940951478 -18.074876768247425 C48.41107699000174 -17.891751622162655, 48.82475988485567 -17.708626476077885, 49.14042041279238 -17.568892924097174 M47.9973940951478 -18.074876768247425 C48.29976377274022 -17.941026681455057, 48.60213345033265 -17.80717659466269, 49.14042041279238 -17.568892924097174 M49.14042041279238 -17.568892924097174 C49.37945549949499 -17.444188472473705, 49.618490586197595 -17.319484020850236, 50.24867976407678 -16.990714730406097 M49.14042041279238 -17.568892924097174 C49.39662042579789 -17.43523354141614, 49.6528204388034 -17.301574158735107, 50.24867976407678 -16.990714730406097 M50.24867976407678 -16.990714730406097 C50.512765319334406 -16.830624514869942, 50.77685087459203 -16.670534299333784, 51.3176180736057 -16.342718045390892 M50.24867976407678 -16.990714730406097 C50.564887011533614 -16.79902803875772, 50.88109425899045 -16.607341347109337, 51.3176180736057 -16.342718045390892 M51.3176180736057 -16.342718045390892 C51.6017339544716 -16.144531106077096, 51.8858498353375 -15.946344166763298, 52.34284284457871 -15.627565626425154 M51.3176180736057 -16.342718045390892 C51.716666704532585 -16.064358994993114, 52.11571533545947 -15.785999944595336, 52.34284284457871 -15.627565626425154 M52.34284284457871 -15.627565626425154 C52.63230418147112 -15.39672791314313, 52.921765518363536 -15.165890199861106, 53.320141208501866 -14.848196188198123 M52.34284284457871 -15.627565626425154 C52.65480639253144 -15.37878299863151, 52.96676994048418 -15.130000370837866, 53.320141208501866 -14.848196188198123 M53.320141208501866 -14.848196188198123 C53.51940829000921 -14.667227097091217, 53.718675371516554 -14.486258005984313, 54.24549723676799 -14.007812326905688 M53.320141208501866 -14.848196188198123 C53.53587783513625 -14.652269891967128, 53.75161446177063 -14.456343595736135, 54.24549723676799 -14.007812326905688 M54.24549723676799 -14.007812326905688 C54.573417471039484 -13.669207762268439, 54.90133770531098 -13.33060319763119, 55.11510844296865 -13.10986736009568 M54.24549723676799 -14.007812326905688 C54.446378938999146 -13.80038547665754, 54.647260641230304 -13.592958626409393, 55.11510844296865 -13.10986736009568 M55.11510844296865 -13.10986736009568 C55.3973059901245 -12.778382063711094, 55.679503537280354 -12.446896767326507, 55.92540140812658 -12.158051136245305 M55.11510844296865 -13.10986736009568 C55.282526281014036 -12.913208841182712, 55.449944119059424 -12.716550322269745, 55.92540140812658 -12.158051136245305 M55.92540140812658 -12.158051136245305 C56.10483576348339 -11.917625446873235, 56.284270118840205 -11.677199757501166, 56.673046464640635 -11.156274872382312 M55.92540140812658 -12.158051136245305 C56.08077876827374 -11.949859628816823, 56.236156128420895 -11.741668121388338, 56.673046464640635 -11.156274872382312 M56.673046464640635 -11.156274872382312 C56.91944507951582 -10.777740432641647, 57.16584369439099 -10.399205992900981, 57.35497137860425 -10.108655082055241 M56.673046464640635 -11.156274872382312 C56.91510071532113 -10.784414542669811, 57.15715496600163 -10.41255421295731, 57.35497137860425 -10.108655082055241 M57.35497137860425 -10.108655082055241 C57.539379820519294 -9.781219220055464, 57.72378826243434 -9.453783358055686, 57.968373974273504 -9.019496659696287 M57.35497137860425 -10.108655082055241 C57.597455738997596 -9.678099545972803, 57.83994009939094 -9.247544009890362, 57.968373974273504 -9.019496659696287 M57.968373974273504 -9.019496659696287 C58.17743615817146 -8.585374561618035, 58.38649834206942 -8.151252463539782, 58.51073364880834 -7.893275190886684 M57.968373974273504 -9.019496659696287 C58.147578805393486 -8.647373993506516, 58.32678363651346 -8.275251327316745, 58.51073364880834 -7.893275190886684 M58.51073364880834 -7.893275190886684 C58.66656914958401 -7.5083584910963435, 58.82240465035967 -7.1234417913060035, 58.979821729970325 -6.734618561215508 M58.51073364880834 -7.893275190886684 C58.6578031428952 -7.530010697096914, 58.804872636982054 -7.166746203307144, 58.979821729970325 -6.734618561215508 M58.979821729970325 -6.734618561215508 C59.06327296540562 -6.483276736233101, 59.14672420084092 -6.231934911250694, 59.37371063421488 -5.548287939305138 M58.979821729970325 -6.734618561215508 C59.12410850243087 -6.300049791539569, 59.26839527489142 -5.865481021863628, 59.37371063421488 -5.548287939305138 M59.37371063421488 -5.548287939305138 C59.47376199638026 -5.166748732833872, 59.57381335854565 -4.785209526362607, 59.69078178754556 -4.339158212148133 M59.37371063421488 -5.548287939305138 C59.468905623503495 -5.1852681873782975, 59.56410061279212 -4.822248435451457, 59.69078178754556 -4.339158212148133 M59.69078178754556 -4.339158212148133 C59.751059066398504 -4.029647124845667, 59.81133634525145 -3.720136037543201, 59.929732276581774 -3.1121979531509023 M59.69078178754556 -4.339158212148133 C59.74147253045721 -4.07887196078913, 59.79216327336886 -3.8185857094301277, 59.929732276581774 -3.1121979531509023 M59.929732276581774 -3.1121979531509023 C59.973861069996246 -2.7699437456441744, 60.01798986341072 -2.4276895381374466, 60.08958020250937 -1.872449005199798 M59.929732276581774 -3.1121979531509023 C59.98839079417392 -2.6572540741407358, 60.04704931176606 -2.2023101951305692, 60.08958020250937 -1.872449005199798 M60.08958020250937 -1.872449005199798 C60.110577090037424 -1.5454055335677137, 60.13157397756549 -1.2183620619356295, 60.16966871591342 -0.6250057626472757 M60.08958020250937 -1.872449005199798 C60.11749480823418 -1.4376564887716987, 60.14540941395899 -1.0028639723435995, 60.16966871591342 -0.6250057626472757 M60.16966871591342 -0.6250057626472757 C60.16966871591342 -0.29634056886022425, 60.16966871591342 0.032324624926827195, 60.16966871591342 0.625005762647271 M60.16966871591342 -0.6250057626472757 C60.16966871591342 -0.19292634677734488, 60.16966871591342 0.23915306909258593, 60.16966871591342 0.625005762647271 M60.16966871591342 0.625005762647271 C60.14445931355519 1.0176625530399641, 60.11924991119697 1.4103193434326573, 60.08958020250937 1.8724490051997846 M60.16966871591342 0.625005762647271 C60.14639391777268 0.9875295307681703, 60.123119119631944 1.3500532988890694, 60.08958020250937 1.8724490051997846 M60.08958020250937 1.8724490051997846 C60.02955762911473 2.3379722316508538, 59.96953505572009 2.8034954581019225, 59.929732276581774 3.1121979531508885 M60.08958020250937 1.8724490051997846 C60.029984914883435 2.3346582876058615, 59.970389627257504 2.7968675700119388, 59.929732276581774 3.1121979531508885 M59.929732276581774 3.1121979531508885 C59.88186145970809 3.3580044802965245, 59.83399064283441 3.60381100744216, 59.69078178754556 4.339158212148129 M59.929732276581774 3.1121979531508885 C59.86447806248401 3.447264551059876, 59.79922384838625 3.782331148968863, 59.69078178754556 4.339158212148129 M59.69078178754556 4.339158212148129 C59.586634782769345 4.736315878957235, 59.48248777799313 5.133473545766342, 59.37371063421489 5.548287939305125 M59.69078178754556 4.339158212148129 C59.57787487055207 4.769721220811661, 59.46496795355859 5.200284229475193, 59.37371063421489 5.548287939305125 M59.37371063421489 5.548287939305125 C59.29436791436842 5.787255569937017, 59.215025194521964 6.026223200568907, 58.979821729970325 6.734618561215495 M59.37371063421489 5.548287939305125 C59.282954271848816 5.821631642689091, 59.19219790948275 6.094975346073057, 58.979821729970325 6.734618561215495 M58.979821729970325 6.734618561215495 C58.832427778181476 7.098684471802147, 58.685033826392626 7.4627503823887995, 58.51073364880834 7.893275190886679 M58.979821729970325 6.734618561215495 C58.803894642201584 7.1691618693231405, 58.62796755443284 7.603705177430787, 58.51073364880834 7.893275190886679 M58.51073364880834 7.893275190886679 C58.398543490241494 8.126240455635589, 58.28635333167464 8.359205720384498, 57.968373974273504 9.019496659696284 M58.51073364880834 7.893275190886679 C58.34226460735742 8.243104760119541, 58.17379556590651 8.592934329352403, 57.968373974273504 9.019496659696284 M57.968373974273504 9.019496659696284 C57.79595530944862 9.325643458375891, 57.62353664462374 9.6317902570555, 57.35497137860425 10.108655082055236 M57.968373974273504 9.019496659696284 C57.764842966853514 9.380886573119822, 57.56131195943352 9.742276486543362, 57.35497137860425 10.108655082055236 M57.35497137860425 10.108655082055236 C57.09960705247583 10.500963261911444, 56.84424272634742 10.89327144176765, 56.67304646464064 11.156274872382301 M57.35497137860425 10.108655082055236 C57.135788014418836 10.44537958841835, 56.916604650233424 10.782104094781463, 56.67304646464064 11.156274872382301 M56.67304646464064 11.156274872382301 C56.423602429311636 11.490507154904053, 56.17415839398264 11.824739437425807, 55.92540140812658 12.158051136245302 M56.67304646464064 11.156274872382301 C56.47582922597475 11.420528005334544, 56.27861198730886 11.684781138286787, 55.92540140812658 12.158051136245302 M55.92540140812658 12.158051136245302 C55.711990854482785 12.40873531595982, 55.49858030083898 12.659419495674339, 55.11510844296866 13.10986736009567 M55.92540140812658 12.158051136245302 C55.60280326697686 12.536993269194006, 55.280205125827145 12.915935402142713, 55.11510844296866 13.10986736009567 M55.11510844296866 13.10986736009567 C54.799017716339534 13.43625698687153, 54.482926989710414 13.76264661364739, 54.24549723676799 14.007812326905684 M55.11510844296866 13.10986736009567 C54.86821896564601 13.364801015434365, 54.62132948832336 13.61973467077306, 54.24549723676799 14.007812326905684 M54.24549723676799 14.007812326905684 C53.897418709817075 14.323928035429352, 53.54934018286617 14.64004374395302, 53.32014120850189 14.848196188198111 M54.24549723676799 14.007812326905684 C53.90529658213048 14.316773560231399, 53.565095927492976 14.625734793557111, 53.32014120850189 14.848196188198111 M53.32014120850189 14.848196188198111 C53.00898912585999 15.096331694000362, 52.697837043218094 15.344467199802615, 52.34284284457871 15.627565626425152 M53.32014120850189 14.848196188198111 C53.01146700881516 15.094355648282848, 52.70279280912843 15.340515108367587, 52.34284284457871 15.627565626425152 M52.34284284457871 15.627565626425152 C52.05545535516638 15.82803469823529, 51.76806786575404 16.02850377004543, 51.31761807360571 16.34271804539089 M52.34284284457871 15.627565626425152 C52.13213394016627 15.774547036701813, 51.92142503575383 15.921528446978472, 51.31761807360571 16.34271804539089 M51.31761807360571 16.34271804539089 C51.069430349397194 16.49317090231905, 50.82124262518868 16.64362375924721, 50.24867976407678 16.990714730406093 M51.31761807360571 16.34271804539089 C50.89677076175465 16.59783815900832, 50.4759234499036 16.85295827262575, 50.24867976407678 16.990714730406093 M50.24867976407678 16.990714730406093 C50.010493048515585 17.114976587348497, 49.772306332954386 17.239238444290905, 49.14042041279239 17.56889292409717 M50.24867976407678 16.990714730406093 C49.847102511605726 17.200217325797738, 49.44552525913467 17.40971992118938, 49.14042041279239 17.56889292409717 M49.14042041279239 17.56889292409717 C48.80108009372383 17.719108817175904, 48.46173977465528 17.86932471025464, 47.997394095147804 18.07487676824742 M49.14042041279239 17.56889292409717 C48.81285814420418 17.713895023611713, 48.48529587561597 17.85889712312625, 47.997394095147804 18.07487676824742 M47.997394095147804 18.07487676824742 C47.75885377075413 18.16266181266688, 47.52031344636046 18.250446857086338, 46.82429775146062 18.506587066708033 M47.997394095147804 18.07487676824742 C47.53203910721591 18.24613170550071, 47.06668411928402 18.417386642754, 46.82429775146062 18.506587066708033 M46.82429775146062 18.506587066708033 C46.51154718263861 18.59940979387317, 46.1987966138166 18.69223252103831, 45.62595188623541 18.86224982926107 M46.82429775146062 18.506587066708033 C46.56735665611733 18.582845835094588, 46.31041556077405 18.659104603481143, 45.62595188623541 18.86224982926107 M45.62595188623541 18.86224982926107 C45.16547565983455 18.967350523048868, 44.704999433433684 19.07245121683667, 44.407280759676766 19.140403561325773 M45.62595188623541 18.86224982926107 C45.187209167922205 18.962389991652255, 44.748466449609 19.06253015404344, 44.407280759676766 19.140403561325773 M44.407280759676766 19.140403561325773 C44.117223504651314 19.18729776889068, 43.82716624962586 19.234191976455588, 43.17329215284788 19.3399052695533 M44.407280759676766 19.140403561325773 C44.02923180312365 19.201523584807834, 43.651182846570535 19.2626436082899, 43.17329215284788 19.3399052695533 M43.17329215284788 19.3399052695533 C42.72903975050128 19.38276176451599, 42.28478734815469 19.425618259478686, 41.9290567896239 19.45993515863156 M43.17329215284788 19.3399052695533 C42.86255726020688 19.36988149093299, 42.55182236756588 19.399857712312684, 41.9290567896239 19.45993515863156 M41.9290567896239 19.45993515863156 C41.57809640554553 19.471189775046007, 41.22713602146716 19.482444391460454, 40.67968750000001 19.5 M41.9290567896239 19.45993515863156 C41.56870835028492 19.471490831705474, 41.208359910945944 19.483046504779388, 40.67968750000001 19.5 M40.67968750000001 19.5 C40.67968750000001 19.5, 40.6796875 19.5, 40.6796875 19.5 M40.67968750000001 19.5 C40.67968750000001 19.5, 40.67968750000001 19.5, 40.6796875 19.5 M40.6796875 19.5 C13.277754022349395 19.5, -14.12417945530121 19.5, -40.67968749999999 19.5 M40.6796875 19.5 C13.842533447797585 19.5, -12.99462060440483 19.5, -40.67968749999999 19.5 M-40.67968749999999 19.5 C-41.177540747586406 19.484034815362463, -41.67539399517281 19.46806963072493, -41.92905678962389 19.45993515863156 M-40.67968749999999 19.5 C-41.11905855216682 19.48591022554088, -41.55842960433365 19.471820451081765, -41.92905678962389 19.45993515863156 M-41.92905678962389 19.45993515863156 C-42.285411964988505 19.425558003443935, -42.64176714035312 19.391180848256315, -43.17329215284787 19.3399052695533 M-41.92905678962389 19.45993515863156 C-42.42460095768751 19.41213060871752, -42.92014512575113 19.364326058803478, -43.17329215284787 19.3399052695533 M-43.17329215284787 19.3399052695533 C-43.614181947497386 19.268625626705788, -44.0550717421469 19.197345983858277, -44.40728075967676 19.140403561325773 M-43.17329215284787 19.3399052695533 C-43.553677228781616 19.278407560406652, -43.93406230471537 19.216909851260002, -44.40728075967676 19.140403561325773 M-44.40728075967676 19.140403561325773 C-44.80331351185878 19.050011669995452, -45.19934626404081 18.959619778665136, -45.625951886235384 18.862249829261074 M-44.40728075967676 19.140403561325773 C-44.778940222478866 19.055574714245843, -45.15059968528097 18.970745867165913, -45.625951886235384 18.862249829261074 M-45.625951886235384 18.862249829261074 C-46.05963187939723 18.733535883723377, -46.493311872559076 18.60482193818568, -46.82429775146059 18.506587066708043 M-45.625951886235384 18.862249829261074 C-45.98788649243275 18.754829537975212, -46.34982109863012 18.647409246689353, -46.82429775146059 18.506587066708043 M-46.82429775146059 18.506587066708043 C-47.25730640566878 18.34723587927131, -47.690315059876966 18.187884691834576, -47.9973940951478 18.074876768247425 M-46.82429775146059 18.506587066708043 C-47.20186996278352 18.367637002701944, -47.57944217410645 18.228686938695848, -47.9973940951478 18.074876768247425 M-47.9973940951478 18.074876768247425 C-48.3660897679881 17.911666130849564, -48.734785440828404 17.748455493451708, -49.14042041279238 17.568892924097174 M-47.9973940951478 18.074876768247425 C-48.431764382472046 17.88259392718574, -48.8661346697963 17.69031108612406, -49.14042041279238 17.568892924097174 M-49.14042041279238 17.568892924097174 C-49.52359088759365 17.368993132825757, -49.90676136239492 17.169093341554337, -50.24867976407678 16.990714730406097 M-49.14042041279238 17.568892924097174 C-49.42836222267228 17.418673866318365, -49.71630403255217 17.268454808539556, -50.24867976407678 16.990714730406097 M-50.24867976407678 16.990714730406097 C-50.63319507008321 16.757619292242243, -51.01771037608963 16.524523854078392, -51.317618073605686 16.3427180453909 M-50.24867976407678 16.990714730406097 C-50.56520654649736 16.798834334784903, -50.881733328917925 16.60695393916371, -51.317618073605686 16.3427180453909 M-51.317618073605686 16.3427180453909 C-51.67760218108752 16.091608715472425, -52.03758628856935 15.840499385553953, -52.34284284457871 15.627565626425156 M-51.317618073605686 16.3427180453909 C-51.57247001041628 16.164944366634366, -51.82732194722687 15.98717068787783, -52.34284284457871 15.627565626425156 M-52.34284284457871 15.627565626425156 C-52.67804537493508 15.360250528579902, -53.01324790529146 15.092935430734649, -53.320141208501866 14.848196188198125 M-52.34284284457871 15.627565626425156 C-52.72119523504575 15.325839663407649, -53.099547625512784 15.024113700390142, -53.320141208501866 14.848196188198125 M-53.320141208501866 14.848196188198125 C-53.515419332723134 14.670849762556404, -53.7106974569444 14.493503336914685, -54.245497236767974 14.007812326905697 M-53.320141208501866 14.848196188198125 C-53.53762052217063 14.650687229711474, -53.755099835839395 14.453178271224823, -54.245497236767974 14.007812326905697 M-54.245497236767974 14.007812326905697 C-54.54243794702319 13.701196664281484, -54.8393786572784 13.39458100165727, -55.115108442968655 13.109867360095677 M-54.245497236767974 14.007812326905697 C-54.51033818616502 13.734342302806917, -54.77517913556208 13.46087227870814, -55.115108442968655 13.109867360095677 M-55.115108442968655 13.109867360095677 C-55.37677480071465 12.80249916704968, -55.638441158460644 12.495130974003681, -55.925401408126575 12.158051136245307 M-55.115108442968655 13.109867360095677 C-55.281389367058466 12.914544325007169, -55.44767029114827 12.719221289918659, -55.925401408126575 12.158051136245307 M-55.925401408126575 12.158051136245307 C-56.20663303106415 11.781226382236875, -56.487864654001726 11.404401628228443, -56.673046464640635 11.156274872382316 M-55.925401408126575 12.158051136245307 C-56.138531532195614 11.872476186546532, -56.35166165626466 11.586901236847755, -56.673046464640635 11.156274872382316 M-56.673046464640635 11.156274872382316 C-56.90571611544588 10.79883180819612, -57.138385766251126 10.441388744009922, -57.35497137860425 10.108655082055249 M-56.673046464640635 11.156274872382316 C-56.91878991916716 10.778746934872373, -57.164533373693686 10.401218997362433, -57.35497137860425 10.108655082055249 M-57.35497137860425 10.108655082055249 C-57.52679430357874 9.803566079805206, -57.69861722855323 9.498477077555165, -57.968373974273504 9.019496659696289 M-57.35497137860425 10.108655082055249 C-57.54081882180681 9.778664127554809, -57.726666265009364 9.448673173054367, -57.968373974273504 9.019496659696289 M-57.968373974273504 9.019496659696289 C-58.08276916269644 8.781952603271149, -58.19716435111936 8.544408546846011, -58.51073364880834 7.893275190886686 M-57.968373974273504 9.019496659696289 C-58.07989868686851 8.78791320774618, -58.19142339946351 8.556329755796073, -58.51073364880834 7.893275190886686 M-58.51073364880834 7.893275190886686 C-58.669390951271346 7.501388586372802, -58.828048253734345 7.109501981858918, -58.979821729970325 6.73461856121551 M-58.51073364880834 7.893275190886686 C-58.6086257949893 7.65147969720383, -58.706517941170254 7.409684203520974, -58.979821729970325 6.73461856121551 M-58.979821729970325 6.73461856121551 C-59.111843263286545 6.336990737641799, -59.24386479660277 5.939362914068088, -59.37371063421488 5.5482879393051325 M-58.979821729970325 6.73461856121551 C-59.08839039162292 6.407627050385005, -59.19695905327551 6.0806355395545, -59.37371063421488 5.5482879393051325 M-59.37371063421488 5.5482879393051325 C-59.44441125924787 5.278675814209625, -59.51511188428086 5.009063689114116, -59.69078178754556 4.339158212148136 M-59.37371063421488 5.5482879393051325 C-59.459683904193824 5.2204345998245225, -59.54565717417276 4.892581260343912, -59.69078178754556 4.339158212148136 M-59.69078178754556 4.339158212148136 C-59.7643071014493 3.9616212648330507, -59.83783241535303 3.584084317517966, -59.929732276581774 3.112197953150904 M-59.69078178754556 4.339158212148136 C-59.76112554065989 3.977957907063529, -59.83146929377422 3.616757601978922, -59.929732276581774 3.112197953150904 M-59.929732276581774 3.112197953150904 C-59.98470910869789 2.685808499661741, -60.03968594081401 2.2594190461725776, -60.08958020250937 1.872449005199809 M-59.929732276581774 3.112197953150904 C-59.974827204510085 2.762450597139662, -60.0199221324384 2.41270324112842, -60.08958020250937 1.872449005199809 M-60.08958020250937 1.872449005199809 C-60.11443565654197 1.4853052456806624, -60.13929111057457 1.0981614861615159, -60.16966871591342 0.6250057626472781 M-60.08958020250937 1.872449005199809 C-60.120405967168566 1.3923128385234371, -60.151231731827764 0.9121766718470651, -60.16966871591342 0.6250057626472781 M-60.16966871591342 0.6250057626472781 C-60.16966871591342 0.2931779192828573, -60.16966871591342 -0.038649924081563536, -60.16966871591342 -0.6250057626472687 M-60.16966871591342 0.6250057626472781 C-60.16966871591342 0.2946822540492327, -60.16966871591342 -0.03564125454881273, -60.16966871591342 -0.6250057626472687 M-60.16966871591342 -0.6250057626472687 C-60.14222327739591 -1.0524906211167182, -60.114777838878396 -1.4799754795861677, -60.08958020250937 -1.8724490051997822 M-60.16966871591342 -0.6250057626472687 C-60.14731906659447 -0.9731195911020634, -60.12496941727552 -1.321233419556858, -60.08958020250937 -1.8724490051997822 M-60.08958020250937 -1.8724490051997822 C-60.03178459685344 -2.3207003096338963, -59.973988991197515 -2.76895161406801, -59.929732276581774 -3.112197953150895 M-60.08958020250937 -1.8724490051997822 C-60.050110270855846 -2.1785700008848763, -60.01064033920233 -2.48469099656997, -59.929732276581774 -3.112197953150895 M-59.929732276581774 -3.112197953150895 C-59.87016209661666 -3.418078237109755, -59.81059191665155 -3.7239585210686146, -59.69078178754556 -4.339158212148126 M-59.929732276581774 -3.112197953150895 C-59.85144928509562 -3.5141645693162102, -59.77316629360946 -3.9161311854815253, -59.69078178754556 -4.339158212148126 M-59.69078178754556 -4.339158212148126 C-59.5885358679302 -4.729066217303394, -59.48628994831483 -5.118974222458663, -59.37371063421489 -5.548287939305123 M-59.69078178754556 -4.339158212148126 C-59.574429991346705 -4.78285803824182, -59.458078195147856 -5.226557864335514, -59.37371063421489 -5.548287939305123 M-59.37371063421489 -5.548287939305123 C-59.23584111726518 -5.963528957833222, -59.097971600315475 -6.378769976361321, -58.97982172997033 -6.734618561215485 M-59.37371063421489 -5.548287939305123 C-59.23503999738942 -5.965941803257905, -59.09636936056395 -6.383595667210686, -58.97982172997033 -6.734618561215485 M-58.97982172997033 -6.734618561215485 C-58.80198812102018 -7.17387101350129, -58.62415451207003 -7.613123465787094, -58.51073364880834 -7.893275190886676 M-58.97982172997033 -6.734618561215485 C-58.86889357473559 -7.008613249295294, -58.757965419500835 -7.282607937375104, -58.51073364880834 -7.893275190886676 M-58.51073364880834 -7.893275190886676 C-58.34673981281396 -8.23381190023499, -58.182745976819575 -8.574348609583303, -57.968373974273504 -9.019496659696282 M-58.51073364880834 -7.893275190886676 C-58.34021341109407 -8.24736411304897, -58.16969317337979 -8.601453035211266, -57.968373974273504 -9.019496659696282 M-57.968373974273504 -9.019496659696282 C-57.75446668119438 -9.399310719020468, -57.54055938811526 -9.779124778344652, -57.35497137860425 -10.108655082055243 M-57.968373974273504 -9.019496659696282 C-57.7416119243328 -9.42213564151349, -57.51484987439209 -9.824774623330699, -57.35497137860425 -10.108655082055243 M-57.35497137860425 -10.108655082055243 C-57.21554394370753 -10.322853063565175, -57.07611650881081 -10.537051045075108, -56.67304646464064 -11.156274872382308 M-57.35497137860425 -10.108655082055243 C-57.10393963790912 -10.494307247223832, -56.85290789721399 -10.87995941239242, -56.67304646464064 -11.156274872382308 M-56.67304646464064 -11.156274872382308 C-56.41296401290541 -11.50476166370873, -56.15288156117018 -11.853248455035153, -55.92540140812659 -12.158051136245302 M-56.67304646464064 -11.156274872382308 C-56.42542517088993 -11.488064847244326, -56.17780387713922 -11.819854822106343, -55.92540140812659 -12.158051136245302 M-55.92540140812659 -12.158051136245302 C-55.64402968868956 -12.48856636840043, -55.362657969252524 -12.81908160055556, -55.11510844296866 -13.10986736009567 M-55.92540140812659 -12.158051136245302 C-55.71148124842433 -12.409333928233492, -55.497561088722065 -12.660616720221684, -55.11510844296866 -13.10986736009567 M-55.11510844296866 -13.10986736009567 C-54.866219584774385 -13.366865540336539, -54.617330726580114 -13.62386372057741, -54.245497236767996 -14.007812326905677 M-55.11510844296866 -13.10986736009567 C-54.934127303378965 -13.296745245549928, -54.75314616378927 -13.483623131004187, -54.245497236767996 -14.007812326905677 M-54.245497236767996 -14.007812326905677 C-53.88097343816483 -14.338863196025876, -53.51644963956167 -14.669914065146074, -53.32014120850189 -14.848196188198107 M-54.245497236767996 -14.007812326905677 C-53.94764805725029 -14.278311071086215, -53.64979887773258 -14.548809815266752, -53.32014120850189 -14.848196188198107 M-53.32014120850189 -14.848196188198107 C-53.11953913947255 -15.008171000003754, -52.918937070443214 -15.168145811809403, -52.34284284457872 -15.627565626425149 M-53.32014120850189 -14.848196188198107 C-53.043574411527224 -15.068750849033844, -52.76700761455257 -15.289305509869578, -52.34284284457872 -15.627565626425149 M-52.34284284457872 -15.627565626425149 C-51.9569650713102 -15.89673725667769, -51.57108729804168 -16.165908886930232, -51.317618073605715 -16.342718045390885 M-52.34284284457872 -15.627565626425149 C-51.969311319901465 -15.888125048120912, -51.59577979522422 -16.148684469816676, -51.317618073605715 -16.342718045390885 M-51.317618073605715 -16.342718045390885 C-51.06561086672866 -16.495486295158486, -50.813603659851616 -16.648254544926083, -50.24867976407679 -16.99071473040609 M-51.317618073605715 -16.342718045390885 C-51.093636864756355 -16.478496770455052, -50.869655655906996 -16.614275495519216, -50.24867976407679 -16.99071473040609 M-50.24867976407679 -16.99071473040609 C-49.93919280294079 -17.152173879794884, -49.62970584180478 -17.31363302918368, -49.14042041279239 -17.56889292409717 M-50.24867976407679 -16.99071473040609 C-49.901105814357656 -17.172043837342823, -49.553531864638515 -17.353372944279556, -49.14042041279239 -17.56889292409717 M-49.14042041279239 -17.56889292409717 C-48.74870209076866 -17.742295005345905, -48.35698376874494 -17.915697086594644, -47.997394095147804 -18.07487676824742 M-49.14042041279239 -17.56889292409717 C-48.8550953908119 -17.695197847461877, -48.56977036883141 -17.821502770826584, -47.997394095147804 -18.07487676824742 M-47.997394095147804 -18.07487676824742 C-47.635414626256285 -18.20808855890103, -47.273435157364766 -18.34130034955464, -46.82429775146062 -18.506587066708033 M-47.997394095147804 -18.07487676824742 C-47.604662767609724 -18.21940552715003, -47.211931440071645 -18.36393428605264, -46.82429775146062 -18.506587066708033 M-46.82429775146062 -18.506587066708033 C-46.56066509708287 -18.584831854691306, -46.29703244270512 -18.663076642674582, -45.62595188623541 -18.862249829261067 M-46.82429775146062 -18.506587066708033 C-46.538085000853926 -18.591533508726716, -46.251872250247224 -18.676479950745396, -45.62595188623541 -18.862249829261067 M-45.62595188623541 -18.862249829261067 C-45.15923554103263 -18.968774789444822, -44.692519195829846 -19.07529974962858, -44.407280759676766 -19.140403561325773 M-45.62595188623541 -18.862249829261067 C-45.37940260501501 -18.918523093815207, -45.1328533237946 -18.974796358369346, -44.407280759676766 -19.140403561325773 M-44.407280759676766 -19.140403561325773 C-44.079349066413556 -19.193421014344306, -43.751417373150346 -19.24643846736284, -43.17329215284788 -19.3399052695533 M-44.407280759676766 -19.140403561325773 C-44.0167850774155 -19.20353587489453, -43.62628939515423 -19.26666818846329, -43.17329215284788 -19.3399052695533 M-43.17329215284788 -19.3399052695533 C-42.71272846635095 -19.384335294480785, -42.25216477985403 -19.42876531940827, -41.9290567896239 -19.45993515863156 M-43.17329215284788 -19.3399052695533 C-42.67645435233402 -19.38783461463399, -42.17961655182017 -19.435763959714688, -41.9290567896239 -19.45993515863156 M-41.9290567896239 -19.45993515863156 C-41.63815603875322 -19.46926377950802, -41.34725528788255 -19.47859240038448, -40.67968750000001 -19.5 M-41.9290567896239 -19.45993515863156 C-41.573527122776625 -19.471336303050837, -41.21799745592935 -19.48273744747011, -40.67968750000001 -19.5 M-40.67968750000001 -19.5 C-40.67968750000001 -19.5, -40.67968750000001 -19.5, -40.6796875 -19.5 M-40.67968750000001 -19.5 C-40.67968750000001 -19.5, -40.6796875 -19.5, -40.6796875 -19.5" stroke="#9370DB" stroke-width="1.3" fill="none" stroke-dasharray="0 0" style=""/></g><g class="label" style="" transform="translate(-47.8046875, -12)"><rect/><foreignObject width="95.609375" height="24"><div xmlns="http://www.w3.org/1999/xhtml" style="display: table-cell; white-space: nowrap; line-height: 1.5; max-width: 200px; text-align: center;"><span class="nodeLabel"><p>Fin / Retorno</p></span></div></foreignObject></g></g></g></g></g><defs><filter id="my-svg-drop-shadow" height="130%" width="130%"><feDropShadow dx="4" dy="4" stdDeviation="0" flood-opacity="0.06" flood-color="#000000"/></filter></defs><defs><filter id="my-svg-drop-shadow-small" height="150%" width="150%"><feDropShadow dx="2" dy="2" stdDeviation="0" flood-opacity="0.06" flood-color="#000000"/></filter></defs></svg>