<svg id="my-svg" width="100%" xmlns="http://www.w3.org/2000/svg" xmlns:xlink="http://www.w3.org/1999/xlink" class="flowchart" style="max-width: 215.73px; background-color: white;" viewBox="0 0 215.72996520996094 352" role="graphics-document document" aria-roledescription="flowchart-v2"><style>#my-svg{font-family:"trebuchet ms",verdana,arial,sans-serif;font-size:16px;fill:#333;}@keyframes edge-animation-frame{from{stroke-dashoffset:0;}}@keyframes dash{to{stroke-dashoffset:0;}}#my-svg .edge-animation-slow{stroke-dasharray:9,5!important;stroke-dashoffset:900;animation:dash 50s linear infinite;stroke-linecap:round;}#my-svg .edge-animation-fast{stroke-dasharray:9,5!important;stroke-dashoffset:900;animation:dash 20s linear infinite;stroke-linecap:round;}#my-svg .error-icon{fill:#552222;}#my-svg .error-text{fill:#552222;stroke:#552222;}#my-svg .edge-thickness-normal{stroke-width:1px;}#my-svg .edge-thickness-thick{stroke-width:3.5px;}#my-svg .edge-pattern-solid{stroke-dasharray:0;}#my-svg .edge-thickness-invisible{stroke-width:0;fill:none;}#my-svg .edge-pattern-dashed{stroke-dasharray:3;}#my-svg .edge-pattern-dotted{stroke-dasharray:2;}#my-svg .marker{fill:#333333;stroke:#333333;}#my-svg .marker.cross{stroke:#333333;}#my-svg svg{font-family:"trebuchet ms",verdana,arial,sans-serif;font-size:16px;}#my-svg p{margin:0;}#my-svg .label{font-family:"trebuchet ms",verdana,arial,sans-serif;color:#333;}#my-svg .cluster-label text{fill:#333;}#my-svg .cluster-label span{color:#333;}#my-svg .cluster-label span p{background-color:transparent;}#my-svg .label text,#my-svg span{fill:#333;color:#333;}#my-svg .node rect,#my-svg .node circle,#my-svg .node ellipse,#my-svg .node polygon,#my-svg .node path{fill:#ECECFF;stroke:#9370DB;stroke-width:1px;}#my-svg .rough-node .label text,#my-svg .node .label text,#my-svg .image-shape .label,#my-svg .icon-shape .label{text-anchor:middle;}#my-svg .node .katex path{fill:#000;stroke:#000;stroke-width:1px;}#my-svg .rough-node .label,#my-svg .node .label,#my-svg .image-shape .label,#my-svg .icon-shape .label{text-align:center;}#my-svg .node.clickable{cursor:pointer;}#my-svg .root .anchor path{fill:#333333!important;stroke-width:0;stroke:#333333;}#my-svg .arrowheadPath{fill:#333333;}#my-svg .edgePath .path{stroke:#333333;stroke-width:1px;}#my-svg .flowchart-link{stroke:#333333;fill:none;}#my-svg .edgeLabel{background-color:rgba(232,232,232, 0.8);text-align:center;}#my-svg .edgeLabel p{background-color:rgba(232,232,232, 0.8);}#my-svg .edgeLabel rect{opacity:0.5;background-color:rgba(232,232,232, 0.8);fill:rgba(232,232,232, 0.8);}#my-svg .labelBkg{background-color:rgba(232, 232, 232, 0.5);}#my-svg .cluster rect{fill:#ffffde;stroke:#aaaa33;stroke-width:1px;}#my-svg .cluster text{fill:#333;}#my-svg .cluster span{color:#333;}#my-svg div.mermaidTooltip{position:absolute;text-align:center;max-width:200px;padding:2px;font-family:"trebuchet ms",verdana,arial,sans-serif;font-size:12px;background:hsl(80, 100%, 96.2745098039%);border:1px solid #aaaa33;border-radius:2px;pointer-events:none;z-index:100;}#my-svg .flowchartTitleText{text-anchor:middle;font-size:18px;fill:#333;}#my-svg rect.text{fill:none;stroke-width:0;}#my-svg .icon-shape,#my-svg .image-shape{background-color:rgba(232,232,232, 0.8);text-align:center;}#my-svg .icon-shape p,#my-svg .image-shape p{background-color:rgba(232,232,232, 0.8);padding:2px;}#my-svg .icon-shape .label rect,#my-svg .image-shape .label rect{opacity:0.5;background-color:rgba(232,232,232, 0.8);fill:rgba(232,232,232, 0.8);}#my-svg .label-icon{display:inline-block;height:1em;overflow:visible;vertical-align:-0.125em;}#my-svg .node .label-icon path{fill:currentColor;stroke:revert;stroke-width:revert;}#my-svg .node .neo-node{stroke:#9370DB;}#my-svg [data-look="neo"].node rect,#my-svg [data-look="neo"].cluster rect,#my-svg [data-look="neo"].node polygon{stroke:#9370DB;filter:drop-shadow(1px 2px 2px rgba(185, 185, 185, 1));}#my-svg [data-look="neo"].swimlane.cluster rect{filter:none;}#my-svg [data-look="neo"].node path{stroke:#9370DB;stroke-width:1px;}#my-svg [data-look="neo"].node .outer-path{filter:drop-shadow(1px 2px 2px rgba(185, 185, 185, 1));}#my-svg [data-look="neo"].node .neo-line path{stroke:#9370DB;filter:none;}#my-svg [data-look="neo"].node circle{stroke:#9370DB;filter:drop-shadow(1px 2px 2px rgba(185, 185, 185, 1));}#my-svg [data-look="neo"].node circle .state-start{fill:#000000;}#my-svg [data-look="neo"].icon-shape .icon{fill:#9370DB;filter:drop-shadow(1px 2px 2px rgba(185, 185, 185, 1));}#my-svg [data-look="neo"].icon-shape .icon-neo path{stroke:#9370DB;filter:drop-shadow(1px 2px 2px rgba(185, 185, 185, 1));}#my-svg :root{--mermaid-font-family:"trebuchet ms",verdana,arial,sans-serif;}</style><g><marker id="my-svg_flowchart-v2-pointEnd" class="marker flowchart-v2" viewBox="0 0 10 10" refX="5" refY="5" markerUnits="userSpaceOnUse" markerWidth="8" markerHeight="8" orient="auto"><path d="M 0 0 L 10 5 L 0 10 z" class="arrowMarkerPath" style="stroke-width: 1; stroke-dasharray: 1, 0;"/></marker><marker id="my-svg_flowchart-v2-pointStart" class="marker flowchart-v2" viewBox="0 0 10 10" refX="4.5" refY="5" markerUnits="userSpaceOnUse" markerWidth="8" markerHeight="8" orient="auto"><path d="M 0 5 L 10 10 L 10 0 z" class="arrowMarkerPath" style="stroke-width: 1; stroke-dasharray: 1, 0;"/></marker><marker id="my-svg_flowchart-v2-pointEnd-margin" class="marker flowchart-v2" viewBox="0 0 11.5 14" refX="11.5" refY="7" markerUnits="userSpaceOnUse" markerWidth="10.5" markerHeight="14" orient="auto"><path d="M 0 0 L 11.5 7 L 0 14 z" class="arrowMarkerPath" style="stroke-width: 0; stroke-dasharray: 1, 0;"/></marker><marker id="my-svg_flowchart-v2-pointStart-margin" class="marker flowchart-v2" viewBox="0 0 11.5 14" refX="1" refY="7" markerUnits="userSpaceOnUse" markerWidth="11.5" markerHeight="14" orient="auto"><polygon points="0,7 11.5,14 11.5,0" class="arrowMarkerPath" style="stroke-width: 0; stroke-dasharray: 1, 0;"/></marker><marker id="my-svg_flowchart-v2-circleEnd" class="marker flowchart-v2" viewBox="0 0 10 10" refX="11" refY="5" markerUnits="userSpaceOnUse" markerWidth="11" markerHeight="11" orient="auto"><circle cx="5" cy="5" r="5" class="arrowMarkerPath" style="stroke-width: 1; stroke-dasharray: 1, 0;"/></marker><marker id="my-svg_flowchart-v2-circleStart" class="marker flowchart-v2" viewBox="0 0 10 10" refX="-1" refY="5" markerUnits="userSpaceOnUse" markerWidth="11" markerHeight="11" orient="auto"><circle cx="5" cy="5" r="5" class="arrowMarkerPath" style="stroke-width: 1; stroke-dasharray: 1, 0;"/></marker><marker id="my-svg_flowchart-v2-circleEnd-margin" class="marker flowchart-v2" viewBox="0 0 10 10" refY="5" refX="12.25" markerUnits="userSpaceOnUse" markerWidth="14" markerHeight="14" orient="auto"><circle cx="5" cy="5" r="5" class="arrowMarkerPath" style="stroke-width: 0; stroke-dasharray: 1, 0;"/></marker><marker id="my-svg_flowchart-v2-circleStart-margin" class="marker flowchart-v2" viewBox="0 0 10 10" refX="-2" refY="5" markerUnits="userSpaceOnUse" markerWidth="14" markerHeight="14" orient="auto"><circle cx="5" cy="5" r="5" class="arrowMarkerPath" style="stroke-width: 0; stroke-dasharray: 1, 0;"/></marker><marker id="my-svg_flowchart-v2-crossEnd" class="marker cross flowchart-v2" viewBox="0 0 11 11" refX="12" refY="5.2" markerUnits="userSpaceOnUse" markerWidth="11" markerHeight="11" orient="auto"><path d="M 1,1 l 9,9 M 10,1 l -9,9" class="arrowMarkerPath" style="stroke-width: 2; stroke-dasharray: 1, 0;"/></marker><marker id="my-svg_flowchart-v2-crossStart" class="marker cross flowchart-v2" viewBox="0 0 11 11" refX="-1" refY="5.2" markerUnits="userSpaceOnUse" markerWidth="11" markerHeight="11" orient="auto"><path d="M 1,1 l 9,9 M 10,1 l -9,9" class="arrowMarkerPath" style="stroke-width: 2; stroke-dasharray: 1, 0;"/></marker><marker id="my-svg_flowchart-v2-crossEnd-margin" class="marker cross flowchart-v2" viewBox="0 0 15 15" refX="17.7" refY="7.5" markerUnits="userSpaceOnUse" markerWidth="12" markerHeight="12" orient="auto"><path d="M 1,1 L 14,14 M 1,14 L 14,1" class="arrowMarkerPath" style="stroke-width: 2.5;"/></marker><marker id="my-svg_flowchart-v2-crossStart-margin" class="marker cross flowchart-v2" viewBox="0 0 15 15" refX="-3.5" refY="7.5" markerUnits="userSpaceOnUse" markerWidth="12" markerHeight="12" orient="auto"><path d="M 1,1 L 14,14 M 1,14 L 14,1" class="arrowMarkerPath" style="stroke-width: 2.5; stroke-dasharray: 1, 0;"/></marker><g class="root"><g class="clusters"/><g class="edgePaths"><path d="M108.365,47.5L108.282,51.583C108.198,55.667,108.032,63.833,107.948,71.417C107.865,79,107.865,86,107.865,89.5L107.865,93" id="my-svg-L_start_node_1_0" class="edge-thickness-normal edge-pattern-solid edge-thickness-normal edge-pattern-solid flowchart-link" style=";" data-edge="true" data-et="edge" data-id="L_start_node_1_0" data-points="W3sieCI6MTA4LjM2NDk4MjYwNDk4MDQ3LCJ5Ijo0Ny41fSx7IngiOjEwNy44NjQ5ODI2MDQ5ODA0NywieSI6NzJ9LHsieCI6MTA3Ljg2NDk4MjYwNDk4MDQ3LCJ5Ijo5N31d" data-look="classic" marker-end="url(#my-svg_flowchart-v2-pointEnd)"/><path d="M107.865,151L107.865,155.167C107.865,159.333,107.865,167.667,107.865,175.333C107.865,183,107.865,190,107.865,193.5L107.865,197" id="my-svg-L_node_1_node_2_0" class="edge-thickness-normal edge-pattern-solid edge-thickness-normal edge-pattern-solid flowchart-link" style=";" data-edge="true" data-et="edge" data-id="L_node_1_node_2_0" data-points="W3sieCI6MTA3Ljg2NDk4MjYwNDk4MDQ3LCJ5IjoxNTF9LHsieCI6MTA3Ljg2NDk4MjYwNDk4MDQ3LCJ5IjoxNzZ9LHsieCI6MTA3Ljg2NDk4MjYwNDk4MDQ3LCJ5IjoyMDF9XQ==" data-look="classic" marker-end="url(#my-svg_flowchart-v2-pointEnd)"/><path d="M107.865,255L107.865,259.167C107.865,263.333,107.865,271.667,107.935,279.417C108.006,287.167,108.146,294.334,108.216,297.917L108.287,301.501" id="my-svg-L_node_2_node_3_0" class="edge-thickness-normal edge-pattern-solid edge-thickness-normal edge-pattern-solid flowchart-link" style=";" data-edge="true" data-et="edge" data-id="L_node_2_node_3_0" data-points="W3sieCI6MTA3Ljg2NDk4MjYwNDk4MDQ3LCJ5IjoyNTV9LHsieCI6MTA3Ljg2NDk4MjYwNDk4MDQ3LCJ5IjoyODB9LHsieCI6MTA4LjM2NDk4MjYwNDk4MDQ3LCJ5IjozMDUuNX1d" data-look="classic" marker-end="url(#my-svg_flowchart-v2-pointEnd)"/></g><g class="edgeLabels"><g class="edgeLabel"><g class="label" data-id="L_start_node_1_0" transform="translate(0, 0)"><foreignObject width="0" height="0"><div xmlns="http://www.w3.org/1999/xhtml" class="labelBkg" style="display: table-cell; white-space: nowrap; line-height: 1.5; max-width: 200px; text-align: center;"><span class="edgeLabel"></span></div></foreignObject></g></g><g class="edgeLabel"><g class="label" data-id="L_node_1_node_2_0" transform="translate(0, 0)"><foreignObject width="0" height="0"><div xmlns="http://www.w3.org/1999/xhtml" class="labelBkg" style="display: table-cell; white-space: nowrap; line-height: 1.5; max-width: 200px; text-align: center;"><span class="edgeLabel"></span></div></foreignObject></g></g><g class="edgeLabel"><g class="label" data-id="L_node_2_node_3_0" transform="translate(0, 0)"><foreignObject width="0" height="0"><div xmlns="http://www.w3.org/1999/xhtml" class="labelBkg" style="display: table-cell; white-space: nowrap; line-height: 1.5; max-width: 200px; text-align: center;"><span class="edgeLabel"></span></div></foreignObject></g></g></g><g class="nodes"><g class="node default" id="my-svg-flowchart-start-0" data-look="classic" transform="translate(107.86498260498047, 27.5)"><g class="basic label-container outer-path"><path d="M-80.375 -19.5 C-20.31681289063979 -19.5, 39.74137421872042 -19.5, 80.375 -19.5 C80.375 -19.5, 80.375 -19.5, 80.375 -19.5 C80.68710501972977 -19.489991399492833, 80.99921003945954 -19.479982798985667, 81.6243692896239 -19.45993515863156 C81.91658692731961 -19.431745274566183, 82.20880456501531 -19.403555390500802, 82.86860465284786 -19.3399052695533 C83.1524090149286 -19.294021981227786, 83.43621337700931 -19.248138692902273, 84.10259325967675 -19.140403561325776 C84.53774539033773 -19.041082927135434, 84.97289752099873 -18.941762292945096, 85.32126438623538 -18.862249829261074 C85.65942634357147 -18.76188513537206, 85.99758830090755 -18.66152044148305, 86.5196102514606 -18.50658706670804 C86.90119439411235 -18.366160574887047, 87.2827785367641 -18.225734083066058, 87.6927065951478 -18.074876768247425 C88.02448261714045 -17.928009365097292, 88.35625863913309 -17.78114196194716, 88.83573291279238 -17.568892924097174 C89.10652898124269 -17.42761878863981, 89.377325049693 -17.28634465318244, 89.94399226407678 -16.990714730406097 C90.34174868704434 -16.74959244932696, 90.7395051100119 -16.50847016824783, 91.0129305736057 -16.342718045390892 C91.2291675992804 -16.191880457030198, 91.44540462495509 -16.041042868669503, 92.03815534457871 -15.627565626425154 C92.27169018023565 -15.441327809611714, 92.5052250158926 -15.255089992798275, 93.01545370850187 -14.848196188198123 C93.2564186999449 -14.629358158553858, 93.49738369138795 -14.410520128909594, 93.94080973676799 -14.007812326905688 C94.11908128850624 -13.823732313369351, 94.29735284024449 -13.639652299833015, 94.81042094296865 -13.10986736009568 C95.04847877982094 -12.830231079054327, 95.28653661667322 -12.550594798012975, 95.62071390812658 -12.158051136245305 C95.82284471377463 -11.887214271172127, 96.02497551942268 -11.616377406098948, 96.36835896464063 -11.156274872382312 C96.52001804652663 -10.923285796439739, 96.67167712841263 -10.690296720497168, 97.05028387860425 -10.108655082055241 C97.21321047499183 -9.819362412062231, 97.37613707137939 -9.530069742069223, 97.6636864742735 -9.019496659696287 C97.84681581011098 -8.639224675489682, 98.02994514594846 -8.25895269128308, 98.20604614880834 -7.893275190886684 C98.34525617611845 -7.549423731987911, 98.48446620342858 -7.205572273089137, 98.67513422997033 -6.734618561215508 C98.82700288339598 -6.277214374081344, 98.97887153682164 -5.81981018694718, 99.06902313421489 -5.548287939305138 C99.16258592869008 -5.191492453599597, 99.25614872316527 -4.8346969678940575, 99.38609428754556 -4.339158212148133 C99.44646738488044 -4.029155117192193, 99.50684048221531 -3.7191520222362526, 99.62504477658177 -3.1121979531509023 C99.6588012500247 -2.8503894110972476, 99.69255772346762 -2.5885808690435925, 99.78489270250937 -1.872449005199798 C99.81370804561034 -1.4236267770758093, 99.84252338871131 -0.9748045489518207, 99.86498121591342 -0.6250057626472757 C99.86498121591342 -0.21682218244412144, 99.86498121591342 0.19136139775903283, 99.86498121591342 0.625005762647271 C99.84498325617231 0.9364901276774786, 99.82498529643121 1.2479744927076861, 99.78489270250937 1.8724490051997846 C99.73806839524222 2.235609085858412, 99.69124408797508 2.59876916651704, 99.62504477658177 3.1121979531508885 C99.5725516142122 3.381739247484883, 99.52005845184262 3.651280541818877, 99.38609428754556 4.339158212148129 C99.31640862433797 4.604899847916167, 99.24672296113037 4.870641483684206, 99.06902313421489 5.548287939305125 C98.95849140275912 5.881191903610084, 98.84795967130336 6.214095867915042, 98.67513422997033 6.734618561215495 C98.49938327350716 7.1687268215931, 98.323632317044 7.602835081970705, 98.20604614880834 7.893275190886679 C98.0543716289569 8.208230576673026, 97.90269710910546 8.523185962459372, 97.6636864742735 9.019496659696284 C97.53019309665873 9.256527669321589, 97.39669971904397 9.493558678946894, 97.05028387860425 10.108655082055236 C96.81923859844775 10.46360267672036, 96.58819331829126 10.818550271385483, 96.36835896464065 11.156274872382301 C96.1149294804328 11.495847293319835, 95.86149999622496 11.835419714257368, 95.62071390812659 12.158051136245302 C95.39098934434098 12.427898680565859, 95.16126478055537 12.697746224886416, 94.81042094296866 13.10986736009567 C94.57530345942122 13.3526454653628, 94.34018597587378 13.59542357062993, 93.94080973676799 14.007812326905684 C93.74579758780114 14.184917200858667, 93.55078543883428 14.362022074811648, 93.0154537085019 14.848196188198111 C92.72757038179432 15.077775480350336, 92.43968705508675 15.307354772502563, 92.03815534457871 15.627565626425152 C91.80001892945776 15.79367928085426, 91.56188251433683 15.95979293528337, 91.0129305736057 16.34271804539089 C90.72492033216894 16.517311546285903, 90.43691009073217 16.691905047180917, 89.94399226407678 16.990714730406093 C89.52027662690202 17.211766906917347, 89.09656098972727 17.432819083428598, 88.83573291279238 17.56889292409717 C88.43322150477759 17.74707278434863, 88.0307100967628 17.925252644600093, 87.6927065951478 18.07487676824742 C87.25105790143759 18.23740757008855, 86.80940920772737 18.399938371929682, 86.51961025146062 18.506587066708033 C86.11954475124364 18.625324407185772, 85.71947925102666 18.74406174766351, 85.32126438623541 18.86224982926107 C84.87554945417561 18.963981353941968, 84.42983452211583 19.065712878622865, 84.10259325967677 19.140403561325773 C83.7491963094265 19.197538039607956, 83.39579935917622 19.25467251789014, 82.86860465284788 19.3399052695533 C82.42805495029897 19.382404569519657, 81.98750524775006 19.424903869486013, 81.6243692896239 19.45993515863156 C81.18613110307551 19.473988604295283, 80.74789291652712 19.488042049959006, 80.375 19.5 C80.375 19.5, 80.375 19.5, 80.375 19.5 C35.27205467162731 19.5, -9.830890656745382 19.5, -80.375 19.5 C-80.79597703750564 19.486500085789288, -81.21695407501127 19.47300017157858, -81.6243692896239 19.45993515863156 C-82.07001027148294 19.416944709073313, -82.51565125334199 19.373954259515063, -82.86860465284786 19.3399052695533 C-83.1952510089346 19.287095619881516, -83.52189736502136 19.234285970209736, -84.10259325967675 19.140403561325773 C-84.49046025739098 19.051875450166204, -84.8783272551052 18.96334733900663, -85.32126438623538 18.862249829261074 C-85.6105823627588 18.77638177248997, -85.89990033928224 18.69051371571887, -86.51961025146059 18.506587066708043 C-86.96355404603902 18.34321164653173, -87.40749784061744 18.17983622635542, -87.6927065951478 18.074876768247425 C-87.94312430941466 17.96402427451905, -88.19354202368152 17.853171780790674, -88.83573291279238 17.568892924097174 C-89.22154537624621 17.36761480903799, -89.60735783970004 17.1663366939788, -89.94399226407678 16.990714730406097 C-90.23203337444482 16.816102516583534, -90.52007448481287 16.64149030276097, -91.01293057360569 16.3427180453909 C-91.26091141248267 16.169737347107816, -91.50889225135965 15.996756648824734, -92.03815534457871 15.627565626425156 C-92.405409443298 15.334690255738536, -92.77266354201727 15.041814885051918, -93.01545370850187 14.848196188198125 C-93.26390629144058 14.622558126068302, -93.51235887437929 14.39692006393848, -93.94080973676797 14.007812326905697 C-94.19023100503891 13.750264389548997, -94.43965227330985 13.492716452192296, -94.81042094296865 13.109867360095677 C-94.98543911097082 12.904281061144445, -95.160457278973 12.698694762193213, -95.62071390812658 12.158051136245307 C-95.8170935947191 11.894920246768828, -96.0134732813116 11.63178935729235, -96.36835896464063 11.156274872382316 C-96.5463162289735 10.882884726150587, -96.72427349330636 10.60949457991886, -97.05028387860425 10.108655082055249 C-97.292445838516 9.678672000674466, -97.53460779842776 9.24868891929368, -97.6636864742735 9.019496659696289 C-97.81213577053371 8.711238519705864, -97.96058506679391 8.40298037971544, -98.20604614880834 7.893275190886686 C-98.39018560387392 7.4384471767805325, -98.5743250589395 6.98361916267438, -98.67513422997033 6.73461856121551 C-98.7620125078206 6.472955030504239, -98.84889078567089 6.211291499792969, -99.06902313421489 5.5482879393051325 C-99.17410742786916 5.147555983780425, -99.27919172152343 4.746824028255717, -99.38609428754556 4.339158212148136 C-99.46273684550077 3.9456148754584777, -99.53937940345598 3.55207153876882, -99.62504477658177 3.112197953150904 C-99.68581335931647 2.640888825574605, -99.74658194205117 2.169579697998306, -99.78489270250937 1.872449005199809 C-99.81232172326146 1.4452198666788632, -99.83975074401356 1.0179907281579172, -99.86498121591342 0.6250057626472781 C-99.86498121591342 0.30811204444222523, -99.86498121591342 -0.00878167376282768, -99.86498121591342 -0.6250057626472687 C-99.84166890576354 -0.9881138105895847, -99.81835659561368 -1.3512218585319007, -99.78489270250937 -1.8724490051997822 C-99.7510535757723 -2.1348985898810766, -99.71721444903524 -2.3973481745623713, -99.62504477658177 -3.112197953150895 C-99.53780777580877 -3.560141514573613, -99.45057077503577 -4.0080850759963305, -99.38609428754556 -4.339158212148126 C-99.27817039557087 -4.7507187867582825, -99.17024650359619 -5.162279361368439, -99.06902313421489 -5.548287939305123 C-98.96195887765776 -5.870748421682445, -98.85489462110066 -6.193208904059768, -98.67513422997033 -6.734618561215485 C-98.56613737676464 -7.003842895944304, -98.45714052355898 -7.273067230673123, -98.20604614880834 -7.893275190886676 C-98.06050320526437 -8.19549822727587, -97.91496026172038 -8.497721263665063, -97.6636864742735 -9.019496659696282 C-97.45505724320503 -9.389938985458834, -97.24642801213655 -9.760381311221385, -97.05028387860425 -10.108655082055243 C-96.88073003224686 -10.369135321642952, -96.71117618588949 -10.629615561230661, -96.36835896464063 -11.156274872382308 C-96.21727395631305 -11.35871501941387, -96.06618894798545 -11.561155166445431, -95.62071390812659 -12.158051136245302 C-95.3408070719282 -12.486845633194115, -95.06090023572979 -12.815640130142928, -94.81042094296866 -13.10986736009567 C-94.62829064081231 -13.297931850247995, -94.44616033865597 -13.48599634040032, -93.94080973676799 -14.007812326905677 C-93.61733599375101 -14.301582621667452, -93.29386225073405 -14.595352916429228, -93.0154537085019 -14.848196188198107 C-92.77583051872365 -15.039289305405374, -92.53620732894541 -15.230382422612639, -92.03815534457871 -15.627565626425149 C-91.76519698162447 -15.81796956424494, -91.49223861867023 -16.00837350206473, -91.01293057360571 -16.342718045390885 C-90.66583883583331 -16.55312709656597, -90.31874709806092 -16.763536147741053, -89.94399226407678 -16.99071473040609 C-89.53122128652032 -17.206057085004872, -89.11845030896386 -17.421399439603654, -88.8357329127924 -17.56889292409717 C-88.52903428099876 -17.70465931050055, -88.22233564920514 -17.840425696903928, -87.69270659514781 -18.07487676824742 C-87.2743763211718 -18.228826176073255, -86.85604604719578 -18.38277558389909, -86.51961025146062 -18.506587066708033 C-86.27655688581847 -18.578724029817472, -86.03350352017631 -18.650860992926916, -85.32126438623541 -18.862249829261067 C-84.84030366448503 -18.97202597543857, -84.35934294273466 -19.08180212161607, -84.10259325967677 -19.140403561325773 C-83.82586948925976 -19.185142114501904, -83.54914571884275 -19.229880667678035, -82.86860465284788 -19.3399052695533 C-82.48174955552086 -19.37722471553111, -82.09489445819386 -19.41454416150892, -81.6243692896239 -19.45993515863156 C-81.13823381938606 -19.475524576956797, -80.65209834914822 -19.491113995282035, -80.375 -19.5 C-80.375 -19.5, -80.375 -19.5, -80.375 -19.5" stroke="none" stroke-width="0" fill="#ECECFF" style=""/><path d="M-80.375 -19.5 C-35.41738429271164 -19.5, 9.540231414576724 -19.5, 80.375 -19.5 M-80.375 -19.5 C-34.074685184420474 -19.5, 12.225629631159052 -19.5, 80.375 -19.5 M80.375 -19.5 C80.375 -19.5, 80.375 -19.5, 80.375 -19.5 M80.375 -19.5 C80.375 -19.5, 80.375 -19.5, 80.375 -19.5 M80.375 -19.5 C80.79986700998931 -19.48637534194311, 81.22473401997863 -19.47275068388622, 81.6243692896239 -19.45993515863156 M80.375 -19.5 C80.80322560953329 -19.486267638192853, 81.23145121906659 -19.472535276385702, 81.6243692896239 -19.45993515863156 M81.6243692896239 -19.45993515863156 C81.98734226951734 -19.424919591800116, 82.35031524941078 -19.38990402496867, 82.86860465284786 -19.3399052695533 M81.6243692896239 -19.45993515863156 C81.87799112368948 -19.435468565324133, 82.13161295775507 -19.41100197201671, 82.86860465284786 -19.3399052695533 M82.86860465284786 -19.3399052695533 C83.12942823742833 -19.297737335115436, 83.39025182200879 -19.255569400677576, 84.10259325967675 -19.140403561325776 M82.86860465284786 -19.3399052695533 C83.22195380758049 -19.28277851847975, 83.57530296231312 -19.2256517674062, 84.10259325967675 -19.140403561325776 M84.10259325967675 -19.140403561325776 C84.54576707839088 -19.039252029183714, 84.988940897105 -18.938100497041653, 85.32126438623538 -18.862249829261074 M84.10259325967675 -19.140403561325776 C84.39033220467496 -19.07472902480203, 84.67807114967317 -19.00905448827828, 85.32126438623538 -18.862249829261074 M85.32126438623538 -18.862249829261074 C85.68590630371524 -18.754026022197536, 86.0505482211951 -18.645802215133997, 86.5196102514606 -18.50658706670804 M85.32126438623538 -18.862249829261074 C85.67360559738403 -18.75767680726892, 86.02594680853265 -18.653103785276762, 86.5196102514606 -18.50658706670804 M86.5196102514606 -18.50658706670804 C86.79937761670458 -18.403630090157083, 87.07914498194855 -18.30067311360613, 87.6927065951478 -18.074876768247425 M86.5196102514606 -18.50658706670804 C86.92826316711552 -18.356199016200893, 87.33691608277041 -18.205810965693743, 87.6927065951478 -18.074876768247425 M87.6927065951478 -18.074876768247425 C87.94095860055903 -17.964982969585968, 88.18921060597025 -17.855089170924508, 88.83573291279238 -17.568892924097174 M87.6927065951478 -18.074876768247425 C87.97691640714106 -17.949065515262532, 88.26112621913433 -17.82325426227764, 88.83573291279238 -17.568892924097174 M88.83573291279238 -17.568892924097174 C89.12796417638238 -17.416436061065326, 89.42019543997239 -17.263979198033482, 89.94399226407678 -16.990714730406097 M88.83573291279238 -17.568892924097174 C89.1680951606688 -17.395499752268226, 89.50045740854523 -17.222106580439277, 89.94399226407678 -16.990714730406097 M89.94399226407678 -16.990714730406097 C90.31399701715797 -16.766415674698997, 90.68400177023916 -16.5421166189919, 91.0129305736057 -16.342718045390892 M89.94399226407678 -16.990714730406097 C90.25267680273959 -16.803588349037, 90.56136134140239 -16.616461967667906, 91.0129305736057 -16.342718045390892 M91.0129305736057 -16.342718045390892 C91.34290206863731 -16.11254421469264, 91.67287356366892 -15.88237038399439, 92.03815534457871 -15.627565626425154 M91.0129305736057 -16.342718045390892 C91.22530290408311 -16.194576301099865, 91.43767523456052 -16.046434556808837, 92.03815534457871 -15.627565626425154 M92.03815534457871 -15.627565626425154 C92.40246837745201 -15.33703567748566, 92.7667814103253 -15.046505728546167, 93.01545370850187 -14.848196188198123 M92.03815534457871 -15.627565626425154 C92.40181072056893 -15.337560141348929, 92.76546609655915 -15.047554656272705, 93.01545370850187 -14.848196188198123 M93.01545370850187 -14.848196188198123 C93.27190936083963 -14.6152899501897, 93.52836501317739 -14.382383712181275, 93.94080973676799 -14.007812326905688 M93.01545370850187 -14.848196188198123 C93.23634895635244 -14.647584968668218, 93.45724420420302 -14.446973749138312, 93.94080973676799 -14.007812326905688 M93.94080973676799 -14.007812326905688 C94.17504802599227 -13.765942061960413, 94.40928631521656 -13.524071797015138, 94.81042094296865 -13.10986736009568 M93.94080973676799 -14.007812326905688 C94.24108000015902 -13.69775862730735, 94.54135026355004 -13.38770492770901, 94.81042094296865 -13.10986736009568 M94.81042094296865 -13.10986736009568 C95.11569633278974 -12.751273516550054, 95.42097172261083 -12.392679673004427, 95.62071390812658 -12.158051136245305 M94.81042094296865 -13.10986736009568 C95.05661811061513 -12.820670157962416, 95.30281527826163 -12.53147295582915, 95.62071390812658 -12.158051136245305 M95.62071390812658 -12.158051136245305 C95.77167424095725 -11.95577804302144, 95.92263457378793 -11.753504949797573, 96.36835896464063 -11.156274872382312 M95.62071390812658 -12.158051136245305 C95.86248252508187 -11.834103215099312, 96.10425114203719 -11.51015529395332, 96.36835896464063 -11.156274872382312 M96.36835896464063 -11.156274872382312 C96.63960541299534 -10.739567487839572, 96.91085186135003 -10.322860103296833, 97.05028387860425 -10.108655082055241 M96.36835896464063 -11.156274872382312 C96.57418808142405 -10.840066076146204, 96.78001719820746 -10.523857279910095, 97.05028387860425 -10.108655082055241 M97.05028387860425 -10.108655082055241 C97.20989058568367 -9.825257211704091, 97.3694972927631 -9.541859341352943, 97.6636864742735 -9.019496659696287 M97.05028387860425 -10.108655082055241 C97.23939063554339 -9.772876885974199, 97.42849739248253 -9.437098689893157, 97.6636864742735 -9.019496659696287 M97.6636864742735 -9.019496659696287 C97.82608759856318 -8.682267250281374, 97.98848872285285 -8.34503784086646, 98.20604614880834 -7.893275190886684 M97.6636864742735 -9.019496659696287 C97.82541036694627 -8.683673536224319, 97.98713425961904 -8.34785041275235, 98.20604614880834 -7.893275190886684 M98.20604614880834 -7.893275190886684 C98.30353199169424 -7.652483274197956, 98.40101783458014 -7.411691357509228, 98.67513422997033 -6.734618561215508 M98.20604614880834 -7.893275190886684 C98.34123097065013 -7.559366067316754, 98.4764157924919 -7.225456943746822, 98.67513422997033 -6.734618561215508 M98.67513422997033 -6.734618561215508 C98.79174832263959 -6.383395494028162, 98.90836241530884 -6.032172426840814, 99.06902313421489 -5.548287939305138 M98.67513422997033 -6.734618561215508 C98.75849128232521 -6.483560400665283, 98.8418483346801 -6.232502240115057, 99.06902313421489 -5.548287939305138 M99.06902313421489 -5.548287939305138 C99.14334155708433 -5.264879583095744, 99.21765997995377 -4.98147122688635, 99.38609428754556 -4.339158212148133 M99.06902313421489 -5.548287939305138 C99.18643894101669 -5.100530579637264, 99.3038547478185 -4.652773219969391, 99.38609428754556 -4.339158212148133 M99.38609428754556 -4.339158212148133 C99.46814967051193 -3.9178211630271216, 99.55020505347831 -3.49648411390611, 99.62504477658177 -3.1121979531509023 M99.38609428754556 -4.339158212148133 C99.45869230700454 -3.966382725823108, 99.53129032646352 -3.5936072394980827, 99.62504477658177 -3.1121979531509023 M99.62504477658177 -3.1121979531509023 C99.67254196258844 -2.7438191578634896, 99.7200391485951 -2.3754403625760765, 99.78489270250937 -1.872449005199798 M99.62504477658177 -3.1121979531509023 C99.66849087960544 -2.7752385575027816, 99.71193698262911 -2.438279161854661, 99.78489270250937 -1.872449005199798 M99.78489270250937 -1.872449005199798 C99.8135992999576 -1.4253205783952376, 99.84230589740582 -0.9781921515906773, 99.86498121591342 -0.6250057626472757 M99.78489270250937 -1.872449005199798 C99.81473205558774 -1.4076769951119028, 99.84457140866611 -0.9429049850240078, 99.86498121591342 -0.6250057626472757 M99.86498121591342 -0.6250057626472757 C99.86498121591342 -0.2277716771911928, 99.86498121591342 0.16946240826489012, 99.86498121591342 0.625005762647271 M99.86498121591342 -0.6250057626472757 C99.86498121591342 -0.20587420925700345, 99.86498121591342 0.2132573441332688, 99.86498121591342 0.625005762647271 M99.86498121591342 0.625005762647271 C99.8434234791692 0.9607849135303025, 99.82186574242499 1.2965640644133338, 99.78489270250937 1.8724490051997846 M99.86498121591342 0.625005762647271 C99.83574547667999 1.0803759998719036, 99.80650973744656 1.5357462370965362, 99.78489270250937 1.8724490051997846 M99.78489270250937 1.8724490051997846 C99.75114267090878 2.1342075855963794, 99.71739263930819 2.3959661659929736, 99.62504477658177 3.1121979531508885 M99.78489270250937 1.8724490051997846 C99.731867886323 2.2836990086068822, 99.67884307013665 2.6949490120139794, 99.62504477658177 3.1121979531508885 M99.62504477658177 3.1121979531508885 C99.53760887823158 3.561162811595466, 99.45017297988139 4.010127670040043, 99.38609428754556 4.339158212148129 M99.62504477658177 3.1121979531508885 C99.5483636346589 3.5059394103598076, 99.47168249273601 3.899680867568727, 99.38609428754556 4.339158212148129 M99.38609428754556 4.339158212148129 C99.30244269963961 4.658157971661062, 99.21879111173365 4.977157731173994, 99.06902313421489 5.548287939305125 M99.38609428754556 4.339158212148129 C99.2592776763047 4.822764913476523, 99.13246106506384 5.306371614804917, 99.06902313421489 5.548287939305125 M99.06902313421489 5.548287939305125 C98.96230326668726 5.869711176796554, 98.85558339915964 6.1911344142879825, 98.67513422997033 6.734618561215495 M99.06902313421489 5.548287939305125 C98.96011749295195 5.876294379031545, 98.85121185168903 6.204300818757965, 98.67513422997033 6.734618561215495 M98.67513422997033 6.734618561215495 C98.52572547736666 7.103661068768245, 98.37631672476302 7.4727035763209955, 98.20604614880834 7.893275190886679 M98.67513422997033 6.734618561215495 C98.53085664666985 7.090986981384973, 98.38657906336938 7.447355401554453, 98.20604614880834 7.893275190886679 M98.20604614880834 7.893275190886679 C98.01939186852617 8.280866797654431, 97.83273758824399 8.668458404422184, 97.6636864742735 9.019496659696284 M98.20604614880834 7.893275190886679 C98.05649638355521 8.203818478287172, 97.90694661830209 8.514361765687665, 97.6636864742735 9.019496659696284 M97.6636864742735 9.019496659696284 C97.42738640231748 9.43907136543115, 97.19108633036146 9.858646071166017, 97.05028387860425 10.108655082055236 M97.6636864742735 9.019496659696284 C97.47880935951248 9.347764697792366, 97.29393224475146 9.676032735888448, 97.05028387860425 10.108655082055236 M97.05028387860425 10.108655082055236 C96.89745053643252 10.343448137129752, 96.74461719426077 10.578241192204269, 96.36835896464065 11.156274872382301 M97.05028387860425 10.108655082055236 C96.8383540463276 10.43423621556045, 96.62642421405094 10.759817349065663, 96.36835896464065 11.156274872382301 M96.36835896464065 11.156274872382301 C96.14641581487427 11.453658473632343, 95.9244726651079 11.751042074882387, 95.62071390812659 12.158051136245302 M96.36835896464065 11.156274872382301 C96.16206119692669 11.432695087005737, 95.95576342921274 11.709115301629172, 95.62071390812659 12.158051136245302 M95.62071390812659 12.158051136245302 C95.37250311428676 12.449613658283836, 95.12429232044694 12.74117618032237, 94.81042094296866 13.10986736009567 M95.62071390812659 12.158051136245302 C95.33943513542589 12.488457187875127, 95.05815636272517 12.818863239504951, 94.81042094296866 13.10986736009567 M94.81042094296866 13.10986736009567 C94.48979744248105 13.440937448028071, 94.16917394199344 13.772007535960473, 93.94080973676799 14.007812326905684 M94.81042094296866 13.10986736009567 C94.62574061424034 13.30056496204463, 94.44106028551202 13.49126256399359, 93.94080973676799 14.007812326905684 M93.94080973676799 14.007812326905684 C93.7380687012526 14.191936371126916, 93.53532766573721 14.376060415348146, 93.0154537085019 14.848196188198111 M93.94080973676799 14.007812326905684 C93.6860183268204 14.23920714400879, 93.43122691687283 14.470601961111894, 93.0154537085019 14.848196188198111 M93.0154537085019 14.848196188198111 C92.80526493894777 15.015816138559455, 92.59507616939366 15.183436088920798, 92.03815534457871 15.627565626425152 M93.0154537085019 14.848196188198111 C92.78505293202717 15.031934676214547, 92.55465215555245 15.215673164230983, 92.03815534457871 15.627565626425152 M92.03815534457871 15.627565626425152 C91.65248769163227 15.896590685836971, 91.26682003868584 16.16561574524879, 91.0129305736057 16.34271804539089 M92.03815534457871 15.627565626425152 C91.6584151148509 15.892455971993673, 91.2786748851231 16.157346317562194, 91.0129305736057 16.34271804539089 M91.0129305736057 16.34271804539089 C90.60566299444834 16.589606045246036, 90.19839541529097 16.836494045101183, 89.94399226407678 16.990714730406093 M91.0129305736057 16.34271804539089 C90.59309261578079 16.59722628266605, 90.17325465795588 16.85173451994121, 89.94399226407678 16.990714730406093 M89.94399226407678 16.990714730406093 C89.71310346980856 17.11116926648449, 89.48221467554035 17.23162380256289, 88.83573291279238 17.56889292409717 M89.94399226407678 16.990714730406093 C89.55602004317471 17.19311958954264, 89.16804782227263 17.395524448679183, 88.83573291279238 17.56889292409717 M88.83573291279238 17.56889292409717 C88.58030867132646 17.68196165890322, 88.32488442986053 17.795030393709265, 87.6927065951478 18.07487676824742 M88.83573291279238 17.56889292409717 C88.45137260579101 17.73903783036327, 88.06701229878965 17.90918273662937, 87.6927065951478 18.07487676824742 M87.6927065951478 18.07487676824742 C87.27331564684079 18.22921651403183, 86.85392469853377 18.38355625981624, 86.51961025146062 18.506587066708033 M87.6927065951478 18.07487676824742 C87.38259852733239 18.188999403811042, 87.072490459517 18.303122039374667, 86.51961025146062 18.506587066708033 M86.51961025146062 18.506587066708033 C86.26232490218003 18.582948007856157, 86.00503955289942 18.65930894900428, 85.32126438623541 18.86224982926107 M86.51961025146062 18.506587066708033 C86.20088621999585 18.601182686230196, 85.88216218853108 18.69577830575236, 85.32126438623541 18.86224982926107 M85.32126438623541 18.86224982926107 C84.97974972644244 18.94019832176739, 84.63823506664946 19.01814681427371, 84.10259325967677 19.140403561325773 M85.32126438623541 18.86224982926107 C85.03562919999442 18.927444196576793, 84.74999401375342 18.992638563892513, 84.10259325967677 19.140403561325773 M84.10259325967677 19.140403561325773 C83.62325525068101 19.217899213298427, 83.14391724168527 19.29539486527108, 82.86860465284788 19.3399052695533 M84.10259325967677 19.140403561325773 C83.78755231771518 19.19133693764313, 83.4725113757536 19.242270313960482, 82.86860465284788 19.3399052695533 M82.86860465284788 19.3399052695533 C82.59516172494574 19.366283979944782, 82.32171879704362 19.392662690336266, 81.6243692896239 19.45993515863156 M82.86860465284788 19.3399052695533 C82.53547561206608 19.37204182747123, 82.20234657128428 19.404178385389162, 81.6243692896239 19.45993515863156 M81.6243692896239 19.45993515863156 C81.18954504191642 19.473879125921485, 80.75472079420894 19.487823093211407, 80.375 19.5 M81.6243692896239 19.45993515863156 C81.30782416902883 19.470086144531344, 80.99127904843378 19.480237130431128, 80.375 19.5 M80.375 19.5 C80.375 19.5, 80.375 19.5, 80.375 19.5 M80.375 19.5 C80.375 19.5, 80.375 19.5, 80.375 19.5 M80.375 19.5 C28.978850513966876 19.5, -22.41729897206625 19.5, -80.375 19.5 M80.375 19.5 C16.8395466322672 19.5, -46.6959067354656 19.5, -80.375 19.5 M-80.375 19.5 C-80.63987073061965 19.49150611120863, -80.90474146123931 19.48301222241726, -81.6243692896239 19.45993515863156 M-80.375 19.5 C-80.70974241708772 19.489265462220587, -81.04448483417546 19.47853092444117, -81.6243692896239 19.45993515863156 M-81.6243692896239 19.45993515863156 C-81.95203860810234 19.428325293557954, -82.27970792658077 19.396715428484352, -82.86860465284786 19.3399052695533 M-81.6243692896239 19.45993515863156 C-82.01708261527334 19.42205057641303, -82.40979594092278 19.384165994194504, -82.86860465284786 19.3399052695533 M-82.86860465284786 19.3399052695533 C-83.22936175091263 19.281580859651267, -83.5901188489774 19.223256449749236, -84.10259325967675 19.140403561325773 M-82.86860465284786 19.3399052695533 C-83.18787274251427 19.288288480777048, -83.50714083218068 19.236671692000797, -84.10259325967675 19.140403561325773 M-84.10259325967675 19.140403561325773 C-84.34662842572249 19.08470412715412, -84.59066359176822 19.029004692982465, -85.32126438623538 18.862249829261074 M-84.10259325967675 19.140403561325773 C-84.48905746620079 19.05219562810129, -84.87552167272484 18.963987694876813, -85.32126438623538 18.862249829261074 M-85.32126438623538 18.862249829261074 C-85.73334323109714 18.739946991152102, -86.14542207595889 18.617644153043134, -86.51961025146059 18.506587066708043 M-85.32126438623538 18.862249829261074 C-85.62547517015089 18.77196166542994, -85.9296859540664 18.681673501598812, -86.51961025146059 18.506587066708043 M-86.51961025146059 18.506587066708043 C-86.85924329698886 18.381598966420185, -87.19887634251712 18.256610866132323, -87.6927065951478 18.074876768247425 M-86.51961025146059 18.506587066708043 C-86.77390303975866 18.413004969957584, -87.02819582805674 18.319422873207127, -87.6927065951478 18.074876768247425 M-87.6927065951478 18.074876768247425 C-87.99105818796941 17.942805368390847, -88.28940978079103 17.810733968534265, -88.83573291279238 17.568892924097174 M-87.6927065951478 18.074876768247425 C-87.9927507864262 17.942056105263173, -88.29279497770462 17.80923544227892, -88.83573291279238 17.568892924097174 M-88.83573291279238 17.568892924097174 C-89.06103389604063 17.45135354544873, -89.28633487928889 17.333814166800284, -89.94399226407678 16.990714730406097 M-88.83573291279238 17.568892924097174 C-89.2681184198115 17.343317682041437, -89.70050392683062 17.117742439985697, -89.94399226407678 16.990714730406097 M-89.94399226407678 16.990714730406097 C-90.27164034038904 16.792092541071785, -90.5992884167013 16.593470351737473, -91.01293057360569 16.3427180453909 M-89.94399226407678 16.990714730406097 C-90.26006524523628 16.799109431776202, -90.57613822639576 16.607504133146307, -91.01293057360569 16.3427180453909 M-91.01293057360569 16.3427180453909 C-91.38378957981962 16.084022856883696, -91.75464858603354 15.825327668376488, -92.03815534457871 15.627565626425156 M-91.01293057360569 16.3427180453909 C-91.27597330579371 16.15923082235289, -91.53901603798172 15.975743599314876, -92.03815534457871 15.627565626425156 M-92.03815534457871 15.627565626425156 C-92.34475802546746 15.383058147456374, -92.6513607063562 15.138550668487595, -93.01545370850187 14.848196188198125 M-92.03815534457871 15.627565626425156 C-92.26397740681004 15.447478541173126, -92.48979946904136 15.267391455921096, -93.01545370850187 14.848196188198125 M-93.01545370850187 14.848196188198125 C-93.3257021775858 14.566436737300766, -93.63595064666973 14.284677286403408, -93.94080973676797 14.007812326905697 M-93.01545370850187 14.848196188198125 C-93.30563368828142 14.584662408303874, -93.59581366806097 14.321128628409621, -93.94080973676797 14.007812326905697 M-93.94080973676797 14.007812326905697 C-94.15645767502951 13.785138125625652, -94.37210561329107 13.562463924345606, -94.81042094296865 13.109867360095677 M-93.94080973676797 14.007812326905697 C-94.28496630544875 13.652442413963026, -94.62912287412952 13.297072501020354, -94.81042094296865 13.109867360095677 M-94.81042094296865 13.109867360095677 C-95.08900824326729 12.782622865098439, -95.36759554356593 12.455378370101199, -95.62071390812658 12.158051136245307 M-94.81042094296865 13.109867360095677 C-95.05520873812988 12.822325687079159, -95.29999653329112 12.53478401406264, -95.62071390812658 12.158051136245307 M-95.62071390812658 12.158051136245307 C-95.77386273594223 11.95284565911757, -95.92701156375789 11.747640181989832, -96.36835896464063 11.156274872382316 M-95.62071390812658 12.158051136245307 C-95.89553774314362 11.789812234288904, -96.17036157816065 11.421573332332501, -96.36835896464063 11.156274872382316 M-96.36835896464063 11.156274872382316 C-96.58816892542879 10.818587745372655, -96.80797888621693 10.480900618362993, -97.05028387860425 10.108655082055249 M-96.36835896464063 11.156274872382316 C-96.54741147719693 10.881202130764068, -96.72646398975323 10.60612938914582, -97.05028387860425 10.108655082055249 M-97.05028387860425 10.108655082055249 C-97.23367092886905 9.78303280435759, -97.41705797913386 9.457410526659935, -97.6636864742735 9.019496659696289 M-97.05028387860425 10.108655082055249 C-97.27845600045391 9.703512374778427, -97.50662812230357 9.298369667501603, -97.6636864742735 9.019496659696289 M-97.6636864742735 9.019496659696289 C-97.79428653281173 8.74830284374807, -97.92488659134995 8.47710902779985, -98.20604614880834 7.893275190886686 M-97.6636864742735 9.019496659696289 C-97.80656601289859 8.722804240608914, -97.94944555152368 8.426111821521541, -98.20604614880834 7.893275190886686 M-98.20604614880834 7.893275190886686 C-98.35457414309194 7.526408173412775, -98.50310213737555 7.1595411559388635, -98.67513422997033 6.73461856121551 M-98.20604614880834 7.893275190886686 C-98.37171057523774 7.484080854702288, -98.53737500166713 7.07488651851789, -98.67513422997033 6.73461856121551 M-98.67513422997033 6.73461856121551 C-98.81447868625823 6.314935260400447, -98.95382314254613 5.895251959585385, -99.06902313421489 5.5482879393051325 M-98.67513422997033 6.73461856121551 C-98.75635449807558 6.489996054374816, -98.83757476618084 6.245373547534123, -99.06902313421489 5.5482879393051325 M-99.06902313421489 5.5482879393051325 C-99.16239575645032 5.192217662770972, -99.25576837868574 4.836147386236812, -99.38609428754556 4.339158212148136 M-99.06902313421489 5.5482879393051325 C-99.14130403230044 5.272649548165517, -99.21358493038599 4.997011157025901, -99.38609428754556 4.339158212148136 M-99.38609428754556 4.339158212148136 C-99.47953978886143 3.8593353126048133, -99.57298529017731 3.3795124130614904, -99.62504477658177 3.112197953150904 M-99.38609428754556 4.339158212148136 C-99.44920205956596 4.0151131406557035, -99.51230983158636 3.691068069163272, -99.62504477658177 3.112197953150904 M-99.62504477658177 3.112197953150904 C-99.6788882736739 2.6945984223054475, -99.73273177076604 2.276998891459991, -99.78489270250937 1.872449005199809 M-99.62504477658177 3.112197953150904 C-99.66884619962687 2.7724827655824624, -99.71264762267197 2.4327675780140203, -99.78489270250937 1.872449005199809 M-99.78489270250937 1.872449005199809 C-99.80962220289258 1.4872670754376909, -99.83435170327581 1.1020851456755725, -99.86498121591342 0.6250057626472781 M-99.78489270250937 1.872449005199809 C-99.80528734585306 1.5547859728621, -99.82568198919674 1.2371229405243913, -99.86498121591342 0.6250057626472781 M-99.86498121591342 0.6250057626472781 C-99.86498121591342 0.2864726648977165, -99.86498121591342 -0.05206043285184514, -99.86498121591342 -0.6250057626472687 M-99.86498121591342 0.6250057626472781 C-99.86498121591342 0.24472661917493704, -99.86498121591342 -0.13555252429740405, -99.86498121591342 -0.6250057626472687 M-99.86498121591342 -0.6250057626472687 C-99.8418082963043 -0.985942690403363, -99.81863537669517 -1.3468796181594573, -99.78489270250937 -1.8724490051997822 M-99.86498121591342 -0.6250057626472687 C-99.84621805080087 -0.9172572046294872, -99.82745488568833 -1.2095086466117058, -99.78489270250937 -1.8724490051997822 M-99.78489270250937 -1.8724490051997822 C-99.72929315498237 -2.3036681164466257, -99.67369360745538 -2.734887227693469, -99.62504477658177 -3.112197953150895 M-99.78489270250937 -1.8724490051997822 C-99.72223765666263 -2.358389168148813, -99.65958261081589 -2.8443293310978435, -99.62504477658177 -3.112197953150895 M-99.62504477658177 -3.112197953150895 C-99.56099227819644 -3.441093994859246, -99.49693977981111 -3.769990036567597, -99.38609428754556 -4.339158212148126 M-99.62504477658177 -3.112197953150895 C-99.57568901863024 -3.365629338888881, -99.52633326067871 -3.619060724626867, -99.38609428754556 -4.339158212148126 M-99.38609428754556 -4.339158212148126 C-99.26307261951989 -4.80829315025821, -99.14005095149422 -5.277428088368294, -99.06902313421489 -5.548287939305123 M-99.38609428754556 -4.339158212148126 C-99.30070380570709 -4.664789127867139, -99.21531332386863 -4.990420043586151, -99.06902313421489 -5.548287939305123 M-99.06902313421489 -5.548287939305123 C-98.9702635143507 -5.845736179127505, -98.87150389448651 -6.143184418949888, -98.67513422997033 -6.734618561215485 M-99.06902313421489 -5.548287939305123 C-98.9638179603793 -5.865149160729812, -98.8586127865437 -6.182010382154503, -98.67513422997033 -6.734618561215485 M-98.67513422997033 -6.734618561215485 C-98.56391522430356 -7.009331655485609, -98.45269621863677 -7.284044749755735, -98.20604614880834 -7.893275190886676 M-98.67513422997033 -6.734618561215485 C-98.55663663261622 -7.027309917675317, -98.43813903526211 -7.32000127413515, -98.20604614880834 -7.893275190886676 M-98.20604614880834 -7.893275190886676 C-98.00236154498855 -8.316230628870837, -97.79867694116875 -8.739186066854996, -97.6636864742735 -9.019496659696282 M-98.20604614880834 -7.893275190886676 C-98.05593336000152 -8.204987608743181, -97.90582057119471 -8.516700026599688, -97.6636864742735 -9.019496659696282 M-97.6636864742735 -9.019496659696282 C-97.49142276772301 -9.325368314268491, -97.31915906117251 -9.6312399688407, -97.05028387860425 -10.108655082055243 M-97.6636864742735 -9.019496659696282 C-97.48685289787414 -9.333482580934659, -97.31001932147478 -9.647468502173036, -97.05028387860425 -10.108655082055243 M-97.05028387860425 -10.108655082055243 C-96.78759979637599 -10.512208372910544, -96.52491571414771 -10.915761663765846, -96.36835896464063 -11.156274872382308 M-97.05028387860425 -10.108655082055243 C-96.77815851563157 -10.526712715472806, -96.50603315265892 -10.944770348890367, -96.36835896464063 -11.156274872382308 M-96.36835896464063 -11.156274872382308 C-96.18281390762748 -11.404888345277508, -95.99726885061432 -11.653501818172709, -95.62071390812659 -12.158051136245302 M-96.36835896464063 -11.156274872382308 C-96.20569723662368 -11.374226769136769, -96.0430355086067 -11.59217866589123, -95.62071390812659 -12.158051136245302 M-95.62071390812659 -12.158051136245302 C-95.44568861350949 -12.363645806523937, -95.2706633188924 -12.569240476802575, -94.81042094296866 -13.10986736009567 M-95.62071390812659 -12.158051136245302 C-95.45678994706674 -12.350605548443818, -95.2928659860069 -12.543159960642335, -94.81042094296866 -13.10986736009567 M-94.81042094296866 -13.10986736009567 C-94.500375123131 -13.430015124313275, -94.19032930329332 -13.750162888530879, -93.94080973676799 -14.007812326905677 M-94.81042094296866 -13.10986736009567 C-94.55137668390827 -13.377351825504713, -94.2923324248479 -13.644836290913757, -93.94080973676799 -14.007812326905677 M-93.94080973676799 -14.007812326905677 C-93.62862357264574 -14.291331541168246, -93.31643740852347 -14.574850755430814, -93.0154537085019 -14.848196188198107 M-93.94080973676799 -14.007812326905677 C-93.74432780726332 -14.18625201665485, -93.54784587775863 -14.36469170640402, -93.0154537085019 -14.848196188198107 M-93.0154537085019 -14.848196188198107 C-92.6570530299497 -15.134011191900877, -92.29865235139751 -15.419826195603644, -92.03815534457871 -15.627565626425149 M-93.0154537085019 -14.848196188198107 C-92.6349985441469 -15.1515990574341, -92.2545433797919 -15.455001926670091, -92.03815534457871 -15.627565626425149 M-92.03815534457871 -15.627565626425149 C-91.63540650418547 -15.908505782767177, -91.23265766379222 -16.189445939109206, -91.01293057360571 -16.342718045390885 M-92.03815534457871 -15.627565626425149 C-91.73110240247385 -15.841752466729865, -91.424049460369 -16.05593930703458, -91.01293057360571 -16.342718045390885 M-91.01293057360571 -16.342718045390885 C-90.73063029755576 -16.513850131712932, -90.44833002150581 -16.68498221803498, -89.94399226407678 -16.99071473040609 M-91.01293057360571 -16.342718045390885 C-90.79743286587848 -16.47335402222023, -90.58193515815125 -16.603989999049578, -89.94399226407678 -16.99071473040609 M-89.94399226407678 -16.99071473040609 C-89.52664741330263 -17.20844327173284, -89.10930256252846 -17.42617181305959, -88.8357329127924 -17.56889292409717 M-89.94399226407678 -16.99071473040609 C-89.60095167730452 -17.169678784797195, -89.25791109053228 -17.3486428391883, -88.8357329127924 -17.56889292409717 M-88.8357329127924 -17.56889292409717 C-88.49971767487455 -17.717636902385514, -88.16370243695671 -17.86638088067386, -87.69270659514781 -18.07487676824742 M-88.8357329127924 -17.56889292409717 C-88.54073560359224 -17.699479482095814, -88.2457382943921 -17.830066040094458, -87.69270659514781 -18.07487676824742 M-87.69270659514781 -18.07487676824742 C-87.41364708023045 -18.17757324933489, -87.13458756531307 -18.280269730422358, -86.51961025146062 -18.506587066708033 M-87.69270659514781 -18.07487676824742 C-87.27397098852838 -18.228975342232886, -86.85523538190895 -18.383073916218354, -86.51961025146062 -18.506587066708033 M-86.51961025146062 -18.506587066708033 C-86.24935474901618 -18.586797481233464, -85.97909924657174 -18.667007895758893, -85.32126438623541 -18.862249829261067 M-86.51961025146062 -18.506587066708033 C-86.19488352117217 -18.602964255732253, -85.87015679088373 -18.699341444756474, -85.32126438623541 -18.862249829261067 M-85.32126438623541 -18.862249829261067 C-84.91780649577042 -18.95433645995092, -84.51434860530541 -19.046423090640772, -84.10259325967677 -19.140403561325773 M-85.32126438623541 -18.862249829261067 C-84.94416300312388 -18.948320759139776, -84.56706162001235 -19.03439168901848, -84.10259325967677 -19.140403561325773 M-84.10259325967677 -19.140403561325773 C-83.74781665621283 -19.19776109124017, -83.3930400527489 -19.25511862115457, -82.86860465284788 -19.3399052695533 M-84.10259325967677 -19.140403561325773 C-83.60983691346108 -19.22006858599939, -83.1170805672454 -19.299733610673, -82.86860465284788 -19.3399052695533 M-82.86860465284788 -19.3399052695533 C-82.50323012817906 -19.375152510520945, -82.13785560351023 -19.410399751488587, -81.6243692896239 -19.45993515863156 M-82.86860465284788 -19.3399052695533 C-82.51329910911697 -19.374181168039584, -82.15799356538606 -19.40845706652587, -81.6243692896239 -19.45993515863156 M-81.6243692896239 -19.45993515863156 C-81.22534898525382 -19.4727309631468, -80.82632868088373 -19.485526767662044, -80.375 -19.5 M-81.6243692896239 -19.45993515863156 C-81.21874993291082 -19.472942581911166, -80.81313057619776 -19.48595000519077, -80.375 -19.5 M-80.375 -19.5 C-80.375 -19.5, -80.375 -19.5, -80.375 -19.5 M-80.375 -19.5 C-80.375 -19.5, -80.375 -19.5, -80.375 -19.5" stroke="#9370DB" stroke-width="1.3" fill="none" stroke-dasharray="0 0" style=""/></g><g class="label" style="" transform="translate(-87.5, -12)"><rect/><foreignObject width="175" height="24"><div xmlns="http://www.w3.org/1999/xhtml" style="display: table-cell; white-space: nowrap; line-height: 1.5; max-width: 200px; text-align: center;"><span class="nodeLabel"><p>Inicio: get_llm_response</p></span></div></foreignObject></g></g><g class="node default" id="my-svg-flowchart-node_1-1" data-look="classic" transform="translate(107.86498260498047, 124)"><rect class="basic label-container" style="" x="-81.796875" y="-27" width="163.59375" height="54"/><g class="label" style="" transform="translate(-51.796875, -12)"><rect/><foreignObject width="103.59375" height="24"><div xmlns="http://www.w3.org/1999/xhtml" style="display: table-cell; white-space: nowrap; line-height: 1.5; max-width: 200px; text-align: center;"><span class="nodeLabel"><p>Asignar: client</p></span></div></foreignObject></g></g><g class="node default" id="my-svg-flowchart-node_2-4" data-look="classic" transform="translate(107.86498260498047, 228)"><rect class="basic label-container" style="" x="-92.71875" y="-27" width="185.4375" height="54"/><g class="label" style="" transform="translate(-62.71875, -12)"><rect/><foreignObject width="125.4375" height="24"><div xmlns="http://www.w3.org/1999/xhtml" style="display: table-cell; white-space: nowrap; line-height: 1.5; max-width: 200px; text-align: center;"><span class="nodeLabel"><p>Asignar: response</p></span></div></foreignObject></g></g><g class="node default" id="my-svg-flowchart-node_3-7" data-look="classic" transform="translate(107.86498260498047, 324.5)"><g class="basic label-container outer-path"><path d="M-40.6796875 -19.5 C-8.935816352285507 -19.5, 22.808054795428987 -19.5, 40.6796875 -19.5 C40.6796875 -19.5, 40.6796875 -19.5, 40.6796875 -19.5 C41.17104522804473 -19.484243114031404, 41.66240295608946 -19.468486228062808, 41.9290567896239 -19.45993515863156 C42.19827420741949 -19.433964078118134, 42.46749162521508 -19.40799299760471, 43.173292152847864 -19.3399052695533 C43.44955992861603 -19.2952404380557, 43.7258277043842 -19.250575606558105, 44.40728075967676 -19.140403561325776 C44.77707923570077 -19.055999472333873, 45.14687771172478 -18.97159538334197, 45.62595188623539 -18.862249829261074 C46.06630779144782 -18.73155450806934, 46.506663696660254 -18.600859186877607, 46.824297751460605 -18.50658706670804 C47.24168906137938 -18.352983206334958, 47.65908037129816 -18.199379345961873, 47.9973940951478 -18.074876768247425 C48.445548366018436 -17.8764921665571, 48.89370263688908 -17.678107564866774, 49.14042041279238 -17.568892924097174 C49.47276274106416 -17.39551014431321, 49.80510506933594 -17.222127364529246, 50.24867976407678 -16.990714730406097 C50.48827731039196 -16.84546928979837, 50.727874856707125 -16.70022384919064, 51.3176180736057 -16.342718045390892 C51.70668046957026 -16.071324960205686, 52.09574286553482 -15.799931875020482, 52.34284284457871 -15.627565626425154 C52.58559030088721 -15.433980989800231, 52.82833775719571 -15.240396353175306, 53.320141208501866 -14.848196188198123 C53.541030042147234 -14.647590793879678, 53.7619188757926 -14.44698539956123, 54.24549723676799 -14.007812326905688 C54.513636460394196 -13.73093656387195, 54.7817756840204 -13.454060800838212, 55.11510844296865 -13.10986736009568 C55.425736792949095 -12.744985624954813, 55.73636514292955 -12.380103889813945, 55.92540140812658 -12.158051136245305 C56.1041843390473 -11.918498296271617, 56.28296726996801 -11.67894545629793, 56.673046464640635 -11.156274872382312 C56.936169088334516 -10.752047864070951, 57.1992917120284 -10.347820855759592, 57.35497137860425 -10.108655082055241 C57.490879599867036 -9.867336273003437, 57.626787821129824 -9.626017463951632, 57.968373974273504 -9.019496659696287 C58.13540284093907 -8.672657644220005, 58.30243170760464 -8.325818628743724, 58.51073364880834 -7.893275190886684 C58.69519600747034 -7.43764959865447, 58.87965836613233 -6.982024006422257, 58.979821729970325 -6.734618561215508 C59.132731793384835 -6.274077813121055, 59.28564185679935 -5.813537065026602, 59.37371063421488 -5.548287939305138 C59.48454439564157 -5.125630771329119, 59.595378157068254 -4.7029736033531, 59.69078178754556 -4.339158212148133 C59.753043473499176 -4.01945761378829, 59.8153051594528 -3.6997570154284465, 59.929732276581774 -3.1121979531509023 C59.976862679398906 -2.746663855851976, 60.02399308221603 -2.3811297585530493, 60.08958020250937 -1.872449005199798 C60.119687644616484 -1.4035012920916412, 60.14979508672359 -0.9345535789834846, 60.16966871591342 -0.6250057626472757 C60.16966871591342 -0.24145762397893322, 60.16966871591342 0.14209051468940925, 60.16966871591342 0.625005762647271 C60.1426617184038 1.0456615485155472, 60.115654720894184 1.4663173343838234, 60.08958020250937 1.8724490051997846 C60.03912108542216 2.263799953048472, 59.988661968334945 2.6551509008971594, 59.929732276581774 3.1121979531508885 C59.84435934247429 3.5505699262167925, 59.758986408366816 3.988941899282697, 59.69078178754556 4.339158212148129 C59.613402683438345 4.634238272424815, 59.53602357933112 4.929318332701502, 59.37371063421489 5.548287939305125 C59.28216716961433 5.824002269211657, 59.19062370501378 6.099716599118189, 58.979821729970325 6.734618561215495 C58.85300020703783 7.047870174786108, 58.72617868410533 7.36112178835672, 58.51073364880834 7.893275190886679 C58.34033875554676 8.247103832611005, 58.16994386228519 8.600932474335332, 57.968373974273504 9.019496659696284 C57.79699983743901 9.323788793159027, 57.62562570060452 9.62808092662177, 57.35497137860425 10.108655082055236 C57.14954138466084 10.424250718429604, 56.94411139071744 10.739846354803973, 56.67304646464064 11.156274872382301 C56.50526437489045 11.381087587384728, 56.33748228514027 11.605900302387157, 55.92540140812658 12.158051136245302 C55.68653642836277 12.438635533278262, 55.44767144859896 12.719219930311224, 55.11510844296866 13.10986736009567 C54.77974505544066 13.456157591564512, 54.444381667912644 13.802447823033356, 54.24549723676799 14.007812326905684 C53.902362914546096 14.319437839510949, 53.559228592324196 14.631063352116215, 53.32014120850189 14.848196188198111 C52.97104213559884 15.126593408921806, 52.6219430626958 15.404990629645503, 52.34284284457871 15.627565626425152 C52.003294150805154 15.864420096375538, 51.663745457031595 16.101274566325923, 51.31761807360571 16.34271804539089 C51.07505862939311 16.489759005910077, 50.832499185180524 16.636799966429265, 50.24867976407678 16.990714730406093 C49.904594091492896 17.170224005395717, 49.56050841890901 17.349733280385337, 49.14042041279239 17.56889292409717 C48.80389526189214 17.717862625736792, 48.467370110991894 17.866832327376418, 47.997394095147804 18.07487676824742 C47.537262618263085 18.244209405149743, 47.07713114137836 18.413542042052068, 46.82429775146062 18.506587066708033 C46.51769202650195 18.597586036469476, 46.21108630154327 18.68858500623092, 45.62595188623541 18.86224982926107 C45.20208344937436 18.958995033974556, 44.778215012513314 19.055740238688045, 44.407280759676766 19.140403561325773 C44.02009021101209 19.20300152652633, 43.632899662347405 19.265599491726885, 43.17329215284788 19.3399052695533 C42.89924793106273 19.366341986042514, 42.625203709277585 19.392778702531732, 41.9290567896239 19.45993515863156 C41.55904448673292 19.471800733000016, 41.18903218384195 19.483666307368473, 40.67968750000001 19.5 C40.67968750000001 19.5, 40.67968750000001 19.5, 40.6796875 19.5 C22.817812365703432 19.5, 4.955937231406864 19.5, -40.67968749999999 19.5 C-40.94739293505883 19.49141520775468, -41.215098370117666 19.482830415509365, -41.92905678962389 19.45993515863156 C-42.296794169506185 19.42445997586322, -42.66453154938848 19.38898479309488, -43.17329215284787 19.3399052695533 C-43.643615404887754 19.263867053574785, -44.11393865692763 19.18782883759627, -44.40728075967676 19.140403561325773 C-44.821474613706435 19.045866517010992, -45.235668467736105 18.951329472696212, -45.625951886235384 18.862249829261074 C-46.07697330051836 18.728389040961602, -46.527994714801345 18.59452825266213, -46.82429775146059 18.506587066708043 C-47.19703448439709 18.36941650344682, -47.569771217333596 18.2322459401856, -47.9973940951478 18.074876768247425 C-48.324691379674704 17.929991969316347, -48.65198866420162 17.785107170385274, -49.14042041279238 17.568892924097174 C-49.45758764202618 17.403426983761204, -49.77475487125999 17.237961043425237, -50.24867976407678 16.990714730406097 C-50.52947207783887 16.820496779684724, -50.81026439160095 16.65027882896335, -51.317618073605686 16.3427180453909 C-51.59498465816939 16.14923912300519, -51.87235124273309 15.95576020061948, -52.34284284457871 15.627565626425156 C-52.727558050650536 15.320765487284463, -53.11227325672236 15.01396534814377, -53.320141208501866 14.848196188198125 C-53.62441754011794 14.571860474534978, -53.92869387173401 14.29552476087183, -54.245497236767974 14.007812326905697 C-54.42450342289044 13.822973743053051, -54.6035096090129 13.638135159200406, -55.115108442968655 13.109867360095677 C-55.37674552410407 12.802533557022354, -55.638382605239485 12.49519975394903, -55.925401408126575 12.158051136245307 C-56.19412536482107 11.79798551553077, -56.46284932151556 11.437919894816234, -56.673046464640635 11.156274872382316 C-56.88254936277469 10.834422161443198, -57.092052260908744 10.512569450504083, -57.35497137860425 10.108655082055249 C-57.55820441822951 9.747794240623769, -57.76143745785476 9.386933399192289, -57.968373974273504 9.019496659696289 C-58.10185865347236 8.742312867225268, -58.23534333267121 8.465129074754248, -58.51073364880834 7.893275190886686 C-58.642071072054016 7.568869216233529, -58.7734084952997 7.244463241580371, -58.979821729970325 6.73461856121551 C-59.07323767888423 6.45326460689701, -59.16665362779815 6.171910652578511, -59.37371063421488 5.5482879393051325 C-59.47915811028545 5.146171011822852, -59.58460558635601 4.744054084340571, -59.69078178754556 4.339158212148136 C-59.752155502850854 4.024017155394766, -59.81352921815615 3.7088760986413964, -59.929732276581774 3.112197953150904 C-59.967993424793846 2.8154520431363923, -60.00625457300592 2.5187061331218805, -60.08958020250937 1.872449005199809 C-60.11099872497316 1.5388382291061706, -60.13241724743694 1.205227453012532, -60.16966871591342 0.6250057626472781 C-60.16966871591342 0.3245393453516774, -60.16966871591342 0.024072928056076637, -60.16966871591342 -0.6250057626472687 C-60.143906856776745 -1.0262675132993446, -60.11814499764007 -1.4275292639514205, -60.08958020250937 -1.8724490051997822 C-60.04847594942383 -2.191245475178346, -60.00737169633829 -2.51004194515691, -59.929732276581774 -3.112197953150895 C-59.87492775975268 -3.3936075641295576, -59.820123242923586 -3.6750171751082195, -59.69078178754556 -4.339158212148126 C-59.60118907464612 -4.680814056161093, -59.511596361746676 -5.022469900174062, -59.37371063421489 -5.548287939305123 C-59.27187551424336 -5.854999095436426, -59.17004039427183 -6.16171025156773, -58.97982172997033 -6.734618561215485 C-58.8406231160523 -7.0784418288151505, -58.70142450213426 -7.422265096414815, -58.51073364880834 -7.893275190886676 C-58.31795768304053 -8.293578608548433, -58.12518171727272 -8.69388202621019, -57.968373974273504 -9.019496659696282 C-57.77455840406861 -9.363635830549722, -57.58074283386372 -9.707775001403162, -57.35497137860425 -10.108655082055243 C-57.20668928463231 -10.336456197713595, -57.05840719066038 -10.564257313371945, -56.67304646464064 -11.156274872382308 C-56.41648326820237 -11.500046182221562, -56.1599200717641 -11.843817492060813, -55.92540140812659 -12.158051136245302 C-55.67735354128071 -12.449422274965931, -55.429305674434836 -12.740793413686562, -55.11510844296866 -13.10986736009567 C-54.77809605546492 -13.457860319424872, -54.44108366796118 -13.805853278754073, -54.245497236767996 -14.007812326905677 C-53.94530869325723 -14.28043561956853, -53.64512014974647 -14.553058912231384, -53.32014120850189 -14.848196188198107 C-53.0216628385999 -15.08622474535194, -52.72318446869792 -15.32425330250577, -52.34284284457872 -15.627565626425149 C-51.96945408608213 -15.888025460613528, -51.59606532758554 -16.148485294801908, -51.317618073605715 -16.342718045390885 C-51.09743667561447 -16.476193302782697, -50.87725527762323 -16.609668560174505, -50.24867976407679 -16.99071473040609 C-49.83014047847322 -17.209066407618266, -49.41160119286965 -17.427418084830446, -49.14042041279239 -17.56889292409717 C-48.83308650716261 -17.70494052738308, -48.52575260153284 -17.84098813066899, -47.997394095147804 -18.07487676824742 C-47.61879796478907 -18.2142036439237, -47.24020183443033 -18.353530519599982, -46.82429775146062 -18.506587066708033 C-46.5380273783006 -18.591550610798073, -46.251757005140576 -18.676514154888118, -45.62595188623541 -18.862249829261067 C-45.19592121349142 -18.96040152410249, -44.76589054074742 -19.058553218943914, -44.407280759676766 -19.140403561325773 C-44.03087802672605 -19.201257436142456, -43.65447529377534 -19.262111310959135, -43.17329215284788 -19.3399052695533 C-42.706272947427344 -19.384958050627446, -42.2392537420068 -19.430010831701598, -41.9290567896239 -19.45993515863156 C-41.63652365697367 -19.46931612681445, -41.343990524323445 -19.478697094997344, -40.67968750000001 -19.5 C-40.67968750000001 -19.5, -40.6796875 -19.5, -40.6796875 -19.5" stroke="none" stroke-width="0" fill="#ECECFF" style=""/><path d="M-40.6796875 -19.5 C-17.732334210355138 -19.5, 5.215019079289725 -19.5, 40.6796875 -19.5 M-40.6796875 -19.5 C-10.007561432287083 -19.5, 20.664564635425833 -19.5, 40.6796875 -19.5 M40.6796875 -19.5 C40.6796875 -19.5, 40.6796875 -19.5, 40.6796875 -19.5 M40.6796875 -19.5 C40.6796875 -19.5, 40.6796875 -19.5, 40.6796875 -19.5 M40.6796875 -19.5 C41.04767444473816 -19.488199374925383, 41.415661389476334 -19.476398749850766, 41.9290567896239 -19.45993515863156 M40.6796875 -19.5 C41.01439149189116 -19.48926669444185, 41.349095483782314 -19.478533388883697, 41.9290567896239 -19.45993515863156 M41.9290567896239 -19.45993515863156 C42.23722430631529 -19.430206608922003, 42.54539182300669 -19.400478059212446, 43.173292152847864 -19.3399052695533 M41.9290567896239 -19.45993515863156 C42.18533464558208 -19.43521234208649, 42.44161250154026 -19.41048952554142, 43.173292152847864 -19.3399052695533 M43.173292152847864 -19.3399052695533 C43.53502386559275 -19.281423291508034, 43.89675557833764 -19.222941313462773, 44.40728075967676 -19.140403561325776 M43.173292152847864 -19.3399052695533 C43.63053522142131 -19.265981756199302, 44.08777828999475 -19.192058242845302, 44.40728075967676 -19.140403561325776 M44.40728075967676 -19.140403561325776 C44.86371073965392 -19.03622639687996, 45.32014071963108 -18.93204923243415, 45.62595188623539 -18.862249829261074 M44.40728075967676 -19.140403561325776 C44.87396430288115 -19.0338860879841, 45.34064784608553 -18.927368614642425, 45.62595188623539 -18.862249829261074 M45.62595188623539 -18.862249829261074 C45.93724667011409 -18.76985917142554, 46.24854145399279 -18.677468513590007, 46.824297751460605 -18.50658706670804 M45.62595188623539 -18.862249829261074 C45.90373532790023 -18.77980516188999, 46.181518769565066 -18.697360494518907, 46.824297751460605 -18.50658706670804 M46.824297751460605 -18.50658706670804 C47.25592605393864 -18.347743861467833, 47.68755435641666 -18.18890065622763, 47.9973940951478 -18.074876768247425 M46.824297751460605 -18.50658706670804 C47.22870171593063 -18.3577626695138, 47.63310568040067 -18.20893827231956, 47.9973940951478 -18.074876768247425 M47.9973940951478 -18.074876768247425 C48.34737401082951 -17.919951041360463, 48.697353926511234 -17.765025314473498, 49.14042041279238 -17.568892924097174 M47.9973940951478 -18.074876768247425 C48.39342323776626 -17.89956641459735, 48.789452380384716 -17.724256060947273, 49.14042041279238 -17.568892924097174 M49.14042041279238 -17.568892924097174 C49.5470580355297 -17.35675033677894, 49.95369565826702 -17.14460774946071, 50.24867976407678 -16.990714730406097 M49.14042041279238 -17.568892924097174 C49.48386588337141 -17.38971764208342, 49.827311353950435 -17.210542360069663, 50.24867976407678 -16.990714730406097 M50.24867976407678 -16.990714730406097 C50.62702006817823 -16.761362614685382, 51.00536037227968 -16.532010498964663, 51.3176180736057 -16.342718045390892 M50.24867976407678 -16.990714730406097 C50.46704725929673 -16.858339071533923, 50.68541475451668 -16.72596341266175, 51.3176180736057 -16.342718045390892 M51.3176180736057 -16.342718045390892 C51.70626676753949 -16.071613540833482, 52.09491546147328 -15.800509036276072, 52.34284284457871 -15.627565626425154 M51.3176180736057 -16.342718045390892 C51.68442381509098 -16.08685023889539, 52.05122955657625 -15.83098243239989, 52.34284284457871 -15.627565626425154 M52.34284284457871 -15.627565626425154 C52.569503901952196 -15.44680946487385, 52.79616495932569 -15.266053303322547, 53.320141208501866 -14.848196188198123 M52.34284284457871 -15.627565626425154 C52.66513395307031 -15.37054704392969, 52.98742506156191 -15.113528461434226, 53.320141208501866 -14.848196188198123 M53.320141208501866 -14.848196188198123 C53.53491358624976 -14.653145597293213, 53.74968596399764 -14.458095006388302, 54.24549723676799 -14.007812326905688 M53.320141208501866 -14.848196188198123 C53.63291616855733 -14.564142245047707, 53.9456911286128 -14.28008830189729, 54.24549723676799 -14.007812326905688 M54.24549723676799 -14.007812326905688 C54.46300820666355 -13.783214392505778, 54.68051917655911 -13.55861645810587, 55.11510844296865 -13.10986736009568 M54.24549723676799 -14.007812326905688 C54.47300419424326 -13.772892714643882, 54.70051115171854 -13.537973102382079, 55.11510844296865 -13.10986736009568 M55.11510844296865 -13.10986736009568 C55.3865305236728 -12.791039539746674, 55.65795260437695 -12.472211719397666, 55.92540140812658 -12.158051136245305 M55.11510844296865 -13.10986736009568 C55.39465337218625 -12.7814979796796, 55.674198301403855 -12.45312859926352, 55.92540140812658 -12.158051136245305 M55.92540140812658 -12.158051136245305 C56.112229266291855 -11.90771882667186, 56.29905712445713 -11.657386517098416, 56.673046464640635 -11.156274872382312 M55.92540140812658 -12.158051136245305 C56.167406191431944 -11.833786773705432, 56.409410974737305 -11.509522411165559, 56.673046464640635 -11.156274872382312 M56.673046464640635 -11.156274872382312 C56.82481345214139 -10.923120024438743, 56.976580439642156 -10.689965176495173, 57.35497137860425 -10.108655082055241 M56.673046464640635 -11.156274872382312 C56.94459543376098 -10.739102734705334, 57.216144402881326 -10.321930597028357, 57.35497137860425 -10.108655082055241 M57.35497137860425 -10.108655082055241 C57.521557858977765 -9.812863917441746, 57.68814433935128 -9.517072752828248, 57.968373974273504 -9.019496659696287 M57.35497137860425 -10.108655082055241 C57.51204266751428 -9.82975910340278, 57.66911395642431 -9.550863124750322, 57.968373974273504 -9.019496659696287 M57.968373974273504 -9.019496659696287 C58.183029022924906 -8.573760858289369, 58.397684071576315 -8.128025056882448, 58.51073364880834 -7.893275190886684 M57.968373974273504 -9.019496659696287 C58.1588530010033 -8.623962885093594, 58.34933202773309 -8.228429110490898, 58.51073364880834 -7.893275190886684 M58.51073364880834 -7.893275190886684 C58.64913086225673 -7.551431397941062, 58.787528075705126 -7.20958760499544, 58.979821729970325 -6.734618561215508 M58.51073364880834 -7.893275190886684 C58.625078402449056 -7.6108414386887, 58.73942315608977 -7.328407686490717, 58.979821729970325 -6.734618561215508 M58.979821729970325 -6.734618561215508 C59.06181524172784 -6.487667167693851, 59.14380875348536 -6.240715774172194, 59.37371063421488 -5.548287939305138 M58.979821729970325 -6.734618561215508 C59.12500428351698 -6.29735184163154, 59.27018683706364 -5.860085122047574, 59.37371063421488 -5.548287939305138 M59.37371063421488 -5.548287939305138 C59.44436484999234 -5.278852792814873, 59.51501906576979 -5.009417646324608, 59.69078178754556 -4.339158212148133 M59.37371063421488 -5.548287939305138 C59.471630289719364 -5.174877854219389, 59.56954994522385 -4.80146776913364, 59.69078178754556 -4.339158212148133 M59.69078178754556 -4.339158212148133 C59.75542144870728 -4.007247213679925, 59.820061109869 -3.6753362152117175, 59.929732276581774 -3.1121979531509023 M59.69078178754556 -4.339158212148133 C59.74337435434177 -4.069106497092541, 59.795966921137975 -3.799054782036949, 59.929732276581774 -3.1121979531509023 M59.929732276581774 -3.1121979531509023 C59.978076463904 -2.737249982919267, 60.02642065122624 -2.362302012687632, 60.08958020250937 -1.872449005199798 M59.929732276581774 -3.1121979531509023 C59.97391812657955 -2.7695012260511787, 60.01810397657732 -2.4268044989514554, 60.08958020250937 -1.872449005199798 M60.08958020250937 -1.872449005199798 C60.1157781521686 -1.4643947926528762, 60.14197610182784 -1.0563405801059544, 60.16966871591342 -0.6250057626472757 M60.08958020250937 -1.872449005199798 C60.1198555852453 -1.4008854812385718, 60.150130967981234 -0.9293219572773459, 60.16966871591342 -0.6250057626472757 M60.16966871591342 -0.6250057626472757 C60.16966871591342 -0.36687886213275667, 60.16966871591342 -0.10875196161823764, 60.16966871591342 0.625005762647271 M60.16966871591342 -0.6250057626472757 C60.16966871591342 -0.24548659182526178, 60.16966871591342 0.13403257899675214, 60.16966871591342 0.625005762647271 M60.16966871591342 0.625005762647271 C60.14356631839297 1.0315716735042506, 60.117463920872524 1.4381375843612303, 60.08958020250937 1.8724490051997846 M60.16966871591342 0.625005762647271 C60.139524040602716 1.0945334129553967, 60.109379365292014 1.5640610632635221, 60.08958020250937 1.8724490051997846 M60.08958020250937 1.8724490051997846 C60.04673124179152 2.2047770830430546, 60.00388228107367 2.537105160886324, 59.929732276581774 3.1121979531508885 M60.08958020250937 1.8724490051997846 C60.04543214836797 2.2148525951010893, 60.00128409422657 2.5572561850023936, 59.929732276581774 3.1121979531508885 M59.929732276581774 3.1121979531508885 C59.86916735179964 3.4231860415057622, 59.80860242701751 3.734174129860636, 59.69078178754556 4.339158212148129 M59.929732276581774 3.1121979531508885 C59.86874106812278 3.4253749180913546, 59.80774985966379 3.7385518830318207, 59.69078178754556 4.339158212148129 M59.69078178754556 4.339158212148129 C59.624947011823735 4.590214744947726, 59.55911223610192 4.841271277747324, 59.37371063421489 5.548287939305125 M59.69078178754556 4.339158212148129 C59.58429959002757 4.745220980960578, 59.47781739250957 5.151283749773029, 59.37371063421489 5.548287939305125 M59.37371063421489 5.548287939305125 C59.2853969049031 5.81427482111031, 59.197083175591324 6.080261702915494, 58.979821729970325 6.734618561215495 M59.37371063421489 5.548287939305125 C59.271355900992404 5.856564087759163, 59.16900116776993 6.164840236213202, 58.979821729970325 6.734618561215495 M58.979821729970325 6.734618561215495 C58.86371856274397 7.021395628966631, 58.74761539551761 7.308172696717767, 58.51073364880834 7.893275190886679 M58.979821729970325 6.734618561215495 C58.86835717067275 7.00993817770115, 58.75689261137518 7.285257794186805, 58.51073364880834 7.893275190886679 M58.51073364880834 7.893275190886679 C58.29887077094401 8.333212989911347, 58.08700789307969 8.773150788936015, 57.968373974273504 9.019496659696284 M58.51073364880834 7.893275190886679 C58.383895041665774 8.156658272529647, 58.257056434523214 8.420041354172616, 57.968373974273504 9.019496659696284 M57.968373974273504 9.019496659696284 C57.74013188473161 9.424763601695659, 57.51188979518972 9.830030543695033, 57.35497137860425 10.108655082055236 M57.968373974273504 9.019496659696284 C57.75276754628851 9.402327705101905, 57.53716111830352 9.785158750507527, 57.35497137860425 10.108655082055236 M57.35497137860425 10.108655082055236 C57.19598780375903 10.352896546084933, 57.03700422891381 10.59713801011463, 56.67304646464064 11.156274872382301 M57.35497137860425 10.108655082055236 C57.12353013851317 10.46421097751001, 56.892088898422095 10.819766872964786, 56.67304646464064 11.156274872382301 M56.67304646464064 11.156274872382301 C56.4712007027135 11.426729804837471, 56.26935494078636 11.697184737292641, 55.92540140812658 12.158051136245302 M56.67304646464064 11.156274872382301 C56.459934687877805 11.441825238362235, 56.246822911114975 11.727375604342166, 55.92540140812658 12.158051136245302 M55.92540140812658 12.158051136245302 C55.69718479231467 12.426127359071284, 55.46896817650276 12.694203581897268, 55.11510844296866 13.10986736009567 M55.92540140812658 12.158051136245302 C55.62909978270044 12.506103885510953, 55.33279815727431 12.854156634776606, 55.11510844296866 13.10986736009567 M55.11510844296866 13.10986736009567 C54.78832364430656 13.447299494245224, 54.461538845644455 13.784731628394779, 54.24549723676799 14.007812326905684 M55.11510844296866 13.10986736009567 C54.791769202361124 13.443741672668306, 54.468429961753586 13.777615985240942, 54.24549723676799 14.007812326905684 M54.24549723676799 14.007812326905684 C54.02462459006227 14.208403020673831, 53.803751943356545 14.408993714441978, 53.32014120850189 14.848196188198111 M54.24549723676799 14.007812326905684 C54.04139751750531 14.193170291757399, 53.83729779824263 14.378528256609112, 53.32014120850189 14.848196188198111 M53.32014120850189 14.848196188198111 C52.975670454705266 15.122902447599179, 52.63119970090864 15.397608707000249, 52.34284284457871 15.627565626425152 M53.32014120850189 14.848196188198111 C53.05619557696772 15.058685805458369, 52.792249945433554 15.269175422718627, 52.34284284457871 15.627565626425152 M52.34284284457871 15.627565626425152 C52.05812549823114 15.82617212202194, 51.77340815188358 16.02477861761873, 51.31761807360571 16.34271804539089 M52.34284284457871 15.627565626425152 C52.03718699457699 15.840777915757863, 51.73153114457527 16.053990205090575, 51.31761807360571 16.34271804539089 M51.31761807360571 16.34271804539089 C50.98869507521043 16.5421130999842, 50.65977207681515 16.74150815457751, 50.24867976407678 16.990714730406093 M51.31761807360571 16.34271804539089 C50.928615884942374 16.57853345818921, 50.539613696279034 16.814348870987526, 50.24867976407678 16.990714730406093 M50.24867976407678 16.990714730406093 C50.008297899300466 17.116121795287967, 49.76791603452414 17.24152886016984, 49.14042041279239 17.56889292409717 M50.24867976407678 16.990714730406093 C49.87784746228718 17.184177704720305, 49.50701516049757 17.377640679034517, 49.14042041279239 17.56889292409717 M49.14042041279239 17.56889292409717 C48.845927229116405 17.699256320680618, 48.551434045440416 17.82961971726407, 47.997394095147804 18.07487676824742 M49.14042041279239 17.56889292409717 C48.84631458196847 17.69908485106342, 48.55220875114456 17.829276778029673, 47.997394095147804 18.07487676824742 M47.997394095147804 18.07487676824742 C47.67863534855756 18.19218293356618, 47.35987660196733 18.309489098884942, 46.82429775146062 18.506587066708033 M47.997394095147804 18.07487676824742 C47.61322516185266 18.216254486918725, 47.22905622855752 18.35763220559003, 46.82429775146062 18.506587066708033 M46.82429775146062 18.506587066708033 C46.499485725309 18.602989571096717, 46.17467369915738 18.699392075485402, 45.62595188623541 18.86224982926107 M46.82429775146062 18.506587066708033 C46.52966765165702 18.59403173378479, 46.23503755185342 18.681476400861545, 45.62595188623541 18.86224982926107 M45.62595188623541 18.86224982926107 C45.23711357132915 18.950999637231288, 44.84827525642287 19.039749445201505, 44.407280759676766 19.140403561325773 M45.62595188623541 18.86224982926107 C45.343530595359205 18.926710645932406, 45.061109304483 18.991171462603745, 44.407280759676766 19.140403561325773 M44.407280759676766 19.140403561325773 C43.94866745395542 19.214548603995496, 43.49005414823407 19.28869364666522, 43.17329215284788 19.3399052695533 M44.407280759676766 19.140403561325773 C43.940158018357 19.21592434355139, 43.47303527703725 19.291445125777006, 43.17329215284788 19.3399052695533 M43.17329215284788 19.3399052695533 C42.90659234701774 19.365633479068286, 42.639892541187606 19.391361688583277, 41.9290567896239 19.45993515863156 M43.17329215284788 19.3399052695533 C42.78003565113348 19.377842251313545, 42.386779149419084 19.415779233073795, 41.9290567896239 19.45993515863156 M41.9290567896239 19.45993515863156 C41.644247735888754 19.469068430637652, 41.35943868215361 19.478201702643744, 40.67968750000001 19.5 M41.9290567896239 19.45993515863156 C41.51431207956133 19.47323521423166, 41.099567369498764 19.486535269831762, 40.67968750000001 19.5 M40.67968750000001 19.5 C40.67968750000001 19.5, 40.6796875 19.5, 40.6796875 19.5 M40.67968750000001 19.5 C40.67968750000001 19.5, 40.67968750000001 19.5, 40.6796875 19.5 M40.6796875 19.5 C17.981101460338618 19.5, -4.717484579322765 19.5, -40.67968749999999 19.5 M40.6796875 19.5 C16.538222453951498 19.5, -7.603242592097004 19.5, -40.67968749999999 19.5 M-40.67968749999999 19.5 C-41.164258578075824 19.484460748686494, -41.648829656151655 19.46892149737299, -41.92905678962389 19.45993515863156 M-40.67968749999999 19.5 C-41.12459602107551 19.48573264969101, -41.56950454215104 19.471465299382018, -41.92905678962389 19.45993515863156 M-41.92905678962389 19.45993515863156 C-42.296407232786095 19.424497303183248, -42.663757675948304 19.389059447734937, -43.17329215284787 19.3399052695533 M-41.92905678962389 19.45993515863156 C-42.29833166568419 19.424311655456037, -42.66760654174449 19.388688152280515, -43.17329215284787 19.3399052695533 M-43.17329215284787 19.3399052695533 C-43.576530483464865 19.2747128234191, -43.97976881408185 19.209520377284903, -44.40728075967676 19.140403561325773 M-43.17329215284787 19.3399052695533 C-43.654583284440285 19.262093851865906, -44.1358744160327 19.184282434178513, -44.40728075967676 19.140403561325773 M-44.40728075967676 19.140403561325773 C-44.874892787381825 19.033674167455747, -45.3425048150869 18.926944773585717, -45.625951886235384 18.862249829261074 M-44.40728075967676 19.140403561325773 C-44.669303698462244 19.080598535407457, -44.93132663724772 19.020793509489142, -45.625951886235384 18.862249829261074 M-45.625951886235384 18.862249829261074 C-46.08673032255951 18.725493208035445, -46.54750875888363 18.588736586809812, -46.82429775146059 18.506587066708043 M-45.625951886235384 18.862249829261074 C-46.011219547237545 18.747904409786855, -46.39648720823971 18.633558990312633, -46.82429775146059 18.506587066708043 M-46.82429775146059 18.506587066708043 C-47.093088459969714 18.407669601302615, -47.361879168478836 18.308752135897183, -47.9973940951478 18.074876768247425 M-46.82429775146059 18.506587066708043 C-47.087990112917886 18.40954584014629, -47.35168247437518 18.31250461358454, -47.9973940951478 18.074876768247425 M-47.9973940951478 18.074876768247425 C-48.41534726220582 17.88986129933103, -48.83330042926384 17.70484583041464, -49.14042041279238 17.568892924097174 M-47.9973940951478 18.074876768247425 C-48.291898295362415 17.944508494969117, -48.58640249557703 17.814140221690806, -49.14042041279238 17.568892924097174 M-49.14042041279238 17.568892924097174 C-49.487346202754004 17.38790196169077, -49.83427199271563 17.206910999284364, -50.24867976407678 16.990714730406097 M-49.14042041279238 17.568892924097174 C-49.58363365394409 17.337668860079958, -50.0268468950958 17.10644479606274, -50.24867976407678 16.990714730406097 M-50.24867976407678 16.990714730406097 C-50.648368230436226 16.748421233268857, -51.04805669679567 16.506127736131617, -51.317618073605686 16.3427180453909 M-50.24867976407678 16.990714730406097 C-50.64098695665721 16.752895804810876, -51.03329414923763 16.515076879215655, -51.317618073605686 16.3427180453909 M-51.317618073605686 16.3427180453909 C-51.6881457849839 16.084253953819562, -52.058673496362125 15.825789862248227, -52.34284284457871 15.627565626425156 M-51.317618073605686 16.3427180453909 C-51.557116843050174 16.17565407156106, -51.796615612494655 16.00859009773122, -52.34284284457871 15.627565626425156 M-52.34284284457871 15.627565626425156 C-52.66888767734027 15.367553548715195, -52.99493251010183 15.107541471005234, -53.320141208501866 14.848196188198125 M-52.34284284457871 15.627565626425156 C-52.54549052096908 15.465959497184981, -52.74813819735945 15.304353367944806, -53.320141208501866 14.848196188198125 M-53.320141208501866 14.848196188198125 C-53.52300961157066 14.66395647213486, -53.72587801463945 14.479716756071596, -54.245497236767974 14.007812326905697 M-53.320141208501866 14.848196188198125 C-53.572226203248206 14.61925926577297, -53.82431119799454 14.390322343347812, -54.245497236767974 14.007812326905697 M-54.245497236767974 14.007812326905697 C-54.59044470684441 13.651625743337796, -54.93539217692084 13.295439159769893, -55.115108442968655 13.109867360095677 M-54.245497236767974 14.007812326905697 C-54.468688977486785 13.777348530230826, -54.691880718205596 13.546884733555954, -55.115108442968655 13.109867360095677 M-55.115108442968655 13.109867360095677 C-55.4275571782994 12.74284729673949, -55.74000591363014 12.3758272333833, -55.925401408126575 12.158051136245307 M-55.115108442968655 13.109867360095677 C-55.39233359681683 12.784222919827478, -55.66955875066501 12.458578479559279, -55.925401408126575 12.158051136245307 M-55.925401408126575 12.158051136245307 C-56.19199428022989 11.80084097473715, -56.4585871523332 11.443630813228994, -56.673046464640635 11.156274872382316 M-55.925401408126575 12.158051136245307 C-56.16038810820578 11.843190365867953, -56.395374808284984 11.528329595490597, -56.673046464640635 11.156274872382316 M-56.673046464640635 11.156274872382316 C-56.88496347619598 10.830713434947878, -57.09688048775132 10.505151997513442, -57.35497137860425 10.108655082055249 M-56.673046464640635 11.156274872382316 C-56.91757250155517 10.780617215246789, -57.16209853846971 10.404959558111262, -57.35497137860425 10.108655082055249 M-57.35497137860425 10.108655082055249 C-57.59662487144199 9.679574835452252, -57.838278364279724 9.250494588849255, -57.968373974273504 9.019496659696289 M-57.35497137860425 10.108655082055249 C-57.549697988699926 9.762898267622926, -57.74442459879561 9.417141453190606, -57.968373974273504 9.019496659696289 M-57.968373974273504 9.019496659696289 C-58.14213382392742 8.658680614024728, -58.31589367358134 8.297864568353168, -58.51073364880834 7.893275190886686 M-57.968373974273504 9.019496659696289 C-58.11503060372007 8.714961030701305, -58.26168723316664 8.410425401706322, -58.51073364880834 7.893275190886686 M-58.51073364880834 7.893275190886686 C-58.69093079970891 7.448184744287371, -58.871127950609484 7.0030942976880555, -58.979821729970325 6.73461856121551 M-58.51073364880834 7.893275190886686 C-58.64190784678547 7.56927238580258, -58.7730820447626 7.245269580718474, -58.979821729970325 6.73461856121551 M-58.979821729970325 6.73461856121551 C-59.09399438203362 6.390748724142587, -59.20816703409692 6.046878887069664, -59.37371063421488 5.5482879393051325 M-58.979821729970325 6.73461856121551 C-59.13656634525337 6.262528753845893, -59.293310960536424 5.790438946476275, -59.37371063421488 5.5482879393051325 M-59.37371063421488 5.5482879393051325 C-59.497403151080995 5.076594763818726, -59.62109566794711 4.60490158833232, -59.69078178754556 4.339158212148136 M-59.37371063421488 5.5482879393051325 C-59.48185804255496 5.135874999921143, -59.59000545089504 4.723462060537152, -59.69078178754556 4.339158212148136 M-59.69078178754556 4.339158212148136 C-59.772439427333936 3.919863490183108, -59.85409706712231 3.5005687682180806, -59.929732276581774 3.112197953150904 M-59.69078178754556 4.339158212148136 C-59.76298223757714 3.9684241608064847, -59.83518268760872 3.5976901094648337, -59.929732276581774 3.112197953150904 M-59.929732276581774 3.112197953150904 C-59.96239073314638 2.8589054131775216, -59.99504918971099 2.6056128732041386, -60.08958020250937 1.872449005199809 M-59.929732276581774 3.112197953150904 C-59.98432016054038 2.6888251047649394, -60.03890804449898 2.2654522563789747, -60.08958020250937 1.872449005199809 M-60.08958020250937 1.872449005199809 C-60.11459952289935 1.482752894893951, -60.13961884328933 1.0930567845880927, -60.16966871591342 0.6250057626472781 M-60.08958020250937 1.872449005199809 C-60.111717801604804 1.5276380301400414, -60.133855400700234 1.1828270550802737, -60.16966871591342 0.6250057626472781 M-60.16966871591342 0.6250057626472781 C-60.16966871591342 0.221311668226517, -60.16966871591342 -0.18238242619424416, -60.16966871591342 -0.6250057626472687 M-60.16966871591342 0.6250057626472781 C-60.16966871591342 0.1589100248999425, -60.16966871591342 -0.30718571284739316, -60.16966871591342 -0.6250057626472687 M-60.16966871591342 -0.6250057626472687 C-60.14483234617527 -1.0118522688756566, -60.11999597643713 -1.3986987751040445, -60.08958020250937 -1.8724490051997822 M-60.16966871591342 -0.6250057626472687 C-60.15003621148426 -0.9307978662036862, -60.13040370705511 -1.2365899697601037, -60.08958020250937 -1.8724490051997822 M-60.08958020250937 -1.8724490051997822 C-60.03315077032078 -2.310104538002686, -59.976721338132194 -2.7477600708055894, -59.929732276581774 -3.112197953150895 M-60.08958020250937 -1.8724490051997822 C-60.05343961011571 -2.1527483030377756, -60.01729901772206 -2.433047600875769, -59.929732276581774 -3.112197953150895 M-59.929732276581774 -3.112197953150895 C-59.87875132557976 -3.373974361718425, -59.827770374577746 -3.6357507702859544, -59.69078178754556 -4.339158212148126 M-59.929732276581774 -3.112197953150895 C-59.8590790785814 -3.4749871923241242, -59.78842588058103 -3.8377764314973533, -59.69078178754556 -4.339158212148126 M-59.69078178754556 -4.339158212148126 C-59.57779848360603 -4.7700125173432255, -59.46481517966651 -5.200866822538326, -59.37371063421489 -5.548287939305123 M-59.69078178754556 -4.339158212148126 C-59.61592785421795 -4.624608701826229, -59.54107392089034 -4.910059191504334, -59.37371063421489 -5.548287939305123 M-59.37371063421489 -5.548287939305123 C-59.21659132278417 -6.021506271771791, -59.05947201135345 -6.494724604238461, -58.97982172997033 -6.734618561215485 M-59.37371063421489 -5.548287939305123 C-59.23020846614933 -5.980493605553085, -59.086706298083776 -6.4126992718010465, -58.97982172997033 -6.734618561215485 M-58.97982172997033 -6.734618561215485 C-58.86822795930707 -7.010257332272517, -58.756634188643815 -7.2858961033295495, -58.51073364880834 -7.893275190886676 M-58.97982172997033 -6.734618561215485 C-58.83008138716249 -7.104480102983443, -58.68034104435464 -7.4743416447514, -58.51073364880834 -7.893275190886676 M-58.51073364880834 -7.893275190886676 C-58.39379345580168 -8.13610400378431, -58.276853262795015 -8.37893281668194, -57.968373974273504 -9.019496659696282 M-58.51073364880834 -7.893275190886676 C-58.387277375277165 -8.149634784415253, -58.26382110174599 -8.405994377943829, -57.968373974273504 -9.019496659696282 M-57.968373974273504 -9.019496659696282 C-57.829407763398244 -9.266245238960058, -57.690441552522984 -9.512993818223835, -57.35497137860425 -10.108655082055243 M-57.968373974273504 -9.019496659696282 C-57.79274903828024 -9.33133651750552, -57.61712410228697 -9.64317637531476, -57.35497137860425 -10.108655082055243 M-57.35497137860425 -10.108655082055243 C-57.15522132596083 -10.415524803315027, -56.95547127331742 -10.72239452457481, -56.67304646464064 -11.156274872382308 M-57.35497137860425 -10.108655082055243 C-57.140482279938155 -10.438167935993889, -56.92599318127206 -10.767680789932532, -56.67304646464064 -11.156274872382308 M-56.67304646464064 -11.156274872382308 C-56.45657781103121 -11.446323147518912, -56.24010915742178 -11.736371422655518, -55.92540140812659 -12.158051136245302 M-56.67304646464064 -11.156274872382308 C-56.50926259894051 -11.375730331403364, -56.345478733240384 -11.59518579042442, -55.92540140812659 -12.158051136245302 M-55.92540140812659 -12.158051136245302 C-55.705534172286434 -12.416319702263284, -55.48566693644628 -12.674588268281266, -55.11510844296866 -13.10986736009567 M-55.92540140812659 -12.158051136245302 C-55.71577596302291 -12.404289112089817, -55.50615051791923 -12.650527087934332, -55.11510844296866 -13.10986736009567 M-55.11510844296866 -13.10986736009567 C-54.80751023338152 -13.427487765777066, -54.49991202379438 -13.745108171458464, -54.245497236767996 -14.007812326905677 M-55.11510844296866 -13.10986736009567 C-54.94093279550396 -13.289718016189578, -54.766757148039254 -13.469568672283486, -54.245497236767996 -14.007812326905677 M-54.245497236767996 -14.007812326905677 C-53.97588782177883 -14.252664464124623, -53.70627840678966 -14.49751660134357, -53.32014120850189 -14.848196188198107 M-54.245497236767996 -14.007812326905677 C-53.90947158758768 -14.31298193073976, -53.57344593840737 -14.618151534573842, -53.32014120850189 -14.848196188198107 M-53.32014120850189 -14.848196188198107 C-53.04094874880947 -15.070844745179436, -52.76175628911705 -15.293493302160762, -52.34284284457872 -15.627565626425149 M-53.32014120850189 -14.848196188198107 C-53.117447040483135 -15.00983939327472, -52.91475287246438 -15.171482598351336, -52.34284284457872 -15.627565626425149 M-52.34284284457872 -15.627565626425149 C-52.13056098566487 -15.775644261669886, -51.918279126751024 -15.923722896914622, -51.317618073605715 -16.342718045390885 M-52.34284284457872 -15.627565626425149 C-52.10030583967502 -15.796748941788245, -51.85776883477133 -15.96593225715134, -51.317618073605715 -16.342718045390885 M-51.317618073605715 -16.342718045390885 C-51.06295706388447 -16.497095046038112, -50.808296054163215 -16.651472046685342, -50.24867976407679 -16.99071473040609 M-51.317618073605715 -16.342718045390885 C-51.07286273299241 -16.4910901712127, -50.82810739237912 -16.63946229703452, -50.24867976407679 -16.99071473040609 M-50.24867976407679 -16.99071473040609 C-49.871955756513124 -17.187251403848812, -49.495231748949465 -17.38378807729153, -49.14042041279239 -17.56889292409717 M-50.24867976407679 -16.99071473040609 C-50.02004974237531 -17.10999086628323, -49.791419720673844 -17.229267002160373, -49.14042041279239 -17.56889292409717 M-49.14042041279239 -17.56889292409717 C-48.79028970521801 -17.723885402081933, -48.44015899764363 -17.878877880066693, -47.997394095147804 -18.07487676824742 M-49.14042041279239 -17.56889292409717 C-48.74560015076227 -17.743668142170957, -48.350779888732156 -17.91844336024474, -47.997394095147804 -18.07487676824742 M-47.997394095147804 -18.07487676824742 C-47.69557938668189 -18.18594737090746, -47.39376467821598 -18.297017973567495, -46.82429775146062 -18.506587066708033 M-47.997394095147804 -18.07487676824742 C-47.6583885962326 -18.1996339255807, -47.319383097317385 -18.324391082913973, -46.82429775146062 -18.506587066708033 M-46.82429775146062 -18.506587066708033 C-46.42231804773208 -18.625892532740142, -46.02033834400353 -18.74519799877225, -45.62595188623541 -18.862249829261067 M-46.82429775146062 -18.506587066708033 C-46.433590612554106 -18.622546894671864, -46.04288347364759 -18.738506722635695, -45.62595188623541 -18.862249829261067 M-45.62595188623541 -18.862249829261067 C-45.314470472336836 -18.933343429377235, -45.00298905843827 -19.004437029493403, -44.407280759676766 -19.140403561325773 M-45.62595188623541 -18.862249829261067 C-45.13938160349875 -18.973306321127883, -44.65281132076208 -19.084362812994698, -44.407280759676766 -19.140403561325773 M-44.407280759676766 -19.140403561325773 C-44.12679552301865 -19.18575023919316, -43.84631028636054 -19.231096917060547, -43.17329215284788 -19.3399052695533 M-44.407280759676766 -19.140403561325773 C-44.12523723462047 -19.18600217117667, -43.843193709564176 -19.23160078102757, -43.17329215284788 -19.3399052695533 M-43.17329215284788 -19.3399052695533 C-42.770675639800736 -19.378745200349755, -42.368059126753586 -19.417585131146215, -41.9290567896239 -19.45993515863156 M-43.17329215284788 -19.3399052695533 C-42.676689059389275 -19.38781197272665, -42.18008596593067 -19.4357186759, -41.9290567896239 -19.45993515863156 M-41.9290567896239 -19.45993515863156 C-41.57990384307731 -19.471131814042327, -41.23075089653072 -19.48232846945309, -40.67968750000001 -19.5 M-41.9290567896239 -19.45993515863156 C-41.59032683531617 -19.470797568968347, -41.251596881008446 -19.48165997930514, -40.67968750000001 -19.5 M-40.67968750000001 -19.5 C-40.67968750000001 -19.5, -40.6796875 -19.5, -40.6796875 -19.5 M-40.67968750000001 -19.5 C-40.67968750000001 -19.5, -40.67968750000001 -19.5, -40.6796875 -19.5" stroke="#9370DB" stroke-width="1.3" fill="none" stroke-dasharray="0 0" style=""/></g><g class="label" style="" transform="translate(-47.8046875, -12)"><rect/><foreignObject width="95.609375" height="24"><div xmlns="http://www.w3.org/1999/xhtml" style="display: table-cell; white-space: nowrap; line-height: 1.5; max-width: 200px; text-align: center;"><span class="nodeLabel"><p>Fin / Retorno</p></span></div></foreignObject></g></g></g></g></g><defs><filter id="my-svg-drop-shadow" height="130%" width="130%"><feDropShadow dx="4" dy="4" stdDeviation="0" flood-opacity="0.06" flood-color="#000000"/></filter></defs><defs><filter id="my-svg-drop-shadow-small" height="150%" width="150%"><feDropShadow dx="2" dy="2" stdDeviation="0" flood-opacity="0.06" flood-color="#000000"/></filter></defs></svg>